<?xml version="1.0" encoding="UTF-8"?>
<svg width="1285px" height="414px" viewBox="0 0 1285 414" version="1.1" xmlns="http://www.w3.org/2000/svg" xmlns:xlink="http://www.w3.org/1999/xlink">
    <!-- Generator: Sketch 46.2 (44496) - http://www.bohemiancoding.com/sketch -->
    <title>Mobile</title>
    <desc>Created with Sketch.</desc>
    <defs>
        <rect id="path-1" x="0" y="0" width="346" height="335"></rect>
        <filter x="-3.2%" y="-3.3%" width="107.5%" height="107.8%" filterUnits="objectBoundingBox" id="filter-2">
            <feMorphology radius="0.5" operator="dilate" in="SourceAlpha" result="shadowSpreadOuter1"></feMorphology>
            <feOffset dx="2" dy="2" in="shadowSpreadOuter1" result="shadowOffsetOuter1"></feOffset>
            <feGaussianBlur stdDeviation="3.5" in="shadowOffsetOuter1" result="shadowBlurOuter1"></feGaussianBlur>
            <feComposite in="shadowBlurOuter1" in2="SourceAlpha" operator="out" result="shadowBlurOuter1"></feComposite>
            <feColorMatrix values="0 0 0 0 0   0 0 0 0 0   0 0 0 0 0  0 0 0 0.3 0" type="matrix" in="shadowBlurOuter1"></feColorMatrix>
        </filter>
        <rect id="path-3" x="0" y="0" width="156.978052" height="46.9998042"></rect>
        <rect id="path-5" x="0" y="0" width="156.978052" height="46.9998042"></rect>
        <rect id="path-7" x="0" y="0" width="156.978052" height="46.9998042"></rect>
        <rect id="path-9" x="0" y="0" width="156.978052" height="46.9998042"></rect>
        <rect id="path-11" x="0" y="0" width="156.978052" height="46.9998042"></rect>
        <rect id="path-13" x="0" y="0" width="156.978052" height="46.9998042"></rect>
        <rect id="path-15" x="0" y="0" width="156.978052" height="46.9998042"></rect>
        <rect id="path-17" x="0" y="0" width="156.978052" height="46.9998042"></rect>
        <rect id="path-19" x="0" y="0" width="156.978052" height="46.9998042"></rect>
        <rect id="path-21" x="0" y="0" width="156.978052" height="46.9998042"></rect>
        <rect id="path-23" x="0" y="0" width="156.978052" height="46.9998042"></rect>
        <rect id="path-25" x="0" y="0" width="156.978052" height="46.9998042"></rect>
        <rect id="path-27" x="0" y="0" width="156.978052" height="46.9998042"></rect>
        <rect id="path-29" x="0" y="0" width="156.978052" height="46.9998042"></rect>
        <rect id="path-31" x="0" y="0" width="346" height="335"></rect>
        <filter x="-3.2%" y="-3.3%" width="107.5%" height="107.8%" filterUnits="objectBoundingBox" id="filter-32">
            <feMorphology radius="0.5" operator="dilate" in="SourceAlpha" result="shadowSpreadOuter1"></feMorphology>
            <feOffset dx="2" dy="2" in="shadowSpreadOuter1" result="shadowOffsetOuter1"></feOffset>
            <feGaussianBlur stdDeviation="3.5" in="shadowOffsetOuter1" result="shadowBlurOuter1"></feGaussianBlur>
            <feComposite in="shadowBlurOuter1" in2="SourceAlpha" operator="out" result="shadowBlurOuter1"></feComposite>
            <feColorMatrix values="0 0 0 0 0   0 0 0 0 0   0 0 0 0 0  0 0 0 0.3 0" type="matrix" in="shadowBlurOuter1"></feColorMatrix>
        </filter>
        <rect id="path-33" x="0" y="0" width="156.978052" height="46.9998042"></rect>
        <rect id="path-35" x="0" y="0" width="156.978052" height="46.9998042"></rect>
        <rect id="path-37" x="0" y="0" width="156.978052" height="46.9998042"></rect>
        <rect id="path-39" x="0" y="0" width="156.978052" height="46.9998042"></rect>
        <rect id="path-41" x="0" y="0" width="156.978052" height="46.9998042"></rect>
        <rect id="path-43" x="0" y="0" width="156.978052" height="46.9998042"></rect>
        <rect id="path-45" x="0" y="0" width="156.978052" height="46.9998042"></rect>
        <rect id="path-47" x="0" y="0" width="156.978052" height="46.9998042"></rect>
        <rect id="path-49" x="0" y="0" width="156.978052" height="46.9998042"></rect>
        <rect id="path-51" x="0" y="0" width="156.978052" height="46.9998042"></rect>
        <rect id="path-53" x="0" y="0" width="156.978052" height="46.9998042"></rect>
        <rect id="path-55" x="0" y="0" width="156.978052" height="46.9998042"></rect>
        <rect id="path-57" x="0" y="0" width="156.978052" height="46.9998042"></rect>
        <rect id="path-59" x="0" y="0" width="156.978052" height="46.9998042"></rect>
        <rect id="path-61" x="0" y="0" width="346" height="335"></rect>
        <filter x="-3.2%" y="-3.3%" width="107.5%" height="107.8%" filterUnits="objectBoundingBox" id="filter-62">
            <feMorphology radius="0.5" operator="dilate" in="SourceAlpha" result="shadowSpreadOuter1"></feMorphology>
            <feOffset dx="2" dy="2" in="shadowSpreadOuter1" result="shadowOffsetOuter1"></feOffset>
            <feGaussianBlur stdDeviation="3.5" in="shadowOffsetOuter1" result="shadowBlurOuter1"></feGaussianBlur>
            <feComposite in="shadowBlurOuter1" in2="SourceAlpha" operator="out" result="shadowBlurOuter1"></feComposite>
            <feColorMatrix values="0 0 0 0 0   0 0 0 0 0   0 0 0 0 0  0 0 0 0.3 0" type="matrix" in="shadowBlurOuter1"></feColorMatrix>
        </filter>
        <rect id="path-63" x="0" y="0" width="156.978052" height="46.9998042"></rect>
        <rect id="path-65" x="0" y="0" width="156.978052" height="46.9998042"></rect>
        <rect id="path-67" x="0" y="0" width="156.978052" height="46.9998042"></rect>
        <rect id="path-69" x="0" y="0" width="156.978052" height="46.9998042"></rect>
        <rect id="path-71" x="0" y="0" width="156.978052" height="46.9998042"></rect>
        <rect id="path-73" x="0" y="0" width="156.978052" height="46.9998042"></rect>
        <rect id="path-75" x="0" y="0" width="156.978052" height="46.9998042"></rect>
        <rect id="path-77" x="0" y="0" width="156.978052" height="46.9998042"></rect>
        <rect id="path-79" x="0" y="0" width="156.978052" height="46.9998042"></rect>
        <rect id="path-81" x="0" y="0" width="156.978052" height="46.9998042"></rect>
        <rect id="path-83" x="0" y="0" width="156.978052" height="46.9998042"></rect>
        <rect id="path-85" x="0" y="0" width="156.978052" height="46.9998042"></rect>
        <rect id="path-87" x="0" y="0" width="156.978052" height="46.9998042"></rect>
        <rect id="path-89" x="0" y="0" width="156.978052" height="46.9998042"></rect>
        <rect id="path-91" x="0" y="63" width="284" height="40"></rect>
        <rect id="path-92" x="0" y="0" width="290" height="156"></rect>
        <rect id="path-93" x="0" y="0" width="82" height="40"></rect>
        <filter x="-1.2%" y="-2.5%" width="102.4%" height="105.0%" filterUnits="objectBoundingBox" id="filter-94">
            <feOffset dx="0" dy="-2" in="SourceAlpha" result="shadowOffsetInner1"></feOffset>
            <feComposite in="shadowOffsetInner1" in2="SourceAlpha" operator="arithmetic" k2="-1" k3="1" result="shadowInnerInner1"></feComposite>
            <feColorMatrix values="0 0 0 0 0   0 0 0 0 0.392156863   0 0 0 0 0.207843137  0 0 0 1 0" type="matrix" in="shadowInnerInner1"></feColorMatrix>
        </filter>
        <rect id="path-95" x="0" y="0" width="125" height="40"></rect>
        <filter x="-0.8%" y="-2.5%" width="101.6%" height="105.0%" filterUnits="objectBoundingBox" id="filter-96">
            <feOffset dx="0" dy="-2" in="SourceAlpha" result="shadowOffsetInner1"></feOffset>
            <feComposite in="shadowOffsetInner1" in2="SourceAlpha" operator="arithmetic" k2="-1" k3="1" result="shadowInnerInner1"></feComposite>
            <feColorMatrix values="0 0 0 0 0   0 0 0 0 0.392156863   0 0 0 0 0.207843137  0 0 0 1 0" type="matrix" in="shadowInnerInner1"></feColorMatrix>
        </filter>
    </defs>
    <g id="Page-1" stroke="none" stroke-width="1" fill="none" fill-rule="evenodd">
        <g id="Mobile">
            <g id="Group-Copy-7" transform="translate(11.000000, 49.000000)">
                <g id="Rectangle-Copy">
                    <use fill="black" fill-opacity="1" filter="url(#filter-2)" xlink:href="#path-1"></use>
                    <use fill="#FFFFFF" fill-rule="evenodd" xlink:href="#path-1"></use>
                    <rect stroke="#4A4A4A" stroke-width="2" x="1" y="1" width="344" height="333"></rect>
                </g>
                <g id="GOV.UK-solid" transform="translate(10.000000, 12.000000)">
                    <rect id="Rectangle-path" x="0" y="0" width="156.978052" height="46.9998042"></rect>
                    <polygon id="Shape" fill="#000000" fill-rule="evenodd" points="117.900383 31.2364628 121.119674 31.2364628 121.119674 26.4422669 123.173922 24.1660961 127.381878 31.2364628 131.123184 31.2364628 125.239046 21.7360003 130.768056 15.4683544 126.804498 15.4683544 121.119674 22.2968669 121.119674 15.4683544 117.900383 15.4683544"></polygon>
                    <g id="Clipped" stroke-width="1" fill-rule="evenodd">
                        <mask id="mask-4" fill="white">
                            <use xlink:href="#path-3"></use>
                        </mask>
                        <g id="SVGID_1_"></g>
                        <path d="M106.992732,28.5188167 C106.589356,28.3834958 106.241149,28.1780667 105.949295,27.9029208 C105.65665,27.6283625 105.425698,27.2797792 105.255252,26.8583458 C105.084806,26.4369125 104.999583,25.9400833 104.999583,25.3686417 L104.999583,15.5932292 L101.813709,15.5932292 L101.813709,25.8413833 C101.813709,26.720675 101.974268,27.5163458 102.295782,28.2274167 C102.617494,28.9384875 103.066743,29.5432208 103.64353,30.0416167 C104.220713,30.5404042 104.904276,30.9252167 105.695999,31.19625 C106.487128,31.4674792 107.352408,31.6031917 108.29164,31.6031917 C109.230872,31.6031917 110.095953,31.4674792 110.887479,31.19625 C111.678806,30.9250208 112.361183,30.5402083 112.934213,30.0416167 C113.507243,29.5432208 113.954713,28.9384875 114.276424,28.2274167 C114.597938,27.5163458 114.758893,26.7208708 114.758893,25.8413833 L114.758893,15.5932292 L111.59477,15.5932292 L111.59477,25.3686417 C111.59477,25.9400833 111.509151,26.4369125 111.339298,26.8583458 C111.16905,27.2797792 110.937505,27.6283625 110.645453,27.9029208 C110.353006,28.1778708 110.004996,28.3833 109.601621,28.5188167 C109.198443,28.6545292 108.763628,28.7222875 108.297176,28.7222875 C107.830724,28.7222875 107.395909,28.6545292 106.992732,28.5188167" id="Shape" fill="#000000" mask="url(#mask-4)"></path>
                    </g>
                    <mask id="mask-6" fill="white">
                        <use xlink:href="#path-5"></use>
                    </mask>
                    <g id="SVGID_1_"></g>
                    <path d="M95.2027053,30.1267719 C95.3098766,30.3684303 95.4563968,30.5811053 95.6412771,30.7644053 C95.8265529,30.9477053 96.0426751,31.0906636 96.2912255,31.1930844 C96.5387872,31.2958969 96.799597,31.3472053 97.073655,31.3472053 C97.3471197,31.3472053 97.6065454,31.2958969 97.8507456,31.1930844 C98.0947482,31.0906636 98.3096839,30.9475094 98.494762,30.7644053 C98.6798401,30.5813011 98.8259648,30.3686261 98.9333338,30.1267719 C99.0403073,29.8847219 99.0940907,29.6246553 99.0940907,29.3457886 C99.0940907,29.0749511 99.0403073,28.8201719 98.9333338,28.5820386 C98.8259648,28.3437094 98.6798401,28.1349511 98.494762,27.9551761 C98.3096839,27.7757928 98.0949459,27.6328344 97.8507456,27.5264969 C97.6065454,27.4201594 97.3471197,27.3670886 97.073655,27.3670886 C96.799597,27.3670886 96.5387872,27.4201594 96.2912255,27.5264969 C96.0426751,27.6328344 95.8263552,27.7757928 95.6412771,27.9551761 C95.4563968,28.1349511 95.3098766,28.3437094 95.2027053,28.5820386 C95.095534,28.8203678 95.0421461,29.0751469 95.0421461,29.3457886 C95.0419484,29.6244594 95.095534,29.8845261 95.2027053,30.1267719" id="Shape" fill="#000000" fill-rule="evenodd" mask="url(#mask-6)"></path>
                    <polygon id="Shape" fill="#000000" fill-rule="evenodd" mask="url(#mask-6)" points="90.077792 31.2364628 94.5744381 15.4683544 91.0101031 15.4683544 88.0015955 27.3217544 87.8906673 27.3217544 84.8151283 15.4683544 81.2068966 15.4683544 85.7031472 31.2364628"></polygon>
                    <g id="Group" stroke-width="1" fill-rule="evenodd" mask="url(#mask-6)">
                        <g id="Clipped">
                            <mask id="mask-8" fill="white">
                                <use xlink:href="#path-7"></use>
                            </mask>
                            <g id="SVGID_3_"></g>
                            <path d="M70.7043766,28.3317958 C70.1714861,28.0717292 69.7255982,27.7106125 69.3667128,27.2486417 C69.007432,26.7870625 68.7355491,26.2410792 68.5506688,25.6104958 C68.3655907,24.9801083 68.2730516,24.2909708 68.2730516,23.5432792 L68.2730516,23.45535 C68.2730516,22.7151 68.3655907,22.0279208 68.5506688,21.3938125 C68.7355491,20.7599 69.007432,20.2117625 69.3667128,19.7499875 C69.7255982,19.2880167 70.1714861,18.9270958 70.7043766,18.6668333 C71.237267,18.4069625 71.8516234,18.2765375 72.5472481,18.2765375 C73.2430705,18.2765375 73.8556474,18.4069625 74.3847809,18.6668333 C74.9139144,18.9270958 75.3601977,19.2880167 75.7228401,19.7499875 C76.0852846,20.2117625 76.3593426,20.7599 76.5442229,21.3938125 C76.7294987,22.0281167 76.8218401,22.7151 76.8218401,23.45535 L76.8218401,23.5432792 C76.8218401,24.2909708 76.7294987,24.9801083 76.5442229,25.6104958 C76.3593426,26.241275 76.0852846,26.7870625 75.7228401,27.2486417 C75.3601977,27.7106125 74.9139144,28.0717292 74.3847809,28.3317958 C73.8556474,28.5922542 73.2430705,28.7222875 72.5472481,28.7222875 C71.8516234,28.7222875 71.237267,28.5922542 70.7043766,28.3317958 M69.3554421,16.0273917 C68.4191763,16.4492167 67.6234987,17.0243792 66.9686071,17.7538583 C66.3133199,18.4833375 65.8136486,19.3408917 65.4695932,20.3269125 C65.1255378,21.3127375 64.9533123,22.3706292 64.9533123,23.4990208 C64.9533123,24.6352458 65.1255378,25.6947042 65.4695932,26.6766125 C65.8136486,27.6593042 66.3133199,28.5170542 66.9686071,29.2500583 C67.6234987,29.9832583 68.4191763,30.5586167 69.3554421,30.9761333 C70.2917078,31.3938458 71.3555113,31.6029958 72.5472481,31.6029958 C73.7316688,31.6029958 74.7936927,31.3938458 75.7339131,30.9761333 C76.673738,30.5584208 77.4711952,29.9832583 78.1262846,29.2500583 C78.7811763,28.51725 79.2810453,27.6593042 79.6254962,26.6766125 C79.9695516,25.6947042 80.1411839,24.6352458 80.1411839,23.4990208 C80.1411839,22.3704333 79.9695516,21.3127375 79.6254962,20.3269125 C79.2810453,19.3408917 78.7809786,18.4833375 78.1262846,17.7538583 C77.4711952,17.0243792 76.673738,16.4492167 75.7339131,16.0273917 C74.7936927,15.6057625 73.7316688,15.3954375 72.5472481,15.3954375 C71.3555113,15.3956333 70.2917078,15.6057625 69.3554421,16.0273917" id="Shape" fill="#000000" mask="url(#mask-8)"></path>
                        </g>
                        <g id="Clipped">
                            <mask id="mask-10" fill="white">
                                <use xlink:href="#path-9"></use>
                            </mask>
                            <g id="SVGID_3_"></g>
                            <path d="M51.7860743,23.4332208 C51.7860743,22.7664083 51.8710995,22.1195708 52.0415453,21.4925125 C52.211398,20.86565 52.4706259,20.3141833 52.8184383,19.8377208 C53.1664484,19.3610625 53.6105567,18.9782083 54.1507632,18.6885708 C54.6911675,18.3991292 55.3349861,18.2542125 56.0828123,18.2542125 C56.5561851,18.2542125 56.9856612,18.3145292 57.3706474,18.43575 C57.7554358,18.5565792 58.0979093,18.7216667 58.3976725,18.9306208 C58.697238,19.1393792 58.9618048,19.388675 59.1911751,19.6781167 C59.4207431,19.9677542 59.6204534,20.2812833 59.791097,20.6183125 L62.6107695,19.0459667 C62.3442254,18.4960667 61.9962154,17.9957125 61.5673325,17.5449042 C61.1378564,17.0940958 60.6439194,16.7092833 60.0849282,16.3904667 C59.5261348,16.07165 58.9082191,15.8258792 58.2309836,15.6537417 C57.5537481,15.4814083 56.8377569,15.3954375 56.0828123,15.3954375 C54.9205378,15.3954375 53.8713665,15.6059583 52.9351008,16.0273917 C51.9986373,16.4492167 51.1994005,17.024575 50.536995,17.7540542 C49.8743917,18.4833375 49.3638451,19.3410875 49.0049597,20.3269125 C48.6456788,21.3129333 48.466335,22.3704333 48.466335,23.4992167 C48.466335,24.6358333 48.6272897,25.6949 48.9493967,26.6768083 C49.271306,27.6595 49.7413174,28.5168583 50.3594307,29.2502542 C50.9771486,29.9830625 51.7378275,30.5588125 52.6408741,30.9763292 C53.5439207,31.3938458 54.5766801,31.6031917 55.7385592,31.6031917 C56.2342758,31.6031917 56.7023098,31.5514917 57.1428589,31.4490708 C57.5834081,31.34665 57.9883652,31.2054542 58.3585214,31.0256792 C58.7284798,30.8462958 59.0618577,30.6299 59.357864,30.3770792 C59.6538703,30.1242583 59.9018275,29.843825 60.1019332,29.535975 L60.1019332,31.3834667 L62.9218035,31.3834667 L62.9218035,22.74095 L55.7160176,22.74095 L55.7160176,25.17085 L59.791097,25.17085 L59.791097,25.3249708 C59.791097,25.6623917 59.7335567,26.0284042 59.6186738,26.4241833 C59.5039887,26.8199625 59.3042783,27.1887167 59.0191474,27.5296625 C58.7342141,27.8704125 58.3531826,28.1545667 57.8758552,28.3819292 C57.39833,28.6090958 56.8003854,28.7226792 56.0828123,28.7226792 C55.3349861,28.7226792 54.6911675,28.5777625 54.1507632,28.288125 C53.6105567,27.9984875 53.1664484,27.6156333 52.8184383,27.1391708 C52.4706259,26.6625125 52.211398,26.1130042 52.0415453,25.4898625 C51.8710995,24.8667208 51.7860743,24.2181208 51.7860743,23.543475 L51.7860743,23.4332208 L51.7860743,23.4332208 Z" id="Shape" fill="#000000" mask="url(#mask-10)"></path>
                        </g>
                        <g id="Clipped">
                            <mask id="mask-12" fill="white">
                                <use xlink:href="#path-11"></use>
                            </mask>
                            <g id="SVGID_3_"></g>
                            <path d="M18.1263816,18.8209542 C18.8453388,19.1145083 19.6615806,18.7786542 19.9544232,18.0746333 C20.2486499,17.3721792 19.9119106,16.5559458 19.1929534,16.2641542 C18.4880353,15.9770625 17.668432,16.319575 17.375194,17.024575 C17.0819559,17.72605 17.421068,18.53445 18.1263816,18.8209542" id="Shape" fill="#000000" mask="url(#mask-12)"></path>
                        </g>
                        <g id="Clipped">
                            <mask id="mask-14" fill="white">
                                <use xlink:href="#path-13"></use>
                            </mask>
                            <g id="SVGID_3_"></g>
                            <path d="M14.9612695,20.6580667 C15.6806222,20.9520125 16.496073,20.6161583 16.7889156,19.9119417 C17.0835378,19.2096833 16.7466008,18.39345 16.0272481,18.1010708 C15.3225277,17.8145667 14.5033199,18.1570792 14.2096864,18.8620792 C13.9164484,19.5631625 14.2557582,20.3715625 14.9612695,20.6580667" id="Shape" fill="#000000" mask="url(#mask-14)"></path>
                        </g>
                        <g id="Clipped">
                            <mask id="mask-16" fill="white">
                                <use xlink:href="#path-15"></use>
                            </mask>
                            <g id="SVGID_3_"></g>
                            <path d="M14.034495,24.1435083 C14.7538476,24.4372583 15.5698917,24.1014042 15.862932,23.3975792 C16.1573564,22.6955167 15.8206171,21.8790875 15.1014622,21.5867083 C14.3965441,21.3000083 13.5769408,21.642325 13.2833073,22.347325 C12.9900693,23.0488 13.3291814,23.8577875 14.034495,24.1435083" id="Shape" fill="#000000" mask="url(#mask-16)"></path>
                        </g>
                        <g id="Clipped">
                            <mask id="mask-18" fill="white">
                                <use xlink:href="#path-17"></use>
                            </mask>
                            <g id="SVGID_3_"></g>
                            <path d="M21.6588816,19.9254542 C22.3780365,20.2190083 23.1942783,19.8831542 23.4869232,19.1791333 C23.7813476,18.4772667 23.4444106,17.6608375 22.7254534,17.3684583 C22.0203375,17.0815625 21.200932,17.424075 20.907694,18.1292708 C20.6144559,18.83055 20.953568,19.6391458 21.6588816,19.9254542" id="Shape" fill="#000000" mask="url(#mask-18)"></path>
                        </g>
                        <g id="Clipped">
                            <mask id="mask-20" fill="white">
                                <use xlink:href="#path-19"></use>
                            </mask>
                            <g id="SVGID_3_"></g>
                            <path d="M34.458534,18.8209542 C33.7391814,19.1145083 32.9231373,18.7786542 32.630097,18.0746333 C32.3358703,17.3721792 32.6728073,16.5559458 33.391369,16.2641542 C34.0968804,15.9770625 34.9162859,16.319575 35.2095239,17.024575 C35.502762,17.72605 35.1634521,18.53445 34.458534,18.8209542" id="Shape" fill="#000000" mask="url(#mask-20)"></path>
                        </g>
                        <g id="Clipped">
                            <mask id="mask-22" fill="white">
                                <use xlink:href="#path-21"></use>
                            </mask>
                            <g id="SVGID_3_"></g>
                            <path d="M37.6234484,20.6580667 C36.9042935,20.9520125 36.0884471,20.6161583 35.7956045,19.9119417 C35.5009824,19.2096833 35.8381171,18.39345 36.5566788,18.1010708 C37.2619924,17.8145667 38.081398,18.1570792 38.3750315,18.8620792 C38.6680718,19.5631625 38.328762,20.3715625 37.6234484,20.6580667" id="Shape" fill="#000000" mask="url(#mask-22)"></path>
                        </g>
                        <g id="Clipped">
                            <mask id="mask-24" fill="white">
                                <use xlink:href="#path-23"></use>
                            </mask>
                            <g id="SVGID_3_"></g>
                            <path d="M38.5500252,24.1435083 C37.8308703,24.4372583 37.0146285,24.1014042 36.7219836,23.3975792 C36.4273615,22.6955167 36.7644962,21.8790875 37.4834534,21.5867083 C38.1881738,21.3000083 39.0081725,21.642325 39.3010151,22.347325 C39.5946486,23.0488 39.2553388,23.8577875 38.5500252,24.1435083" id="Shape" fill="#000000" mask="url(#mask-24)"></path>
                        </g>
                        <g id="Clipped">
                            <mask id="mask-26" fill="white">
                                <use xlink:href="#path-25"></use>
                            </mask>
                            <g id="SVGID_3_"></g>
                            <path d="M30.9258363,19.9254542 C30.2062859,20.2190083 29.390835,19.8831542 29.0973992,19.1791333 C28.8031725,18.4772667 29.1403073,17.6608375 29.8590668,17.3684583 C30.5641826,17.0815625 31.3839836,17.424075 31.6768262,18.1292708 C31.9700642,18.83055 31.6309521,19.6391458 30.9258363,19.9254542" id="Shape" fill="#000000" mask="url(#mask-26)"></path>
                        </g>
                        <g id="Clipped">
                            <mask id="mask-28" fill="white">
                                <use xlink:href="#path-27"></use>
                            </mask>
                            <g id="SVGID_3_"></g>
                            <path d="M27.0297053,16.3518875 L27.0338577,16.3481667 L28.8009975,17.2670167 L28.8009975,14.6875 L27.035835,15.2411208 L27.0308917,15.2360292 C26.9814584,15.1716 26.9243136,15.1142208 26.8592594,15.064675 L26.8545139,15.0595833 L27.5647708,12.8458833 L26.2895907,12.8460792 L25.0140151,12.8458833 L25.724272,15.0595833 L25.719131,15.064675 C25.6548678,15.1142208 25.5973275,15.1716 25.5480919,15.2360292 L25.5427531,15.2411208 L23.7779861,14.6875 L23.7779861,17.2670167 L25.5453237,16.3481667 L25.5492783,16.3518875 C25.6016776,16.4200375 25.6631725,16.4801583 25.7319836,16.5312708 L24.7170202,19.5633583 C24.7158338,19.5670792 24.7146474,19.5708 24.7136587,19.5747167 L24.7124723,19.57785 L24.7128678,19.5780458 C24.6656096,19.729425 24.6399043,19.8902042 24.6399043,20.0566625 C24.6399043,20.8770083 25.2512947,21.5542 26.0469723,21.670525 C26.0586385,21.6722875 26.0705025,21.6742458 26.0825642,21.6758125 C26.1503866,21.684625 26.2188023,21.6903042 26.2895907,21.6903042 C26.3595882,21.6903042 26.4283992,21.684625 26.4964194,21.6758125 C26.5080856,21.6742458 26.5199496,21.6722875 26.5316159,21.670525 C27.3272935,21.5542 27.9388816,20.8770083 27.9388816,20.0566625 C27.9388816,19.8902042 27.9131763,19.729425 27.8665113,19.5780458 L27.8665113,19.57785 L27.8653249,19.5747167 C27.8647317,19.5708 27.8629521,19.5670792 27.861568,19.5633583 L26.847,16.5312708 C26.9158111,16.4801583 26.9771083,16.4200375 27.0297053,16.3518875" id="Shape" fill="#000000" mask="url(#mask-28)"></path>
                        </g>
                        <g id="Clipped">
                            <mask id="mask-30" fill="white">
                                <use xlink:href="#path-29"></use>
                            </mask>
                            <g id="SVGID_3_"></g>
                            <path d="M26.2895907,31.1901792 C29.6443287,31.1901792 32.8201184,31.4149958 35.6496776,31.8162583 C36.4526713,28.471425 37.4302632,26.5555875 38.4398879,25.1912167 L36.5390806,24.5206833 C36.7283111,25.4769375 36.7583665,25.9212833 36.5467922,26.5360042 C36.2331877,26.2326583 35.9361927,25.6743375 35.7042519,24.8212875 L34.7838048,27.8586625 C35.3437846,27.4765917 35.776029,27.2298417 36.2703615,27.2182875 C35.3936134,29.0883 34.298568,29.5698542 33.5889043,29.4398208 C32.7228338,29.2825667 32.3244018,28.51725 32.4586625,27.8682583 C32.6583728,26.9488208 33.6110504,26.708925 34.0559496,27.7787625 C34.9073879,26.0595417 33.4633438,25.5235458 32.533801,26.0323208 C33.9610378,24.622125 34.1243652,23.3687917 32.9723728,21.8522583 C31.3669786,23.0674042 31.3483917,24.2709958 32.0705126,25.9643667 C31.1330605,24.901775 29.6747796,25.4724333 30.201738,27.1891083 C30.8775894,26.1525625 31.772529,26.8042958 31.6321385,27.7891417 C31.513301,28.6470875 30.3696134,29.33975 28.9453426,29.2173542 C26.9045403,29.0336625 26.78333,27.6387417 26.7321171,26.4845 C27.233568,26.3922625 28.1374055,26.8532542 28.9075756,27.9242667 L29.1913224,24.7026125 C28.35333,25.5678042 27.5918602,25.7319125 26.7459584,25.7587417 C27.0273325,24.8886542 28.3216927,23.4627917 28.3216927,23.4627917 L26.4414496,23.4627917 L26.4402632,23.4627917 L26.4392746,23.4627917 L24.2616411,23.4627917 C24.2616411,23.4627917 25.5554081,24.8886542 25.8371776,25.7587417 C24.9914736,25.7319125 24.229806,25.5678042 23.3916159,24.7026125 L23.675165,27.9242667 C24.4461259,26.8532542 25.3491725,26.3924583 25.8510189,26.4845 C25.8003992,27.6389375 25.6789912,29.0338583 23.6375957,29.2173542 C22.2133249,29.33975 21.069835,28.6470875 20.9511952,27.7891417 C20.8106071,26.8042958 21.7055466,26.1525625 22.3817935,27.1891083 C22.9087519,25.4724333 21.4494824,24.901775 20.5126234,25.9643667 C21.2349421,24.2711917 21.2159597,23.0676 19.6107632,21.8522583 C18.4587708,23.3687917 18.6219005,24.622125 20.0491373,26.0323208 C19.1195945,25.5235458 17.6759458,26.0595417 18.5271864,27.7787625 C18.9720856,26.708925 19.9255542,26.9488208 20.1244736,27.8682583 C20.2585365,28.51725 19.8599068,29.2827625 18.994034,29.4398208 C18.284568,29.5698542 17.1897204,29.0883 16.3129723,27.2182875 C16.8071071,27.2298417 17.2389559,27.4763958 17.7997267,27.8586625 L16.8786864,24.8212875 C16.6465479,25.6741417 16.3499484,26.2326583 16.0361461,26.5360042 C15.8245718,25.9212833 15.8548249,25.4769375 16.0434622,24.5206833 L14.1434458,25.1912167 C15.1526751,26.5555875 16.1300693,28.471425 16.9332607,31.815475 C19.7614358,31.4149958 22.9354458,31.1901792 26.2895907,31.1901792" id="Shape" fill="#000000" mask="url(#mask-30)"></path>
                        </g>
                    </g>
                </g>
                <path d="M0,65.8731598 L345.670013,65.8731598 L0,65.8731598 Z" id="Rectangle-Copy" stroke="#4A4A4A" stroke-width="2"></path>
            </g>
            <g id="Group-Copy-8" transform="translate(462.000000, 49.000000)">
                <g id="Rectangle-Copy">
                    <use fill="black" fill-opacity="1" filter="url(#filter-32)" xlink:href="#path-31"></use>
                    <use fill="#FFFFFF" fill-rule="evenodd" xlink:href="#path-31"></use>
                    <rect stroke="#4A4A4A" stroke-width="2" x="1" y="1" width="344" height="333"></rect>
                </g>
                <g id="GOV.UK-solid" transform="translate(10.000000, 12.000000)">
                    <rect id="Rectangle-path" x="0" y="0" width="156.978052" height="46.9998042"></rect>
                    <polygon id="Shape" fill="#000000" fill-rule="evenodd" points="117.900383 31.2364628 121.119674 31.2364628 121.119674 26.4422669 123.173922 24.1660961 127.381878 31.2364628 131.123184 31.2364628 125.239046 21.7360003 130.768056 15.4683544 126.804498 15.4683544 121.119674 22.2968669 121.119674 15.4683544 117.900383 15.4683544"></polygon>
                    <g id="Clipped" stroke-width="1" fill-rule="evenodd">
                        <mask id="mask-34" fill="white">
                            <use xlink:href="#path-33"></use>
                        </mask>
                        <g id="SVGID_1_"></g>
                        <path d="M106.992732,28.5188167 C106.589356,28.3834958 106.241149,28.1780667 105.949295,27.9029208 C105.65665,27.6283625 105.425698,27.2797792 105.255252,26.8583458 C105.084806,26.4369125 104.999583,25.9400833 104.999583,25.3686417 L104.999583,15.5932292 L101.813709,15.5932292 L101.813709,25.8413833 C101.813709,26.720675 101.974268,27.5163458 102.295782,28.2274167 C102.617494,28.9384875 103.066743,29.5432208 103.64353,30.0416167 C104.220713,30.5404042 104.904276,30.9252167 105.695999,31.19625 C106.487128,31.4674792 107.352408,31.6031917 108.29164,31.6031917 C109.230872,31.6031917 110.095953,31.4674792 110.887479,31.19625 C111.678806,30.9250208 112.361183,30.5402083 112.934213,30.0416167 C113.507243,29.5432208 113.954713,28.9384875 114.276424,28.2274167 C114.597938,27.5163458 114.758893,26.7208708 114.758893,25.8413833 L114.758893,15.5932292 L111.59477,15.5932292 L111.59477,25.3686417 C111.59477,25.9400833 111.509151,26.4369125 111.339298,26.8583458 C111.16905,27.2797792 110.937505,27.6283625 110.645453,27.9029208 C110.353006,28.1778708 110.004996,28.3833 109.601621,28.5188167 C109.198443,28.6545292 108.763628,28.7222875 108.297176,28.7222875 C107.830724,28.7222875 107.395909,28.6545292 106.992732,28.5188167" id="Shape" fill="#000000" mask="url(#mask-34)"></path>
                    </g>
                    <mask id="mask-36" fill="white">
                        <use xlink:href="#path-35"></use>
                    </mask>
                    <g id="SVGID_1_"></g>
                    <path d="M95.2027053,30.1267719 C95.3098766,30.3684303 95.4563968,30.5811053 95.6412771,30.7644053 C95.8265529,30.9477053 96.0426751,31.0906636 96.2912255,31.1930844 C96.5387872,31.2958969 96.799597,31.3472053 97.073655,31.3472053 C97.3471197,31.3472053 97.6065454,31.2958969 97.8507456,31.1930844 C98.0947482,31.0906636 98.3096839,30.9475094 98.494762,30.7644053 C98.6798401,30.5813011 98.8259648,30.3686261 98.9333338,30.1267719 C99.0403073,29.8847219 99.0940907,29.6246553 99.0940907,29.3457886 C99.0940907,29.0749511 99.0403073,28.8201719 98.9333338,28.5820386 C98.8259648,28.3437094 98.6798401,28.1349511 98.494762,27.9551761 C98.3096839,27.7757928 98.0949459,27.6328344 97.8507456,27.5264969 C97.6065454,27.4201594 97.3471197,27.3670886 97.073655,27.3670886 C96.799597,27.3670886 96.5387872,27.4201594 96.2912255,27.5264969 C96.0426751,27.6328344 95.8263552,27.7757928 95.6412771,27.9551761 C95.4563968,28.1349511 95.3098766,28.3437094 95.2027053,28.5820386 C95.095534,28.8203678 95.0421461,29.0751469 95.0421461,29.3457886 C95.0419484,29.6244594 95.095534,29.8845261 95.2027053,30.1267719" id="Shape" fill="#000000" fill-rule="evenodd" mask="url(#mask-36)"></path>
                    <polygon id="Shape" fill="#000000" fill-rule="evenodd" mask="url(#mask-36)" points="90.077792 31.2364628 94.5744381 15.4683544 91.0101031 15.4683544 88.0015955 27.3217544 87.8906673 27.3217544 84.8151283 15.4683544 81.2068966 15.4683544 85.7031472 31.2364628"></polygon>
                    <g id="Group" stroke-width="1" fill-rule="evenodd" mask="url(#mask-36)">
                        <g id="Clipped">
                            <mask id="mask-38" fill="white">
                                <use xlink:href="#path-37"></use>
                            </mask>
                            <g id="SVGID_3_"></g>
                            <path d="M70.7043766,28.3317958 C70.1714861,28.0717292 69.7255982,27.7106125 69.3667128,27.2486417 C69.007432,26.7870625 68.7355491,26.2410792 68.5506688,25.6104958 C68.3655907,24.9801083 68.2730516,24.2909708 68.2730516,23.5432792 L68.2730516,23.45535 C68.2730516,22.7151 68.3655907,22.0279208 68.5506688,21.3938125 C68.7355491,20.7599 69.007432,20.2117625 69.3667128,19.7499875 C69.7255982,19.2880167 70.1714861,18.9270958 70.7043766,18.6668333 C71.237267,18.4069625 71.8516234,18.2765375 72.5472481,18.2765375 C73.2430705,18.2765375 73.8556474,18.4069625 74.3847809,18.6668333 C74.9139144,18.9270958 75.3601977,19.2880167 75.7228401,19.7499875 C76.0852846,20.2117625 76.3593426,20.7599 76.5442229,21.3938125 C76.7294987,22.0281167 76.8218401,22.7151 76.8218401,23.45535 L76.8218401,23.5432792 C76.8218401,24.2909708 76.7294987,24.9801083 76.5442229,25.6104958 C76.3593426,26.241275 76.0852846,26.7870625 75.7228401,27.2486417 C75.3601977,27.7106125 74.9139144,28.0717292 74.3847809,28.3317958 C73.8556474,28.5922542 73.2430705,28.7222875 72.5472481,28.7222875 C71.8516234,28.7222875 71.237267,28.5922542 70.7043766,28.3317958 M69.3554421,16.0273917 C68.4191763,16.4492167 67.6234987,17.0243792 66.9686071,17.7538583 C66.3133199,18.4833375 65.8136486,19.3408917 65.4695932,20.3269125 C65.1255378,21.3127375 64.9533123,22.3706292 64.9533123,23.4990208 C64.9533123,24.6352458 65.1255378,25.6947042 65.4695932,26.6766125 C65.8136486,27.6593042 66.3133199,28.5170542 66.9686071,29.2500583 C67.6234987,29.9832583 68.4191763,30.5586167 69.3554421,30.9761333 C70.2917078,31.3938458 71.3555113,31.6029958 72.5472481,31.6029958 C73.7316688,31.6029958 74.7936927,31.3938458 75.7339131,30.9761333 C76.673738,30.5584208 77.4711952,29.9832583 78.1262846,29.2500583 C78.7811763,28.51725 79.2810453,27.6593042 79.6254962,26.6766125 C79.9695516,25.6947042 80.1411839,24.6352458 80.1411839,23.4990208 C80.1411839,22.3704333 79.9695516,21.3127375 79.6254962,20.3269125 C79.2810453,19.3408917 78.7809786,18.4833375 78.1262846,17.7538583 C77.4711952,17.0243792 76.673738,16.4492167 75.7339131,16.0273917 C74.7936927,15.6057625 73.7316688,15.3954375 72.5472481,15.3954375 C71.3555113,15.3956333 70.2917078,15.6057625 69.3554421,16.0273917" id="Shape" fill="#000000" mask="url(#mask-38)"></path>
                        </g>
                        <g id="Clipped">
                            <mask id="mask-40" fill="white">
                                <use xlink:href="#path-39"></use>
                            </mask>
                            <g id="SVGID_3_"></g>
                            <path d="M51.7860743,23.4332208 C51.7860743,22.7664083 51.8710995,22.1195708 52.0415453,21.4925125 C52.211398,20.86565 52.4706259,20.3141833 52.8184383,19.8377208 C53.1664484,19.3610625 53.6105567,18.9782083 54.1507632,18.6885708 C54.6911675,18.3991292 55.3349861,18.2542125 56.0828123,18.2542125 C56.5561851,18.2542125 56.9856612,18.3145292 57.3706474,18.43575 C57.7554358,18.5565792 58.0979093,18.7216667 58.3976725,18.9306208 C58.697238,19.1393792 58.9618048,19.388675 59.1911751,19.6781167 C59.4207431,19.9677542 59.6204534,20.2812833 59.791097,20.6183125 L62.6107695,19.0459667 C62.3442254,18.4960667 61.9962154,17.9957125 61.5673325,17.5449042 C61.1378564,17.0940958 60.6439194,16.7092833 60.0849282,16.3904667 C59.5261348,16.07165 58.9082191,15.8258792 58.2309836,15.6537417 C57.5537481,15.4814083 56.8377569,15.3954375 56.0828123,15.3954375 C54.9205378,15.3954375 53.8713665,15.6059583 52.9351008,16.0273917 C51.9986373,16.4492167 51.1994005,17.024575 50.536995,17.7540542 C49.8743917,18.4833375 49.3638451,19.3410875 49.0049597,20.3269125 C48.6456788,21.3129333 48.466335,22.3704333 48.466335,23.4992167 C48.466335,24.6358333 48.6272897,25.6949 48.9493967,26.6768083 C49.271306,27.6595 49.7413174,28.5168583 50.3594307,29.2502542 C50.9771486,29.9830625 51.7378275,30.5588125 52.6408741,30.9763292 C53.5439207,31.3938458 54.5766801,31.6031917 55.7385592,31.6031917 C56.2342758,31.6031917 56.7023098,31.5514917 57.1428589,31.4490708 C57.5834081,31.34665 57.9883652,31.2054542 58.3585214,31.0256792 C58.7284798,30.8462958 59.0618577,30.6299 59.357864,30.3770792 C59.6538703,30.1242583 59.9018275,29.843825 60.1019332,29.535975 L60.1019332,31.3834667 L62.9218035,31.3834667 L62.9218035,22.74095 L55.7160176,22.74095 L55.7160176,25.17085 L59.791097,25.17085 L59.791097,25.3249708 C59.791097,25.6623917 59.7335567,26.0284042 59.6186738,26.4241833 C59.5039887,26.8199625 59.3042783,27.1887167 59.0191474,27.5296625 C58.7342141,27.8704125 58.3531826,28.1545667 57.8758552,28.3819292 C57.39833,28.6090958 56.8003854,28.7226792 56.0828123,28.7226792 C55.3349861,28.7226792 54.6911675,28.5777625 54.1507632,28.288125 C53.6105567,27.9984875 53.1664484,27.6156333 52.8184383,27.1391708 C52.4706259,26.6625125 52.211398,26.1130042 52.0415453,25.4898625 C51.8710995,24.8667208 51.7860743,24.2181208 51.7860743,23.543475 L51.7860743,23.4332208 L51.7860743,23.4332208 Z" id="Shape" fill="#000000" mask="url(#mask-40)"></path>
                        </g>
                        <g id="Clipped">
                            <mask id="mask-42" fill="white">
                                <use xlink:href="#path-41"></use>
                            </mask>
                            <g id="SVGID_3_"></g>
                            <path d="M18.1263816,18.8209542 C18.8453388,19.1145083 19.6615806,18.7786542 19.9544232,18.0746333 C20.2486499,17.3721792 19.9119106,16.5559458 19.1929534,16.2641542 C18.4880353,15.9770625 17.668432,16.319575 17.375194,17.024575 C17.0819559,17.72605 17.421068,18.53445 18.1263816,18.8209542" id="Shape" fill="#000000" mask="url(#mask-42)"></path>
                        </g>
                        <g id="Clipped">
                            <mask id="mask-44" fill="white">
                                <use xlink:href="#path-43"></use>
                            </mask>
                            <g id="SVGID_3_"></g>
                            <path d="M14.9612695,20.6580667 C15.6806222,20.9520125 16.496073,20.6161583 16.7889156,19.9119417 C17.0835378,19.2096833 16.7466008,18.39345 16.0272481,18.1010708 C15.3225277,17.8145667 14.5033199,18.1570792 14.2096864,18.8620792 C13.9164484,19.5631625 14.2557582,20.3715625 14.9612695,20.6580667" id="Shape" fill="#000000" mask="url(#mask-44)"></path>
                        </g>
                        <g id="Clipped">
                            <mask id="mask-46" fill="white">
                                <use xlink:href="#path-45"></use>
                            </mask>
                            <g id="SVGID_3_"></g>
                            <path d="M14.034495,24.1435083 C14.7538476,24.4372583 15.5698917,24.1014042 15.862932,23.3975792 C16.1573564,22.6955167 15.8206171,21.8790875 15.1014622,21.5867083 C14.3965441,21.3000083 13.5769408,21.642325 13.2833073,22.347325 C12.9900693,23.0488 13.3291814,23.8577875 14.034495,24.1435083" id="Shape" fill="#000000" mask="url(#mask-46)"></path>
                        </g>
                        <g id="Clipped">
                            <mask id="mask-48" fill="white">
                                <use xlink:href="#path-47"></use>
                            </mask>
                            <g id="SVGID_3_"></g>
                            <path d="M21.6588816,19.9254542 C22.3780365,20.2190083 23.1942783,19.8831542 23.4869232,19.1791333 C23.7813476,18.4772667 23.4444106,17.6608375 22.7254534,17.3684583 C22.0203375,17.0815625 21.200932,17.424075 20.907694,18.1292708 C20.6144559,18.83055 20.953568,19.6391458 21.6588816,19.9254542" id="Shape" fill="#000000" mask="url(#mask-48)"></path>
                        </g>
                        <g id="Clipped">
                            <mask id="mask-50" fill="white">
                                <use xlink:href="#path-49"></use>
                            </mask>
                            <g id="SVGID_3_"></g>
                            <path d="M34.458534,18.8209542 C33.7391814,19.1145083 32.9231373,18.7786542 32.630097,18.0746333 C32.3358703,17.3721792 32.6728073,16.5559458 33.391369,16.2641542 C34.0968804,15.9770625 34.9162859,16.319575 35.2095239,17.024575 C35.502762,17.72605 35.1634521,18.53445 34.458534,18.8209542" id="Shape" fill="#000000" mask="url(#mask-50)"></path>
                        </g>
                        <g id="Clipped">
                            <mask id="mask-52" fill="white">
                                <use xlink:href="#path-51"></use>
                            </mask>
                            <g id="SVGID_3_"></g>
                            <path d="M37.6234484,20.6580667 C36.9042935,20.9520125 36.0884471,20.6161583 35.7956045,19.9119417 C35.5009824,19.2096833 35.8381171,18.39345 36.5566788,18.1010708 C37.2619924,17.8145667 38.081398,18.1570792 38.3750315,18.8620792 C38.6680718,19.5631625 38.328762,20.3715625 37.6234484,20.6580667" id="Shape" fill="#000000" mask="url(#mask-52)"></path>
                        </g>
                        <g id="Clipped">
                            <mask id="mask-54" fill="white">
                                <use xlink:href="#path-53"></use>
                            </mask>
                            <g id="SVGID_3_"></g>
                            <path d="M38.5500252,24.1435083 C37.8308703,24.4372583 37.0146285,24.1014042 36.7219836,23.3975792 C36.4273615,22.6955167 36.7644962,21.8790875 37.4834534,21.5867083 C38.1881738,21.3000083 39.0081725,21.642325 39.3010151,22.347325 C39.5946486,23.0488 39.2553388,23.8577875 38.5500252,24.1435083" id="Shape" fill="#000000" mask="url(#mask-54)"></path>
                        </g>
                        <g id="Clipped">
                            <mask id="mask-56" fill="white">
                                <use xlink:href="#path-55"></use>
                            </mask>
                            <g id="SVGID_3_"></g>
                            <path d="M30.9258363,19.9254542 C30.2062859,20.2190083 29.390835,19.8831542 29.0973992,19.1791333 C28.8031725,18.4772667 29.1403073,17.6608375 29.8590668,17.3684583 C30.5641826,17.0815625 31.3839836,17.424075 31.6768262,18.1292708 C31.9700642,18.83055 31.6309521,19.6391458 30.9258363,19.9254542" id="Shape" fill="#000000" mask="url(#mask-56)"></path>
                        </g>
                        <g id="Clipped">
                            <mask id="mask-58" fill="white">
                                <use xlink:href="#path-57"></use>
                            </mask>
                            <g id="SVGID_3_"></g>
                            <path d="M27.0297053,16.3518875 L27.0338577,16.3481667 L28.8009975,17.2670167 L28.8009975,14.6875 L27.035835,15.2411208 L27.0308917,15.2360292 C26.9814584,15.1716 26.9243136,15.1142208 26.8592594,15.064675 L26.8545139,15.0595833 L27.5647708,12.8458833 L26.2895907,12.8460792 L25.0140151,12.8458833 L25.724272,15.0595833 L25.719131,15.064675 C25.6548678,15.1142208 25.5973275,15.1716 25.5480919,15.2360292 L25.5427531,15.2411208 L23.7779861,14.6875 L23.7779861,17.2670167 L25.5453237,16.3481667 L25.5492783,16.3518875 C25.6016776,16.4200375 25.6631725,16.4801583 25.7319836,16.5312708 L24.7170202,19.5633583 C24.7158338,19.5670792 24.7146474,19.5708 24.7136587,19.5747167 L24.7124723,19.57785 L24.7128678,19.5780458 C24.6656096,19.729425 24.6399043,19.8902042 24.6399043,20.0566625 C24.6399043,20.8770083 25.2512947,21.5542 26.0469723,21.670525 C26.0586385,21.6722875 26.0705025,21.6742458 26.0825642,21.6758125 C26.1503866,21.684625 26.2188023,21.6903042 26.2895907,21.6903042 C26.3595882,21.6903042 26.4283992,21.684625 26.4964194,21.6758125 C26.5080856,21.6742458 26.5199496,21.6722875 26.5316159,21.670525 C27.3272935,21.5542 27.9388816,20.8770083 27.9388816,20.0566625 C27.9388816,19.8902042 27.9131763,19.729425 27.8665113,19.5780458 L27.8665113,19.57785 L27.8653249,19.5747167 C27.8647317,19.5708 27.8629521,19.5670792 27.861568,19.5633583 L26.847,16.5312708 C26.9158111,16.4801583 26.9771083,16.4200375 27.0297053,16.3518875" id="Shape" fill="#000000" mask="url(#mask-58)"></path>
                        </g>
                        <g id="Clipped">
                            <mask id="mask-60" fill="white">
                                <use xlink:href="#path-59"></use>
                            </mask>
                            <g id="SVGID_3_"></g>
                            <path d="M26.2895907,31.1901792 C29.6443287,31.1901792 32.8201184,31.4149958 35.6496776,31.8162583 C36.4526713,28.471425 37.4302632,26.5555875 38.4398879,25.1912167 L36.5390806,24.5206833 C36.7283111,25.4769375 36.7583665,25.9212833 36.5467922,26.5360042 C36.2331877,26.2326583 35.9361927,25.6743375 35.7042519,24.8212875 L34.7838048,27.8586625 C35.3437846,27.4765917 35.776029,27.2298417 36.2703615,27.2182875 C35.3936134,29.0883 34.298568,29.5698542 33.5889043,29.4398208 C32.7228338,29.2825667 32.3244018,28.51725 32.4586625,27.8682583 C32.6583728,26.9488208 33.6110504,26.708925 34.0559496,27.7787625 C34.9073879,26.0595417 33.4633438,25.5235458 32.533801,26.0323208 C33.9610378,24.622125 34.1243652,23.3687917 32.9723728,21.8522583 C31.3669786,23.0674042 31.3483917,24.2709958 32.0705126,25.9643667 C31.1330605,24.901775 29.6747796,25.4724333 30.201738,27.1891083 C30.8775894,26.1525625 31.772529,26.8042958 31.6321385,27.7891417 C31.513301,28.6470875 30.3696134,29.33975 28.9453426,29.2173542 C26.9045403,29.0336625 26.78333,27.6387417 26.7321171,26.4845 C27.233568,26.3922625 28.1374055,26.8532542 28.9075756,27.9242667 L29.1913224,24.7026125 C28.35333,25.5678042 27.5918602,25.7319125 26.7459584,25.7587417 C27.0273325,24.8886542 28.3216927,23.4627917 28.3216927,23.4627917 L26.4414496,23.4627917 L26.4402632,23.4627917 L26.4392746,23.4627917 L24.2616411,23.4627917 C24.2616411,23.4627917 25.5554081,24.8886542 25.8371776,25.7587417 C24.9914736,25.7319125 24.229806,25.5678042 23.3916159,24.7026125 L23.675165,27.9242667 C24.4461259,26.8532542 25.3491725,26.3924583 25.8510189,26.4845 C25.8003992,27.6389375 25.6789912,29.0338583 23.6375957,29.2173542 C22.2133249,29.33975 21.069835,28.6470875 20.9511952,27.7891417 C20.8106071,26.8042958 21.7055466,26.1525625 22.3817935,27.1891083 C22.9087519,25.4724333 21.4494824,24.901775 20.5126234,25.9643667 C21.2349421,24.2711917 21.2159597,23.0676 19.6107632,21.8522583 C18.4587708,23.3687917 18.6219005,24.622125 20.0491373,26.0323208 C19.1195945,25.5235458 17.6759458,26.0595417 18.5271864,27.7787625 C18.9720856,26.708925 19.9255542,26.9488208 20.1244736,27.8682583 C20.2585365,28.51725 19.8599068,29.2827625 18.994034,29.4398208 C18.284568,29.5698542 17.1897204,29.0883 16.3129723,27.2182875 C16.8071071,27.2298417 17.2389559,27.4763958 17.7997267,27.8586625 L16.8786864,24.8212875 C16.6465479,25.6741417 16.3499484,26.2326583 16.0361461,26.5360042 C15.8245718,25.9212833 15.8548249,25.4769375 16.0434622,24.5206833 L14.1434458,25.1912167 C15.1526751,26.5555875 16.1300693,28.471425 16.9332607,31.815475 C19.7614358,31.4149958 22.9354458,31.1901792 26.2895907,31.1901792" id="Shape" fill="#000000" mask="url(#mask-60)"></path>
                        </g>
                    </g>
                </g>
                <path d="M0,65.8731598 L345.670013,65.8731598 L0,65.8731598 Z" id="Rectangle-Copy" stroke="#4A4A4A" stroke-width="2"></path>
            </g>
            <g id="Group-Copy-9" transform="translate(917.000000, 49.000000)">
                <g id="Rectangle-Copy">
                    <use fill="black" fill-opacity="1" filter="url(#filter-62)" xlink:href="#path-61"></use>
                    <use fill="#FFFFFF" fill-rule="evenodd" xlink:href="#path-61"></use>
                    <rect stroke="#4A4A4A" stroke-width="2" x="1" y="1" width="344" height="333"></rect>
                </g>
                <g id="GOV.UK-solid" transform="translate(10.000000, 12.000000)">
                    <rect id="Rectangle-path" x="0" y="0" width="156.978052" height="46.9998042"></rect>
                    <polygon id="Shape" fill="#000000" fill-rule="evenodd" points="117.900383 31.2364628 121.119674 31.2364628 121.119674 26.4422669 123.173922 24.1660961 127.381878 31.2364628 131.123184 31.2364628 125.239046 21.7360003 130.768056 15.4683544 126.804498 15.4683544 121.119674 22.2968669 121.119674 15.4683544 117.900383 15.4683544"></polygon>
                    <g id="Clipped" stroke-width="1" fill-rule="evenodd">
                        <mask id="mask-64" fill="white">
                            <use xlink:href="#path-63"></use>
                        </mask>
                        <g id="SVGID_1_"></g>
                        <path d="M106.992732,28.5188167 C106.589356,28.3834958 106.241149,28.1780667 105.949295,27.9029208 C105.65665,27.6283625 105.425698,27.2797792 105.255252,26.8583458 C105.084806,26.4369125 104.999583,25.9400833 104.999583,25.3686417 L104.999583,15.5932292 L101.813709,15.5932292 L101.813709,25.8413833 C101.813709,26.720675 101.974268,27.5163458 102.295782,28.2274167 C102.617494,28.9384875 103.066743,29.5432208 103.64353,30.0416167 C104.220713,30.5404042 104.904276,30.9252167 105.695999,31.19625 C106.487128,31.4674792 107.352408,31.6031917 108.29164,31.6031917 C109.230872,31.6031917 110.095953,31.4674792 110.887479,31.19625 C111.678806,30.9250208 112.361183,30.5402083 112.934213,30.0416167 C113.507243,29.5432208 113.954713,28.9384875 114.276424,28.2274167 C114.597938,27.5163458 114.758893,26.7208708 114.758893,25.8413833 L114.758893,15.5932292 L111.59477,15.5932292 L111.59477,25.3686417 C111.59477,25.9400833 111.509151,26.4369125 111.339298,26.8583458 C111.16905,27.2797792 110.937505,27.6283625 110.645453,27.9029208 C110.353006,28.1778708 110.004996,28.3833 109.601621,28.5188167 C109.198443,28.6545292 108.763628,28.7222875 108.297176,28.7222875 C107.830724,28.7222875 107.395909,28.6545292 106.992732,28.5188167" id="Shape" fill="#000000" mask="url(#mask-64)"></path>
                    </g>
                    <mask id="mask-66" fill="white">
                        <use xlink:href="#path-65"></use>
                    </mask>
                    <g id="SVGID_1_"></g>
                    <path d="M95.2027053,30.1267719 C95.3098766,30.3684303 95.4563968,30.5811053 95.6412771,30.7644053 C95.8265529,30.9477053 96.0426751,31.0906636 96.2912255,31.1930844 C96.5387872,31.2958969 96.799597,31.3472053 97.073655,31.3472053 C97.3471197,31.3472053 97.6065454,31.2958969 97.8507456,31.1930844 C98.0947482,31.0906636 98.3096839,30.9475094 98.494762,30.7644053 C98.6798401,30.5813011 98.8259648,30.3686261 98.9333338,30.1267719 C99.0403073,29.8847219 99.0940907,29.6246553 99.0940907,29.3457886 C99.0940907,29.0749511 99.0403073,28.8201719 98.9333338,28.5820386 C98.8259648,28.3437094 98.6798401,28.1349511 98.494762,27.9551761 C98.3096839,27.7757928 98.0949459,27.6328344 97.8507456,27.5264969 C97.6065454,27.4201594 97.3471197,27.3670886 97.073655,27.3670886 C96.799597,27.3670886 96.5387872,27.4201594 96.2912255,27.5264969 C96.0426751,27.6328344 95.8263552,27.7757928 95.6412771,27.9551761 C95.4563968,28.1349511 95.3098766,28.3437094 95.2027053,28.5820386 C95.095534,28.8203678 95.0421461,29.0751469 95.0421461,29.3457886 C95.0419484,29.6244594 95.095534,29.8845261 95.2027053,30.1267719" id="Shape" fill="#000000" fill-rule="evenodd" mask="url(#mask-66)"></path>
                    <polygon id="Shape" fill="#000000" fill-rule="evenodd" mask="url(#mask-66)" points="90.077792 31.2364628 94.5744381 15.4683544 91.0101031 15.4683544 88.0015955 27.3217544 87.8906673 27.3217544 84.8151283 15.4683544 81.2068966 15.4683544 85.7031472 31.2364628"></polygon>
                    <g id="Group" stroke-width="1" fill-rule="evenodd" mask="url(#mask-66)">
                        <g id="Clipped">
                            <mask id="mask-68" fill="white">
                                <use xlink:href="#path-67"></use>
                            </mask>
                            <g id="SVGID_3_"></g>
                            <path d="M70.7043766,28.3317958 C70.1714861,28.0717292 69.7255982,27.7106125 69.3667128,27.2486417 C69.007432,26.7870625 68.7355491,26.2410792 68.5506688,25.6104958 C68.3655907,24.9801083 68.2730516,24.2909708 68.2730516,23.5432792 L68.2730516,23.45535 C68.2730516,22.7151 68.3655907,22.0279208 68.5506688,21.3938125 C68.7355491,20.7599 69.007432,20.2117625 69.3667128,19.7499875 C69.7255982,19.2880167 70.1714861,18.9270958 70.7043766,18.6668333 C71.237267,18.4069625 71.8516234,18.2765375 72.5472481,18.2765375 C73.2430705,18.2765375 73.8556474,18.4069625 74.3847809,18.6668333 C74.9139144,18.9270958 75.3601977,19.2880167 75.7228401,19.7499875 C76.0852846,20.2117625 76.3593426,20.7599 76.5442229,21.3938125 C76.7294987,22.0281167 76.8218401,22.7151 76.8218401,23.45535 L76.8218401,23.5432792 C76.8218401,24.2909708 76.7294987,24.9801083 76.5442229,25.6104958 C76.3593426,26.241275 76.0852846,26.7870625 75.7228401,27.2486417 C75.3601977,27.7106125 74.9139144,28.0717292 74.3847809,28.3317958 C73.8556474,28.5922542 73.2430705,28.7222875 72.5472481,28.7222875 C71.8516234,28.7222875 71.237267,28.5922542 70.7043766,28.3317958 M69.3554421,16.0273917 C68.4191763,16.4492167 67.6234987,17.0243792 66.9686071,17.7538583 C66.3133199,18.4833375 65.8136486,19.3408917 65.4695932,20.3269125 C65.1255378,21.3127375 64.9533123,22.3706292 64.9533123,23.4990208 C64.9533123,24.6352458 65.1255378,25.6947042 65.4695932,26.6766125 C65.8136486,27.6593042 66.3133199,28.5170542 66.9686071,29.2500583 C67.6234987,29.9832583 68.4191763,30.5586167 69.3554421,30.9761333 C70.2917078,31.3938458 71.3555113,31.6029958 72.5472481,31.6029958 C73.7316688,31.6029958 74.7936927,31.3938458 75.7339131,30.9761333 C76.673738,30.5584208 77.4711952,29.9832583 78.1262846,29.2500583 C78.7811763,28.51725 79.2810453,27.6593042 79.6254962,26.6766125 C79.9695516,25.6947042 80.1411839,24.6352458 80.1411839,23.4990208 C80.1411839,22.3704333 79.9695516,21.3127375 79.6254962,20.3269125 C79.2810453,19.3408917 78.7809786,18.4833375 78.1262846,17.7538583 C77.4711952,17.0243792 76.673738,16.4492167 75.7339131,16.0273917 C74.7936927,15.6057625 73.7316688,15.3954375 72.5472481,15.3954375 C71.3555113,15.3956333 70.2917078,15.6057625 69.3554421,16.0273917" id="Shape" fill="#000000" mask="url(#mask-68)"></path>
                        </g>
                        <g id="Clipped">
                            <mask id="mask-70" fill="white">
                                <use xlink:href="#path-69"></use>
                            </mask>
                            <g id="SVGID_3_"></g>
                            <path d="M51.7860743,23.4332208 C51.7860743,22.7664083 51.8710995,22.1195708 52.0415453,21.4925125 C52.211398,20.86565 52.4706259,20.3141833 52.8184383,19.8377208 C53.1664484,19.3610625 53.6105567,18.9782083 54.1507632,18.6885708 C54.6911675,18.3991292 55.3349861,18.2542125 56.0828123,18.2542125 C56.5561851,18.2542125 56.9856612,18.3145292 57.3706474,18.43575 C57.7554358,18.5565792 58.0979093,18.7216667 58.3976725,18.9306208 C58.697238,19.1393792 58.9618048,19.388675 59.1911751,19.6781167 C59.4207431,19.9677542 59.6204534,20.2812833 59.791097,20.6183125 L62.6107695,19.0459667 C62.3442254,18.4960667 61.9962154,17.9957125 61.5673325,17.5449042 C61.1378564,17.0940958 60.6439194,16.7092833 60.0849282,16.3904667 C59.5261348,16.07165 58.9082191,15.8258792 58.2309836,15.6537417 C57.5537481,15.4814083 56.8377569,15.3954375 56.0828123,15.3954375 C54.9205378,15.3954375 53.8713665,15.6059583 52.9351008,16.0273917 C51.9986373,16.4492167 51.1994005,17.024575 50.536995,17.7540542 C49.8743917,18.4833375 49.3638451,19.3410875 49.0049597,20.3269125 C48.6456788,21.3129333 48.466335,22.3704333 48.466335,23.4992167 C48.466335,24.6358333 48.6272897,25.6949 48.9493967,26.6768083 C49.271306,27.6595 49.7413174,28.5168583 50.3594307,29.2502542 C50.9771486,29.9830625 51.7378275,30.5588125 52.6408741,30.9763292 C53.5439207,31.3938458 54.5766801,31.6031917 55.7385592,31.6031917 C56.2342758,31.6031917 56.7023098,31.5514917 57.1428589,31.4490708 C57.5834081,31.34665 57.9883652,31.2054542 58.3585214,31.0256792 C58.7284798,30.8462958 59.0618577,30.6299 59.357864,30.3770792 C59.6538703,30.1242583 59.9018275,29.843825 60.1019332,29.535975 L60.1019332,31.3834667 L62.9218035,31.3834667 L62.9218035,22.74095 L55.7160176,22.74095 L55.7160176,25.17085 L59.791097,25.17085 L59.791097,25.3249708 C59.791097,25.6623917 59.7335567,26.0284042 59.6186738,26.4241833 C59.5039887,26.8199625 59.3042783,27.1887167 59.0191474,27.5296625 C58.7342141,27.8704125 58.3531826,28.1545667 57.8758552,28.3819292 C57.39833,28.6090958 56.8003854,28.7226792 56.0828123,28.7226792 C55.3349861,28.7226792 54.6911675,28.5777625 54.1507632,28.288125 C53.6105567,27.9984875 53.1664484,27.6156333 52.8184383,27.1391708 C52.4706259,26.6625125 52.211398,26.1130042 52.0415453,25.4898625 C51.8710995,24.8667208 51.7860743,24.2181208 51.7860743,23.543475 L51.7860743,23.4332208 L51.7860743,23.4332208 Z" id="Shape" fill="#000000" mask="url(#mask-70)"></path>
                        </g>
                        <g id="Clipped">
                            <mask id="mask-72" fill="white">
                                <use xlink:href="#path-71"></use>
                            </mask>
                            <g id="SVGID_3_"></g>
                            <path d="M18.1263816,18.8209542 C18.8453388,19.1145083 19.6615806,18.7786542 19.9544232,18.0746333 C20.2486499,17.3721792 19.9119106,16.5559458 19.1929534,16.2641542 C18.4880353,15.9770625 17.668432,16.319575 17.375194,17.024575 C17.0819559,17.72605 17.421068,18.53445 18.1263816,18.8209542" id="Shape" fill="#000000" mask="url(#mask-72)"></path>
                        </g>
                        <g id="Clipped">
                            <mask id="mask-74" fill="white">
                                <use xlink:href="#path-73"></use>
                            </mask>
                            <g id="SVGID_3_"></g>
                            <path d="M14.9612695,20.6580667 C15.6806222,20.9520125 16.496073,20.6161583 16.7889156,19.9119417 C17.0835378,19.2096833 16.7466008,18.39345 16.0272481,18.1010708 C15.3225277,17.8145667 14.5033199,18.1570792 14.2096864,18.8620792 C13.9164484,19.5631625 14.2557582,20.3715625 14.9612695,20.6580667" id="Shape" fill="#000000" mask="url(#mask-74)"></path>
                        </g>
                        <g id="Clipped">
                            <mask id="mask-76" fill="white">
                                <use xlink:href="#path-75"></use>
                            </mask>
                            <g id="SVGID_3_"></g>
                            <path d="M14.034495,24.1435083 C14.7538476,24.4372583 15.5698917,24.1014042 15.862932,23.3975792 C16.1573564,22.6955167 15.8206171,21.8790875 15.1014622,21.5867083 C14.3965441,21.3000083 13.5769408,21.642325 13.2833073,22.347325 C12.9900693,23.0488 13.3291814,23.8577875 14.034495,24.1435083" id="Shape" fill="#000000" mask="url(#mask-76)"></path>
                        </g>
                        <g id="Clipped">
                            <mask id="mask-78" fill="white">
                                <use xlink:href="#path-77"></use>
                            </mask>
                            <g id="SVGID_3_"></g>
                            <path d="M21.6588816,19.9254542 C22.3780365,20.2190083 23.1942783,19.8831542 23.4869232,19.1791333 C23.7813476,18.4772667 23.4444106,17.6608375 22.7254534,17.3684583 C22.0203375,17.0815625 21.200932,17.424075 20.907694,18.1292708 C20.6144559,18.83055 20.953568,19.6391458 21.6588816,19.9254542" id="Shape" fill="#000000" mask="url(#mask-78)"></path>
                        </g>
                        <g id="Clipped">
                            <mask id="mask-80" fill="white">
                                <use xlink:href="#path-79"></use>
                            </mask>
                            <g id="SVGID_3_"></g>
                            <path d="M34.458534,18.8209542 C33.7391814,19.1145083 32.9231373,18.7786542 32.630097,18.0746333 C32.3358703,17.3721792 32.6728073,16.5559458 33.391369,16.2641542 C34.0968804,15.9770625 34.9162859,16.319575 35.2095239,17.024575 C35.502762,17.72605 35.1634521,18.53445 34.458534,18.8209542" id="Shape" fill="#000000" mask="url(#mask-80)"></path>
                        </g>
                        <g id="Clipped">
                            <mask id="mask-82" fill="white">
                                <use xlink:href="#path-81"></use>
                            </mask>
                            <g id="SVGID_3_"></g>
                            <path d="M37.6234484,20.6580667 C36.9042935,20.9520125 36.0884471,20.6161583 35.7956045,19.9119417 C35.5009824,19.2096833 35.8381171,18.39345 36.5566788,18.1010708 C37.2619924,17.8145667 38.081398,18.1570792 38.3750315,18.8620792 C38.6680718,19.5631625 38.328762,20.3715625 37.6234484,20.6580667" id="Shape" fill="#000000" mask="url(#mask-82)"></path>
                        </g>
                        <g id="Clipped">
                            <mask id="mask-84" fill="white">
                                <use xlink:href="#path-83"></use>
                            </mask>
                            <g id="SVGID_3_"></g>
                            <path d="M38.5500252,24.1435083 C37.8308703,24.4372583 37.0146285,24.1014042 36.7219836,23.3975792 C36.4273615,22.6955167 36.7644962,21.8790875 37.4834534,21.5867083 C38.1881738,21.3000083 39.0081725,21.642325 39.3010151,22.347325 C39.5946486,23.0488 39.2553388,23.8577875 38.5500252,24.1435083" id="Shape" fill="#000000" mask="url(#mask-84)"></path>
                        </g>
                        <g id="Clipped">
                            <mask id="mask-86" fill="white">
                                <use xlink:href="#path-85"></use>
                            </mask>
                            <g id="SVGID_3_"></g>
                            <path d="M30.9258363,19.9254542 C30.2062859,20.2190083 29.390835,19.8831542 29.0973992,19.1791333 C28.8031725,18.4772667 29.1403073,17.6608375 29.8590668,17.3684583 C30.5641826,17.0815625 31.3839836,17.424075 31.6768262,18.1292708 C31.9700642,18.83055 31.6309521,19.6391458 30.9258363,19.9254542" id="Shape" fill="#000000" mask="url(#mask-86)"></path>
                        </g>
                        <g id="Clipped">
                            <mask id="mask-88" fill="white">
                                <use xlink:href="#path-87"></use>
                            </mask>
                            <g id="SVGID_3_"></g>
                            <path d="M27.0297053,16.3518875 L27.0338577,16.3481667 L28.8009975,17.2670167 L28.8009975,14.6875 L27.035835,15.2411208 L27.0308917,15.2360292 C26.9814584,15.1716 26.9243136,15.1142208 26.8592594,15.064675 L26.8545139,15.0595833 L27.5647708,12.8458833 L26.2895907,12.8460792 L25.0140151,12.8458833 L25.724272,15.0595833 L25.719131,15.064675 C25.6548678,15.1142208 25.5973275,15.1716 25.5480919,15.2360292 L25.5427531,15.2411208 L23.7779861,14.6875 L23.7779861,17.2670167 L25.5453237,16.3481667 L25.5492783,16.3518875 C25.6016776,16.4200375 25.6631725,16.4801583 25.7319836,16.5312708 L24.7170202,19.5633583 C24.7158338,19.5670792 24.7146474,19.5708 24.7136587,19.5747167 L24.7124723,19.57785 L24.7128678,19.5780458 C24.6656096,19.729425 24.6399043,19.8902042 24.6399043,20.0566625 C24.6399043,20.8770083 25.2512947,21.5542 26.0469723,21.670525 C26.0586385,21.6722875 26.0705025,21.6742458 26.0825642,21.6758125 C26.1503866,21.684625 26.2188023,21.6903042 26.2895907,21.6903042 C26.3595882,21.6903042 26.4283992,21.684625 26.4964194,21.6758125 C26.5080856,21.6742458 26.5199496,21.6722875 26.5316159,21.670525 C27.3272935,21.5542 27.9388816,20.8770083 27.9388816,20.0566625 C27.9388816,19.8902042 27.9131763,19.729425 27.8665113,19.5780458 L27.8665113,19.57785 L27.8653249,19.5747167 C27.8647317,19.5708 27.8629521,19.5670792 27.861568,19.5633583 L26.847,16.5312708 C26.9158111,16.4801583 26.9771083,16.4200375 27.0297053,16.3518875" id="Shape" fill="#000000" mask="url(#mask-88)"></path>
                        </g>
                        <g id="Clipped">
                            <mask id="mask-90" fill="white">
                                <use xlink:href="#path-89"></use>
                            </mask>
                            <g id="SVGID_3_"></g>
                            <path d="M26.2895907,31.1901792 C29.6443287,31.1901792 32.8201184,31.4149958 35.6496776,31.8162583 C36.4526713,28.471425 37.4302632,26.5555875 38.4398879,25.1912167 L36.5390806,24.5206833 C36.7283111,25.4769375 36.7583665,25.9212833 36.5467922,26.5360042 C36.2331877,26.2326583 35.9361927,25.6743375 35.7042519,24.8212875 L34.7838048,27.8586625 C35.3437846,27.4765917 35.776029,27.2298417 36.2703615,27.2182875 C35.3936134,29.0883 34.298568,29.5698542 33.5889043,29.4398208 C32.7228338,29.2825667 32.3244018,28.51725 32.4586625,27.8682583 C32.6583728,26.9488208 33.6110504,26.708925 34.0559496,27.7787625 C34.9073879,26.0595417 33.4633438,25.5235458 32.533801,26.0323208 C33.9610378,24.622125 34.1243652,23.3687917 32.9723728,21.8522583 C31.3669786,23.0674042 31.3483917,24.2709958 32.0705126,25.9643667 C31.1330605,24.901775 29.6747796,25.4724333 30.201738,27.1891083 C30.8775894,26.1525625 31.772529,26.8042958 31.6321385,27.7891417 C31.513301,28.6470875 30.3696134,29.33975 28.9453426,29.2173542 C26.9045403,29.0336625 26.78333,27.6387417 26.7321171,26.4845 C27.233568,26.3922625 28.1374055,26.8532542 28.9075756,27.9242667 L29.1913224,24.7026125 C28.35333,25.5678042 27.5918602,25.7319125 26.7459584,25.7587417 C27.0273325,24.8886542 28.3216927,23.4627917 28.3216927,23.4627917 L26.4414496,23.4627917 L26.4402632,23.4627917 L26.4392746,23.4627917 L24.2616411,23.4627917 C24.2616411,23.4627917 25.5554081,24.8886542 25.8371776,25.7587417 C24.9914736,25.7319125 24.229806,25.5678042 23.3916159,24.7026125 L23.675165,27.9242667 C24.4461259,26.8532542 25.3491725,26.3924583 25.8510189,26.4845 C25.8003992,27.6389375 25.6789912,29.0338583 23.6375957,29.2173542 C22.2133249,29.33975 21.069835,28.6470875 20.9511952,27.7891417 C20.8106071,26.8042958 21.7055466,26.1525625 22.3817935,27.1891083 C22.9087519,25.4724333 21.4494824,24.901775 20.5126234,25.9643667 C21.2349421,24.2711917 21.2159597,23.0676 19.6107632,21.8522583 C18.4587708,23.3687917 18.6219005,24.622125 20.0491373,26.0323208 C19.1195945,25.5235458 17.6759458,26.0595417 18.5271864,27.7787625 C18.9720856,26.708925 19.9255542,26.9488208 20.1244736,27.8682583 C20.2585365,28.51725 19.8599068,29.2827625 18.994034,29.4398208 C18.284568,29.5698542 17.1897204,29.0883 16.3129723,27.2182875 C16.8071071,27.2298417 17.2389559,27.4763958 17.7997267,27.8586625 L16.8786864,24.8212875 C16.6465479,25.6741417 16.3499484,26.2326583 16.0361461,26.5360042 C15.8245718,25.9212833 15.8548249,25.4769375 16.0434622,24.5206833 L14.1434458,25.1912167 C15.1526751,26.5555875 16.1300693,28.471425 16.9332607,31.815475 C19.7614358,31.4149958 22.9354458,31.1901792 26.2895907,31.1901792" id="Shape" fill="#000000" mask="url(#mask-90)"></path>
                        </g>
                    </g>
                </g>
                <path d="M0,65.8731598 L345.670013,65.8731598 L0,65.8731598 Z" id="Rectangle-Copy" stroke="#4A4A4A" stroke-width="2"></path>
            </g>
            <rect id="Rectangle-Copy" fill="#9B9B9B" style="mix-blend-mode: multiply;" x="462" y="49" width="346" height="335"></rect>
            <g id="Input-Copy-3" transform="translate(40.000000, 151.000000)">
                <g id="Input-Box">
                    <use fill="#FFFFFF" fill-rule="evenodd" xlink:href="#path-91"></use>
                    <rect stroke="#222222" stroke-width="2" x="1" y="64" width="282" height="38"></rect>
                </g>
                <text id="Recipients-email" font-family="GDSTransportWebsite-Bold, GDS Transport Website" font-size="19" font-weight="bold" fill="#231F20">
                    <tspan x="0" y="18">Recipients email</tspan>
                </text>
                <text id="Who-do-you-want-to-s" font-family="GDSTransportWebsite, GDS Transport Website" font-size="19" font-weight="300" fill="#9B9B9B">
                    <tspan x="0" y="45">Who do you want to send this to?</tspan>
                </text>
                <text id="someones@email.com" font-family="GDSTransportWebsite, GDS Transport Website" font-size="19" font-weight="300" fill="#000000">
                    <tspan x="11" y="88">someones@email.com</tspan>
                </text>
            </g>
            <g id="Input-Copy-4" transform="translate(491.000000, 156.000000)">
                <g id="Input-Box">
                    <use fill="#FFFFFF" fill-rule="evenodd" xlink:href="#path-92"></use>
                    <rect stroke="#417505" stroke-width="5" x="2.5" y="2.5" width="285" height="151"></rect>
                </g>
                <text id="Is-this-email-addres" font-family="GDSTransportWebsite-Bold, GDS Transport Website" font-size="19" font-weight="bold" fill="#231F20">
                    <tspan x="20" y="37">Is this email address correct?</tspan>
                </text>
                <text id="someones@email.com" font-family="GDSTransportWebsite-Bold, GDS Transport Website" font-size="22" font-weight="bold" fill="#000000">
                    <tspan x="20" y="72">someones@email.com</tspan>
                </text>
            </g>
            <g id="Standard-Button-Copy-2" transform="translate(40.000000, 271.000000)">
                <g id="Click-Area">
                    <use fill="#00823B" fill-rule="evenodd" xlink:href="#path-93"></use>
                    <use fill="black" fill-opacity="1" filter="url(#filter-94)" xlink:href="#path-93"></use>
                </g>
                <text id="Send" font-family="GDSTransportWebsite, GDS Transport Website" font-size="19" font-weight="300" fill="#FFFFFF">
                    <tspan x="18.9893" y="25.4213789">Send</tspan>
                </text>
            </g>
            <g id="Standard-Button-Copy-3" transform="translate(511.000000, 251.000000)">
                <g id="Click-Area">
                    <use fill="#00823B" fill-rule="evenodd" xlink:href="#path-95"></use>
                    <use fill="black" fill-opacity="1" filter="url(#filter-96)" xlink:href="#path-95"></use>
                </g>
                <text id="Yes--send" font-family="GDSTransportWebsite, GDS Transport Website" font-size="19" font-weight="300" fill="#FFFFFF">
                    <tspan x="18.9893" y="25.4213789">Yes  send</tspan>
                </text>
                <text id="No,-change-it" font-family="GDSTransportWebsite, GDS Transport Website" font-size="19" font-weight="300" fill="#0049D9">
                    <tspan x="142" y="25">No, change it</tspan>
                </text>
            </g>
            <path d="M384.5,231.5 L440.505208,231.5" id="Line" stroke="#979797" stroke-width="7" stroke-linecap="round"></path>
            <path id="Line-decoration-1" d="M384.5,231.5 L395.3,228.5 L395.3,234.5 L384.5,231.5 Z" stroke="#979797" stroke-width="7" stroke-linecap="round"></path>
            <path id="Line-decoration-2" d="M440.505208,231.5 L429.705208,228.5 L429.705208,234.5 L440.505208,231.5 Z" stroke="#979797" stroke-width="7" stroke-linecap="round"></path>
            <path d="M827.5,231.5 L896.505208,231.5" id="Line-Copy" stroke="#979797" stroke-width="7" stroke-linecap="round"></path>
            <path id="Line-Copy-decoration-1" d="M896.505208,231.5 L885.705208,228.5 L885.705208,234.5 L896.505208,231.5 Z" stroke="#979797" stroke-width="7" stroke-linecap="round"></path>
            <g id="home-office-system/confirmation" transform="translate(946.000000, 150.000000)">
                <rect id="Rectangle" fill="#006435" x="0" y="0" width="286.207988" height="186"></rect>
                <g id="Paragraph-Lede" transform="translate(4.128000, 111.455995)" fill="#FFFFFF">
                    <text id="We-have-sent-an-emai" font-family="GDSTransportWebsite, GDS Transport Website" font-size="13.0719994" font-weight="300" line-spacing="19.2639992">
                        <tspan x="69.6484072" y="13">We have sent an email to</tspan>
                    </text>
                    <text id="someones@email.com" font-family="GDSTransportWebsite-Bold, GDS Transport Website" font-size="16.5119993" font-weight="bold">
                        <tspan x="53.7688102" y="45">someones@email.com</tspan>
                    </text>
                </g>
                <g id="Heading-Large" transform="translate(15.823999, 67.423997)" font-size="24.7679989" font-family="GDSTransportWebsite-Bold, GDS Transport Website" fill="#FFFFFF" font-weight="bold">
                    <text id="Request-sent">
                        <tspan x="52.7898884" y="24">Request sent</tspan>
                    </text>
                </g>
                <circle id="Oval" fill="#00823B" cx="145.167994" cy="37.1519984" r="23.391999"></circle>
                <text id="" font-family="FontAwesome" font-size="28.8959988" font-weight="normal" fill="#FFFFFF">
                    <tspan x="132.095994" y="47.703999"></tspan>
                </text>
            </g>
            <g id="number" transform="translate(8.000000, 2.000000)">
                <g id="content">
                    <rect id="container" fill="#005EA5" x="0" y="0" width="32" height="32" rx="16"></rect>
                    <text id="badge-text" font-family="GDSTransportWebsite-Bold, GDS Transport Website" font-size="19" font-weight="bold" fill="#FFFFFF">
                        <tspan x="12.4931641" y="23">1</tspan>
                    </text>
                </g>
            </g>
            <g id="number" transform="translate(456.000000, 2.000000)">
                <g id="content">
                    <rect id="container" fill="#005EA5" x="0" y="0" width="32" height="32" rx="16"></rect>
                    <text id="badge-text" font-family="GDSTransportWebsite-Bold, GDS Transport Website" font-size="19" font-weight="bold" fill="#FFFFFF">
                        <tspan x="10.1552734" y="23">2</tspan>
                    </text>
                </g>
            </g>
            <g id="number" transform="translate(918.000000, 2.000000)">
                <g id="content">
                    <rect id="container" fill="#005EA5" x="0" y="0" width="32" height="32" rx="16"></rect>
                    <text id="badge-text" font-family="GDSTransportWebsite-Bold, GDS Transport Website" font-size="19" font-weight="bold" fill="#FFFFFF">
                        <tspan x="10.1181641" y="23">3</tspan>
                    </text>
                </g>
            </g>
        </g>
    </g>
</svg>