<?xml version="1.0" encoding="UTF-8" standalone="no"?>
<svg width="722px" height="179px" viewBox="0 0 722 179" version="1.1" xmlns="http://www.w3.org/2000/svg" xmlns:xlink="http://www.w3.org/1999/xlink" style="background: #FFFFFF;">
    <!-- Generator: Sketch 47.1 (45422) - http://www.bohemiancoding.com/sketch -->
    <title>Desktop</title>
    <desc>Created with Sketch.</desc>
    <defs></defs>
    <g id="Page-1" stroke="none" stroke-width="1" fill="none" fill-rule="evenodd">
        <g id="Desktop">
            <rect id="Rectangle" fill="#F3F3F3" x="-2" y="75" width="960" height="303"></rect>
            <rect id="Rectangle-2" fill-opacity="0.460000008" fill="#FFFB1C" x="0" y="75" width="722" height="40"></rect>
            <path d="M278.10511,95.4218803 L278.805393,95.4218803 C280.302551,95.4218803 281.389197,96.1704592 281.389197,97.6434691 C281.389197,99.1406268 280.278403,99.8892056 278.901984,99.8892056 C277.525565,99.8892056 276.752838,99.1406268 276.752838,97.9090939 L275.207385,97.9090939 C275.207385,100.034092 276.752838,101.169034 278.926132,101.169034 C281.123573,101.169034 282.958798,99.8650579 282.958798,97.6434691 C282.958798,96.5507855 282.506029,95.2286987 280.870022,94.6733015 C282.173998,94.0394243 282.693174,92.7716698 282.693174,91.8963155 C282.693174,89.650579 281.123573,88.4673415 278.974427,88.4673415 C276.607952,88.4673415 275.328124,89.9162038 275.328124,91.7272816 L276.752838,91.7272816 C276.752838,90.5198964 277.622156,89.650579 278.950279,89.650579 C280.278403,89.650579 281.220164,90.4957487 281.220164,91.8721678 C281.220164,93.0554053 280.350846,94.0454612 278.805393,94.0454612 L278.10511,94.0454612 L278.10511,95.4218803 Z M286.792256,95.2769941 C287.347653,94.8181877 288.023789,94.5042676 289.158731,94.5042676 C290.438559,94.5042676 291.742535,95.2769941 291.742535,97.160515 C291.742535,98.8508543 290.462707,99.8892056 289.06214,99.8892056 C287.80646,99.8892056 286.937142,99.2372176 286.695665,97.9090939 L285.246803,97.9090939 C285.464132,100.178978 287.009585,101.169034 288.965549,101.169034 C291.621797,101.169034 293.16725,99.5028423 293.16725,97.1363673 C293.16725,94.7215969 291.573501,93.1519961 289.158731,93.1519961 C288.313561,93.1519961 287.468392,93.5142117 287.009585,93.8764272 L286.937142,93.8764272 L287.444244,90.06109 L292.611853,90.06109 L292.611853,88.6363754 L286.091973,88.6363754 L285.367541,94.9630739 L286.792256,95.2769941 Z M295.575993,104.477269 L295.575993,91.7272816 L296.952412,91.7272816 L296.952412,93.2002915 L297.121446,93.2002915 C297.435366,92.7173374 297.990763,91.606543 299.801841,91.606543 C302.144169,91.606543 303.762065,93.4659163 303.762065,96.3877885 C303.762065,99.3338084 302.144169,101.193182 299.825989,101.193182 C298.039059,101.193182 297.435366,100.082387 297.121446,99.5752854 L297.000708,99.5752854 L297.000708,104.477269 L295.575993,104.477269 Z M302.33735,96.3636408 C302.33735,94.4076767 301.443885,92.8863714 299.632807,92.8863714 C297.894173,92.8863714 296.97656,94.2869382 296.97656,96.3636408 C296.97656,98.4644911 297.91832,99.9133533 299.632807,99.9133533 C301.419738,99.9133533 302.33735,98.3437525 302.33735,96.3636408 Z M306.99183,91.7272816 L305.349786,91.7272816 L308.295806,96.3636408 L305.349786,101 L306.99183,101 L309.213419,97.4019921 L311.435008,101 L313.077052,101 L310.082736,96.3636408 L313.077052,91.7272816 L311.435008,91.7272816 L309.213419,95.5184711 L306.99183,91.7272816 Z" id="35px" fill="#4D4D4D"></path>
            <path d="M80.4999938,115.727295 L76.0113617,115.727295 L76.0113617,139 L80.4999938,139 L80.4999938,129.238646 L90.1590755,129.238646 L90.1590755,139 L94.6477076,139 L94.6477076,115.727295 L90.1590755,115.727295 L90.1590755,125.477286 L80.4999938,125.477286 L80.4999938,115.727295 Z M106.363627,139.329545 C101.124996,139.329545 97.9090897,135.954548 97.9090897,130.500008 C97.9090897,125.170468 100.954541,121.318199 106.181809,121.318199 C110.613623,121.318199 113.98862,124.102287 113.98862,129.704554 L113.98862,131.556825 L102.170449,131.556825 C102.45454,134.147732 103.818175,135.715912 106.329536,135.715912 C108.431807,135.715912 109.386351,134.590913 109.85226,133.29546 L113.806802,134.363641 C113.170439,136.761366 110.897714,139.329545 106.363627,139.329545 Z M106.147718,124.897741 C104.124993,124.897741 102.761358,126.227285 102.295449,128.522737 L109.806806,128.522737 C109.806806,126.465921 108.465898,124.897741 106.147718,124.897741 Z M126.874989,139 L126.874989,137.034093 L126.670444,137.034093 C126.068172,138.147728 124.659082,139.352272 122.204539,139.352272 C119.102269,139.352272 116.522726,137.454547 116.522726,134.07955 C116.522726,130.704553 119.124996,129.011373 123.545447,128.602283 C125.0909,128.431828 126.681807,128.37501 126.681807,127.454556 L126.681807,127.193193 C126.681807,125.636376 125.693172,124.761377 124.159082,124.761377 C122.534084,124.761377 121.340903,125.693195 121.022722,126.875012 L116.874998,126.272739 C117.681816,123.056833 120.556813,121.318199 124.272719,121.318199 C127.738624,121.318199 131.124985,122.852288 131.124985,127.284102 L131.124985,139 L126.874989,139 Z M126.681807,133.181824 L126.681807,130.875008 C126.352262,131.238644 124.761355,131.465916 123.965901,131.568189 C121.874994,131.806825 120.818177,132.51137 120.818177,134.022732 C120.818177,135.272731 121.806812,136.011366 123.261356,136.011366 C125.204536,136.011366 126.681807,134.70455 126.681807,133.181824 Z M150.124984,139 L145.772715,139 L145.772715,136.93182 L145.534079,136.93182 C144.94317,138.136364 143.545445,139.306818 141.238629,139.306818 C137.329541,139.306818 134.28409,136.113639 134.28409,130.284099 C134.28409,124.386378 137.454541,121.318199 141.249992,121.318199 C143.579535,121.318199 144.94317,122.511379 145.534079,123.70456 L145.715897,123.70456 L145.715897,115.727295 L150.124984,115.727295 L150.124984,139 Z M138.488631,130.272736 C138.488631,133.534096 139.806812,135.715912 142.397718,135.715912 C145.102261,135.715912 146.136351,133.329551 146.136351,130.272736 C146.136351,127.193193 145.090898,124.897741 142.397718,124.897741 C139.795448,124.897741 138.488631,127.022739 138.488631,130.272736 Z M156.249996,120.090927 C157.681813,120.090927 158.73863,119.03411 158.73863,117.75002 C158.73863,116.500021 157.681813,115.409113 156.249996,115.409113 C154.818179,115.409113 153.715907,116.500021 153.715907,117.75002 C153.715907,119.03411 154.818179,120.090927 156.249996,120.090927 Z M158.443176,121.545471 L154.034089,121.545471 L154.034089,139 L158.443176,139 L158.443176,121.545471 Z M166.761358,129.397736 C166.761358,126.68183 167.999993,124.954559 169.9659,124.954559 C171.636353,124.954559 172.886352,126.136376 172.886352,128.215919 L172.886352,139 L177.306802,139 L177.306802,128.034101 C177.306802,123.181833 174.568168,121.318199 171.511353,121.318199 C169.30681,121.318199 167.61363,122.329561 166.670449,123.761378 L166.488631,123.761378 L166.488631,121.545471 L162.352271,121.545471 L162.352271,139 L166.761358,139 L166.761358,129.397736 Z M191.94317,121.602289 L196.295438,121.602289 L196.295438,138.522728 C196.295438,143.238632 192.829532,145.636357 188.102264,145.636357 C184.784086,145.636357 182.272724,144.284086 181.284089,143.034087 L183.443178,140.147726 C184.409086,140.977271 185.784085,141.988634 187.988628,141.988634 C190.329535,141.988634 191.999988,140.909089 191.977261,138.250001 L191.977261,136.488639 L191.727261,136.488639 C191.227261,137.409092 189.920444,138.670455 187.409083,138.670455 C183.67045,138.670455 180.454544,135.943185 180.454544,130.147736 C180.454544,124.386378 183.624996,121.318199 187.420447,121.318199 C189.74999,121.318199 191.113625,122.511379 191.704534,123.70456 L191.94317,123.70456 L191.94317,121.602289 Z M184.659086,130.136372 C184.659086,133.375005 186.102266,135.147731 188.568173,135.147731 C191.147716,135.147731 192.306806,133.17046 192.306806,130.136372 C192.306806,127.193193 191.19317,124.897741 188.568173,124.897741 C185.965903,124.897741 184.659086,127.05683 184.659086,130.136372 Z M213.295449,115.727295 L208.886362,115.727295 L208.886362,139 L213.295449,139 L213.295449,115.727295 Z M226.795443,139 L226.795443,137.034093 L226.590898,137.034093 C225.988626,138.147728 224.579536,139.352272 222.124993,139.352272 C219.022724,139.352272 216.443181,137.454547 216.443181,134.07955 C216.443181,130.704553 219.045451,129.011373 223.465901,128.602283 C225.011354,128.431828 226.602262,128.37501 226.602262,127.454556 L226.602262,127.193193 C226.602262,125.636376 225.613626,124.761377 224.079537,124.761377 C222.454539,124.761377 221.261358,125.693195 220.943176,126.875012 L216.795453,126.272739 C217.60227,123.056833 220.477268,121.318199 224.193173,121.318199 C227.659079,121.318199 231.045439,122.852288 231.045439,127.284102 L231.045439,139 L226.795443,139 Z M226.602262,133.181824 L226.602262,130.875008 C226.272717,131.238644 224.681809,131.465916 223.886355,131.568189 C221.795448,131.806825 220.738631,132.51137 220.738631,134.022732 C220.738631,135.272731 221.727266,136.011366 223.181811,136.011366 C225.124991,136.011366 226.602262,134.70455 226.602262,133.181824 Z M245.806806,121.875016 C245.261352,121.556835 244.306807,121.306835 243.397717,121.306835 C241.693173,121.306835 239.909084,122.250016 239.409085,124.022742 L239.159085,124.022742 L239.159085,121.545471 L234.840907,121.545471 L234.840907,139 L239.249994,139 L239.249994,129.102282 C239.272721,127.170466 240.715902,125.340922 242.806809,125.340922 C243.522717,125.340922 244.193171,125.568195 244.431807,125.704558 L245.806806,121.875016 Z M258.874988,121.602289 L263.227256,121.602289 L263.227256,138.522728 C263.227256,143.238632 259.761351,145.636357 255.034082,145.636357 C251.715904,145.636357 249.204543,144.284086 248.215907,143.034087 L250.374996,140.147726 C251.340904,140.977271 252.715903,141.988634 254.920446,141.988634 C257.261353,141.988634 258.931806,140.909089 258.909079,138.250001 L258.909079,136.488639 L258.659079,136.488639 C258.159079,137.409092 256.852262,138.670455 254.340901,138.670455 C250.602268,138.670455 247.386362,135.943185 247.386362,130.147736 C247.386362,124.386378 250.556814,121.318199 254.352265,121.318199 C256.681808,121.318199 258.045443,122.511379 258.636352,123.70456 L258.874988,123.70456 L258.874988,121.602289 Z M251.590904,130.136372 C251.590904,133.375005 253.034084,135.147731 255.499991,135.147731 C258.079534,135.147731 259.238624,133.17046 259.238624,130.136372 C259.238624,127.193193 258.124989,124.897741 255.499991,124.897741 C252.897721,124.897741 251.590904,127.05683 251.590904,130.136372 Z M274.829536,139.329545 C269.590905,139.329545 266.374999,135.954548 266.374999,130.500008 C266.374999,125.170468 269.42045,121.318199 274.647718,121.318199 C279.079532,121.318199 282.454529,124.102287 282.454529,129.704554 L282.454529,131.556825 L270.636358,131.556825 C270.920449,134.147732 272.284084,135.715912 274.795445,135.715912 C276.897716,135.715912 277.852261,134.590913 278.318169,133.29546 L282.272711,134.363641 C281.636348,136.761366 279.363623,139.329545 274.829536,139.329545 Z M274.613627,124.897741 C272.590902,124.897741 271.227267,126.227285 270.761358,128.522737 L278.272715,128.522737 C278.272715,126.465921 276.931807,124.897741 274.613627,124.897741 Z" id="Heading-large" fill="#000000"></path>
            <path d="M438.142036,33.6647835 L439.931807,33.6647835 C439.782659,31.2485927 437.724423,29.5184807 434.7713,29.5184807 C431.848008,29.5184807 429.551135,31.2187631 429.551135,33.7841016 C429.551135,35.8423383 431.042611,37.0653485 433.428972,37.7514274 L435.308232,38.2883587 C437.366468,38.884949 438.350842,39.4517098 438.350842,40.8238676 C438.350842,42.4943206 436.740048,43.5980127 434.622153,43.5980127 C432.802552,43.5980127 431.191758,42.7926157 431.042611,41.0625038 L429.133522,41.0625038 C429.312499,43.5681832 431.340906,45.2684657 434.622153,45.2684657 C438.142036,45.2684657 440.140613,43.329547 440.140613,40.8238676 C440.140613,38.7059719 438.738626,37.4233027 435.845163,36.6477352 L434.294028,36.230122 C432.265621,35.6931907 431.340906,34.9474528 431.340906,33.7244426 C431.340906,32.2329667 432.683234,31.1591041 434.711641,31.1591041 C436.561071,31.1591041 437.87357,32.0241601 438.142036,33.6647835 Z M447.739696,45.2386361 C444.428619,45.2386361 442.400212,42.8821043 442.400212,39.3622213 C442.400212,35.8423383 444.458449,33.3963179 447.560718,33.3963179 C449.94708,33.3963179 452.482589,34.8579642 452.482589,39.1235851 L452.482589,39.8693231 L444.182526,39.8693231 C444.361503,42.345173 445.666544,43.6576717 447.739696,43.6576717 C449.141683,43.6576717 450.155886,43.0610814 450.603329,41.8679007 L452.303612,42.345173 C451.76668,44.075285 450.066398,45.2386361 447.739696,45.2386361 Z M447.560718,34.9772823 C445.800777,34.9772823 444.503193,36.2002925 444.219813,38.3480177 L450.692818,38.3480177 C450.692818,36.4090991 449.469808,34.9772823 447.560718,34.9772823 Z M461.513487,33.7841016 C461.155533,33.575295 460.588772,33.3664884 459.992181,33.3664884 C458.649853,33.3664884 457.397013,34.4105215 457.068889,35.5142136 L456.949571,35.5142136 L456.949571,33.5454655 L455.189629,33.5454655 L455.189629,45 L456.949571,45 L456.949571,38.5269948 C456.9794,36.9758599 458.053263,35.1860889 459.932522,35.1860889 C460.439624,35.1860889 460.737919,35.3352365 460.916896,35.424725 L461.513487,33.7841016 Z M472.662276,33.5454655 L470.753187,33.5454655 L467.591259,42.6732977 L467.471941,42.6732977 L464.310012,33.5454655 L462.400923,33.5454655 L466.636714,45 L468.426485,45 L472.662276,33.5454655 Z M475.846589,31.904842 C476.622156,31.904842 477.099428,31.3679107 477.099428,30.7116614 C477.099428,30.115071 476.622156,29.5184807 475.846589,29.5184807 C475.071021,29.5184807 474.593749,30.115071 474.593749,30.7116614 C474.593749,31.3679107 475.071021,31.904842 475.846589,31.904842 Z M476.741474,33.5454655 L474.981533,33.5454655 L474.981533,45 L476.741474,45 L476.741474,33.5454655 Z M489.113271,36.9758599 C488.814976,34.8281347 486.995375,33.3963179 484.579184,33.3963179 C481.476915,33.3963179 479.418678,35.8423383 479.418678,39.2727327 C479.418678,42.7926157 481.417256,45.2386361 484.609014,45.2386361 C487.144523,45.2386361 488.814976,43.6875013 489.113271,41.6590941 L487.353329,41.6590941 C487.025205,42.9119338 485.981172,43.6576717 484.609014,43.6576717 C482.520948,43.6576717 481.178619,41.9275597 481.178619,39.2727327 C481.178619,36.6775648 482.550777,34.9772823 484.609014,34.9772823 C486.160149,34.9772823 487.084864,35.9318268 487.353329,36.9758599 L489.113271,36.9758599 Z M496.473715,45.2386361 C493.162639,45.2386361 491.134232,42.8821043 491.134232,39.3622213 C491.134232,35.8423383 493.192469,33.3963179 496.294738,33.3963179 C498.6811,33.3963179 501.216609,34.8579642 501.216609,39.1235851 L501.216609,39.8693231 L492.916546,39.8693231 C493.095523,42.345173 494.400564,43.6576717 496.473715,43.6576717 C497.875703,43.6576717 498.889906,43.0610814 499.337349,41.8679007 L501.037632,42.345173 C500.5007,44.075285 498.800418,45.2386361 496.473715,45.2386361 Z M496.294738,34.9772823 C494.534797,34.9772823 493.237213,36.2002925 492.953832,38.3480177 L499.426838,38.3480177 C499.426838,36.4090991 498.203827,34.9772823 496.294738,34.9772823 Z M511.582383,38.2286996 C511.582383,36.0809744 513.223007,35.0966004 514.535505,35.0966004 C515.997152,35.0966004 517.041185,36.170463 517.041185,37.8409159 L517.041185,45 L518.801126,45 L518.801126,37.7215979 C518.801126,34.7983052 517.249991,33.3963179 515.102266,33.3963179 C513.372154,33.3963179 512.238633,34.3210329 511.701701,35.4843841 L511.582383,35.4843841 L511.582383,33.5454655 L509.822442,33.5454655 L509.822442,45 L511.582383,45 L511.582383,38.2286996 Z M528.876057,45 L528.876057,43.4488651 L528.786569,43.4488651 C528.428615,44.194603 527.384581,45.2684657 525.386004,45.2684657 C523.208449,45.2684657 521.478337,43.9857964 521.478337,41.7485826 C521.478337,39.1534147 523.77521,38.6463129 525.922935,38.3778472 C527.503899,38.1690406 528.876057,38.2286996 528.876057,37.4829617 L528.876057,37.4531322 C528.876057,35.5440431 527.861854,34.9474528 526.489696,34.9474528 C524.789413,34.9474528 523.864698,35.8423383 523.476915,36.6775648 L521.806462,36.0809744 C522.701347,33.9929082 524.670095,33.3963179 526.400207,33.3963179 C527.861854,33.3963179 530.635999,33.8139311 530.635999,37.4531322 L530.635999,45 L528.876057,45 Z M528.876057,40.8536971 L528.876057,39.2429032 C528.577762,39.6008574 526.579184,39.809664 525.833447,39.8991526 C524.461289,40.0781297 523.238279,40.4957429 523.238279,41.8380712 C523.238279,43.0610814 524.252482,43.6875013 525.654469,43.6875013 C527.742536,43.6875013 528.876057,42.285514 528.876057,40.8536971 Z M542.112917,37.8110864 C542.112917,36.2002925 543.007802,35.0966004 544.558937,35.0966004 C545.513482,35.0966004 546.796151,35.6633612 546.796151,37.4531322 L546.796151,45 L548.556092,45 L548.556092,37.5127912 C548.556092,34.7088166 547.004958,33.3963179 545.095868,33.3963179 C543.425415,33.3963179 542.112917,34.50001 541.784792,35.4545546 L541.665474,35.4545546 C541.158372,34.3210329 540.144169,33.3963179 538.712352,33.3963179 C537.250705,33.3963179 536.057525,34.50001 535.7294,35.4843841 L535.610082,35.4843841 L535.610082,33.5454655 L533.850141,33.5454655 L533.850141,45 L535.610082,45 L535.610082,38.1690406 C535.610082,36.289781 536.892751,35.0966004 538.23508,35.0966004 C539.517749,35.0966004 540.323146,35.7826792 540.323146,37.5127912 L540.323146,45 L542.112917,45 L542.112917,37.8110864 Z M556.572792,45.2386361 C553.261716,45.2386361 551.233309,42.8821043 551.233309,39.3622213 C551.233309,35.8423383 553.291545,33.3963179 556.393815,33.3963179 C558.780176,33.3963179 561.315685,34.8579642 561.315685,39.1235851 L561.315685,39.8693231 L553.015622,39.8693231 C553.194599,42.345173 554.499641,43.6576717 556.572792,43.6576717 C557.974779,43.6576717 558.988983,43.0610814 559.436426,41.8679007 L561.136708,42.345173 C560.599777,44.075285 558.899495,45.2386361 556.572792,45.2386361 Z M556.393815,34.9772823 C554.633874,34.9772823 553.33629,36.2002925 553.052909,38.3480177 L559.525914,38.3480177 C559.525914,36.4090991 558.302904,34.9772823 556.393815,34.9772823 Z" id="Service-name" fill="#000000"></path>
            <g id="Group" transform="translate(260.000000, 75.000000)">
                <path d="M3.5,5.5 L3.5,34.5" id="Line" stroke="#4D4D4D" stroke-linecap="square" stroke-dasharray="4"></path>
                <polygon id="Triangle" fill="#4B4B4B" points="3.5 0 7 4 0 4"></polygon>
                <polygon id="Triangle" fill="#4B4B4B" points="3.5 40 0 36 7 36"></polygon>
            </g>
            <g id="Home_Office_narrow" transform="translate(38.000000, 18.000000)" fill-rule="nonzero">
                <rect id="Rectangle-path" fill="#7F3F98" x="0.197826087" y="0.0282608696" width="1.95" height="38.9717391"></rect>
                <path d="M20.4043478,2.65652174 L20.4043478,3.81521739 C20.9978261,3.84347826 21.4217391,3.95652174 21.6478261,4.01304348 C21.5347826,3.33478261 21.0543478,2.82608696 20.4043478,2.65652174" id="Shape" fill="#000000"></path>
                <path d="M19.6978261,1.83695652 L19.6978261,1.83695652 C19.6978261,2.2326087 19.6130435,2.48695652 19.5,2.65652174 C19.5,2.65652174 19.6978261,2.6 19.9521739,2.6 C20.1217391,2.6 20.376087,2.65652174 20.4043478,2.65652174 C20.2913043,2.48695652 20.2065217,2.2326087 20.2065217,1.83695652 L20.2065217,1.83695652 C21.0826087,1.83695652 21.2804348,2.2326087 21.2804348,2.57173913 L21.45,2.57173913 L21.45,1.5826087 L21.45,0.593478261 L21.2804348,0.593478261 C21.2804348,0.932608696 21.0543478,1.32826087 20.2065217,1.32826087 C20.2065217,0.452173913 20.6021739,0.254347826 20.9413043,0.254347826 L20.9413043,0.0847826087 L19.9521739,0.0847826087 L18.9630435,0.0847826087 L18.9630435,0.254347826 C19.3021739,0.254347826 19.6978261,0.480434783 19.6978261,1.32826087 C18.8217391,1.32826087 18.623913,0.932608696 18.623913,0.593478261 L18.4543478,0.593478261 L18.4543478,1.5826087 L18.4543478,2.57173913 L18.623913,2.57173913 C18.623913,2.2326087 18.8217391,1.83695652 19.6978261,1.83695652" id="Shape" fill="#000000"></path>
                <path d="M19.5,2.65652174 C18.8782609,2.82608696 18.3978261,3.36304348 18.2565217,4.01304348 C18.4826087,3.95652174 18.9065217,3.84347826 19.5,3.81521739 L19.5,2.65652174 Z" id="Shape" fill="#000000"></path>
                <path d="M20.573913,31.3413043 C20.573913,31.7369565 20.9130435,32.076087 21.3086957,32.076087 C21.7043478,32.076087 22.0434783,31.7369565 22.0434783,31.3413043 C22.0434783,30.9456522 21.7043478,30.6065217 21.3086957,30.6065217 C20.8847826,30.6347826 20.573913,30.9456522 20.573913,31.3413043 M20.9413043,31.3413043 C20.9413043,31.1434783 21.1108696,30.973913 21.3086957,30.973913 C21.5065217,30.973913 21.676087,31.1434783 21.676087,31.3413043 C21.676087,31.5391304 21.5065217,31.7086957 21.3086957,31.7086957 C21.0826087,31.7086957 20.9413043,31.5673913 20.9413043,31.3413043" id="Shape" fill="#000000"></path>
                <path d="M19.2456522,21.7608696 C19.2456522,21.3934783 18.9630435,21.1108696 18.5956522,21.1108696 L18.4826087,21.1108696 L14.9217391,21.1108696 C14.6108696,21.1108696 14.3565217,21.3652174 14.3565217,21.676087 C14.3565217,21.9021739 14.526087,22.0717391 14.7521739,22.0717391 C14.9782609,22.0717391 15.1478261,21.9021739 15.1478261,21.6478261 C15.2326087,21.7326087 15.3173913,21.7891304 15.4304348,21.8456522 C15.373913,22.0717391 15.3173913,22.3826087 15.2891304,22.75 C15.2326087,22.6652174 15.1478261,22.6369565 15.0630435,22.6369565 C14.9217391,22.6369565 14.7804348,22.75 14.7804348,22.9195652 C14.7804348,23.0608696 14.8934783,23.2021739 15.0630435,23.2021739 C15.1478261,23.2021739 15.2326087,23.1456522 15.2891304,23.0891304 C15.2891304,23.2869565 15.2891304,23.4847826 15.3173913,23.7108696 C15.2608696,23.6826087 15.2043478,23.6543478 15.1478261,23.6543478 C15.0065217,23.6543478 14.8652174,23.7673913 14.8652174,23.9369565 C14.8652174,24.0782609 14.9782609,24.2195652 15.1478261,24.2195652 C15.2326087,24.2195652 15.3456522,24.1630435 15.373913,24.0782609 C15.373913,24.1065217 15.373913,24.1347826 15.4021739,24.1630435 C15.4586957,24.3326087 15.5152174,24.5021739 15.5717391,24.6434783 C15.5434783,24.6152174 15.4869565,24.6152174 15.4304348,24.6152174 C15.2891304,24.6152174 15.1478261,24.7282609 15.1478261,24.8978261 C15.1478261,25.0391304 15.2608696,25.1804348 15.4304348,25.1804348 C15.5717391,25.1804348 15.6847826,25.0673913 15.7130435,24.9543478 C15.7978261,25.123913 15.9108696,25.2934783 16.0521739,25.4630435 L15.9956522,25.4630435 C15.8543478,25.4630435 15.7130435,25.576087 15.7130435,25.7456522 C15.7130435,25.9152174 15.826087,26.0282609 15.9956522,26.0282609 C16.1369565,26.0282609 16.2782609,25.9152174 16.2782609,25.7456522 C16.2782609,25.7456522 16.2782609,25.7456522 16.2782609,25.7173913 C16.7021739,26.1413043 17.2391304,26.5086957 17.8891304,26.7630435 L17.776087,27.6108696 C17.776087,27.6108696 18.0304348,27.723913 18.426087,27.8369565 C18.8217391,27.95 19.1891304,28.0065217 19.1891304,28.0065217 L19.2456522,21.7608696 Z M15.9108696,22.1 C15.9108696,22.1 15.9391304,22.1 15.9673913,22.1282609 L17.973913,26.1978261 C15.4869565,25.0673913 15.7413043,23.0326087 15.9108696,22.1 L15.9108696,22.1 Z M18.0304348,25.8869565 L16.1934783,22.1847826 C16.3065217,22.2130435 16.4195652,22.2130435 16.5326087,22.2130435 L18.1152174,25.4065217 L18.0304348,25.8869565 Z M18.1434783,25.0673913 L16.7304348,22.1847826 C16.8434783,22.1847826 16.9282609,22.1565217 17.0130435,22.1282609 L18.2,24.5586957 L18.1434783,25.0673913 Z M18.2565217,24.2478261 L17.1826087,22.1 C17.2673913,22.0717391 17.3521739,22.0434783 17.4369565,21.9869565 L18.3130435,23.7391304 L18.2565217,24.2478261 Z M18.3695652,23.4282609 L17.6065217,21.9021739 C17.6913043,21.8456522 17.776087,21.7891304 17.8326087,21.7326087 L18.426087,22.9195652 L18.3695652,23.4282609 Z M18.5673913,22.0152174 L18.4826087,22.6369565 L18.0021739,21.6478261 C18.0586957,21.6195652 18.1152174,21.6195652 18.1717391,21.6195652 C18.3978261,21.5913043 18.5956522,21.7891304 18.5673913,22.0152174 L18.5673913,22.0152174 Z" id="Shape" fill="#000000"></path>
                <path d="M16.8152174,5.39782609 C16.8152174,5.17173913 17.0130435,4.97391304 17.2391304,4.97391304 C17.4652174,4.97391304 17.6630435,5.17173913 17.6630435,5.39782609 C17.6630435,5.65217391 17.4652174,5.82173913 17.2391304,5.82173913 C17.0130435,5.85 16.8152174,5.65217391 16.8152174,5.39782609" id="Shape" fill="#000000"></path>
                <path d="M11.1913043,8.39347826 C11.1913043,8.1673913 11.3891304,7.96956522 11.6152174,7.96956522 C11.8695652,7.96956522 12.0391304,8.1673913 12.0391304,8.39347826 C12.0391304,8.64782609 11.8413043,8.8173913 11.6152174,8.8173913 C11.3891304,8.8173913 11.1913043,8.61956522 11.1913043,8.39347826" id="Shape" fill="#000000"></path>
                <path d="M10.9652174,7.29130435 C10.9652174,7.03695652 11.1630435,6.8673913 11.3891304,6.8673913 C11.6152174,6.8673913 11.8130435,7.06521739 11.8130435,7.29130435 C11.8130435,7.5173913 11.6152174,7.71521739 11.3891304,7.71521739 C11.1630435,7.74347826 10.9652174,7.54565217 10.9652174,7.29130435" id="Shape" fill="#000000"></path>
                <path d="M11.05,6.18913043 C11.05,5.96304348 11.2478261,5.76521739 11.473913,5.76521739 C11.7282609,5.76521739 11.8978261,5.96304348 11.8978261,6.18913043 C11.8978261,6.41521739 11.7,6.61304348 11.473913,6.61304348 C11.2478261,6.61304348 11.05,6.41521739 11.05,6.18913043" id="Shape" fill="#000000"></path>
                <path d="M11.6434783,5.22826087 C11.6434783,5.00217391 11.8413043,4.80434783 12.0673913,4.80434783 C12.3217391,4.80434783 12.4913043,5.00217391 12.4913043,5.22826087 C12.4913043,5.45434783 12.2934783,5.65217391 12.0673913,5.65217391 C11.8413043,5.68043478 11.6434783,5.4826087 11.6434783,5.22826087" id="Shape" fill="#000000"></path>
                <path d="M12.5478261,4.57826087 C12.5478261,4.35217391 12.7456522,4.15434783 12.9717391,4.15434783 C13.1978261,4.15434783 13.3956522,4.35217391 13.3956522,4.57826087 C13.3956522,4.8326087 13.1978261,5.00217391 12.9717391,5.00217391 C12.7456522,5.03043478 12.5478261,4.8326087 12.5478261,4.57826087" id="Shape" fill="#000000"></path>
                <path d="M13.65,4.38043478 C13.65,4.15434783 13.8478261,3.95652174 14.073913,3.95652174 C14.3282609,3.95652174 14.4978261,4.15434783 14.4978261,4.38043478 C14.4978261,4.60652174 14.3,4.80434783 14.073913,4.80434783 C13.8478261,4.8326087 13.65,4.63478261 13.65,4.38043478" id="Shape" fill="#000000"></path>
                <path d="M14.723913,4.60652174 C14.723913,4.38043478 14.9217391,4.1826087 15.1478261,4.1826087 C15.4021739,4.1826087 15.5717391,4.38043478 15.5717391,4.60652174 C15.5717391,4.8326087 15.373913,5.03043478 15.1478261,5.03043478 C14.9217391,5.05869565 14.723913,4.86086957 14.723913,4.60652174" id="Shape" fill="#000000"></path>
                <path d="M15.7695652,5.03043478 C15.7695652,4.80434783 15.9673913,4.60652174 16.1934783,4.60652174 C16.4478261,4.60652174 16.6173913,4.80434783 16.6173913,5.03043478 C16.6173913,5.28478261 16.4195652,5.45434783 16.1934783,5.45434783 C15.9673913,5.45434783 15.7695652,5.25652174 15.7695652,5.03043478" id="Shape" fill="#000000"></path>
                <path d="M23.0891304,5.39782609 C23.0891304,5.17173913 22.8913043,4.97391304 22.6652174,4.97391304 C22.4391304,4.97391304 22.2413043,5.17173913 22.2413043,5.39782609 C22.2413043,5.65217391 22.4391304,5.82173913 22.6652174,5.82173913 C22.8913043,5.85 23.0891304,5.65217391 23.0891304,5.39782609" id="Shape" fill="#000000"></path>
                <path d="M28.7130435,8.39347826 C28.7130435,8.1673913 28.5152174,7.96956522 28.2891304,7.96956522 C28.0347826,7.96956522 27.8652174,8.1673913 27.8652174,8.39347826 C27.8652174,8.64782609 28.0630435,8.8173913 28.2891304,8.8173913 C28.5152174,8.8173913 28.7130435,8.61956522 28.7130435,8.39347826" id="Shape" fill="#000000"></path>
                <path d="M28.9391304,7.29130435 C28.9391304,7.03695652 28.7413043,6.8673913 28.5152174,6.8673913 C28.2891304,6.8673913 28.0913043,7.06521739 28.0913043,7.29130435 C28.0913043,7.5173913 28.2891304,7.71521739 28.5152174,7.71521739 C28.7413043,7.74347826 28.9391304,7.54565217 28.9391304,7.29130435" id="Shape" fill="#000000"></path>
                <path d="M28.826087,6.18913043 C28.826087,5.96304348 28.6282609,5.76521739 28.4021739,5.76521739 C28.1478261,5.76521739 27.9782609,5.96304348 27.9782609,6.18913043 C27.9782609,6.41521739 28.176087,6.61304348 28.4021739,6.61304348 C28.6565217,6.61304348 28.826087,6.41521739 28.826087,6.18913043" id="Shape" fill="#000000"></path>
                <path d="M28.2608696,5.22826087 C28.2608696,5.00217391 28.0630435,4.80434783 27.8369565,4.80434783 C27.6108696,4.80434783 27.4130435,5.00217391 27.4130435,5.22826087 C27.4130435,5.45434783 27.6108696,5.65217391 27.8369565,5.65217391 C28.0630435,5.68043478 28.2608696,5.4826087 28.2608696,5.22826087" id="Shape" fill="#000000"></path>
                <path d="M27.3565217,4.57826087 C27.3565217,4.35217391 27.1586957,4.15434783 26.9326087,4.15434783 C26.6782609,4.15434783 26.5086957,4.35217391 26.5086957,4.57826087 C26.5086957,4.8326087 26.7065217,5.00217391 26.9326087,5.00217391 C27.1586957,5.03043478 27.3565217,4.8326087 27.3565217,4.57826087" id="Shape" fill="#000000"></path>
                <path d="M26.2543478,4.38043478 C26.2543478,4.15434783 26.0565217,3.95652174 25.8304348,3.95652174 C25.576087,3.95652174 25.4065217,4.15434783 25.4065217,4.38043478 C25.4065217,4.60652174 25.6043478,4.80434783 25.8304348,4.80434783 C26.0565217,4.8326087 26.2543478,4.63478261 26.2543478,4.38043478" id="Shape" fill="#000000"></path>
                <path d="M25.1521739,4.60652174 C25.1521739,4.38043478 24.9543478,4.1826087 24.7282609,4.1826087 C24.473913,4.1826087 24.3043478,4.38043478 24.3043478,4.60652174 C24.3043478,4.8326087 24.5021739,5.03043478 24.7282609,5.03043478 C24.9826087,5.05869565 25.1521739,4.86086957 25.1521739,4.60652174" id="Shape" fill="#000000"></path>
                <path d="M24.1065217,5.03043478 C24.1065217,4.80434783 23.9086957,4.60652174 23.6826087,4.60652174 C23.4565217,4.60652174 23.2586957,4.80434783 23.2586957,5.03043478 C23.2586957,5.28478261 23.4565217,5.45434783 23.6826087,5.45434783 C23.9369565,5.45434783 24.1065217,5.25652174 24.1065217,5.03043478" id="Shape" fill="#000000"></path>
                <path d="M23.6826087,11.6434783 C23.6826087,11.3891304 23.4565217,11.1630435 23.2021739,11.1630435 C22.9478261,11.1630435 22.7217391,11.3891304 22.7217391,11.6434783 C22.7217391,11.8978261 22.9478261,12.123913 23.2021739,12.123913 C23.4565217,12.123913 23.6826087,11.8978261 23.6826087,11.6434783" id="Shape" fill="#000000"></path>
                <path d="M20.5456522,14.526087 L20.5456522,20.0086957 L25.4065217,20.0086957 L25.4065217,14.526087 L20.5456522,14.526087 Z M25.2652174,19.8673913 L20.6869565,19.8673913 L20.6869565,14.6956522 L22.4673913,14.6956522 L23.1456522,14.6956522 L25.2369565,14.6956522 L25.2652174,19.8673913 L25.2652174,19.8673913 Z" id="Shape" fill="#000000"></path>
                <path d="M21.1673913,14.8652174 L21.1673913,14.8652174 L20.8847826,14.8652174 L20.8847826,19.3869565 L20.8847826,19.6695652 L21.1673913,19.6695652 L24.7847826,19.6695652 L25.0673913,19.6695652 L25.0673913,19.3869565 L25.0673913,15.1478261 L25.0673913,14.8652174 L24.7847826,14.8652174 L23.2304348,14.8652174 L22.4108696,14.8652174 L21.1673913,14.8652174 Z M24.7847826,15.0065217 L24.7847826,15.1478261 L24.926087,15.1478261 L24.926087,19.3869565 L24.7847826,19.3869565 L24.7847826,19.5282609 L21.1673913,19.5282609 L21.1673913,19.3869565 L21.026087,19.3869565 L21.026087,15.1478261 L21.1673913,15.1478261 L21.1673913,15.0065217 L24.7847826,15.0065217 Z" id="Shape" fill="#000000"></path>
                <path d="M24.5869565,16.25 L24.3608696,16.476087 L24.3608696,16.476087 C24.3608696,16.476087 24.3326087,16.476087 24.3326087,16.5043478 L24.3326087,16.5043478 L23.9086957,16.9 C23.7673913,17.0130435 23.7391304,17.2108696 23.8521739,17.3521739 L24.1065217,17.6913043 C24.1347826,17.7195652 24.1347826,17.7478261 24.1347826,17.8043478 C24.1347826,17.8326087 24.1065217,17.8891304 24.0782609,17.8891304 C24.05,17.9173913 24.0217391,17.9173913 23.9652174,17.9173913 C23.9369565,17.9173913 23.8804348,17.8891304 23.8804348,17.8608696 C23.8804348,17.8608696 23.626087,17.5217391 23.5130435,17.3521739 L23.5130435,16.8717391 L24.1065217,16.3065217 L24.1065217,15.826087 L23.9086957,15.6282609 L24.1630435,15.373913 L23.1173913,15.373913 L22.8630435,15.6282609 L22.8630435,15.9108696 C22.8913043,15.8826087 22.9478261,15.8826087 22.976087,15.8826087 C23.0891304,15.8826087 23.2021739,15.9956522 23.2021739,16.1086957 C23.2021739,16.2217391 23.0891304,16.3347826 22.976087,16.3347826 C22.9478261,16.3347826 22.8913043,16.3347826 22.8630435,16.3065217 L22.8630435,16.6456522 L22.4956522,16.6456522 L22.0717391,16.0521739 C22.1282609,15.9956522 22.1565217,15.9108696 22.1565217,15.826087 C22.1565217,15.6565217 22.0152174,15.5434783 21.873913,15.5434783 C21.8173913,15.5434783 21.7608696,15.5717391 21.7043478,15.6 L21.7043478,15.7695652 L21.7043478,16.0521739 L21.7043478,16.0804348 L21.7326087,16.0804348 L22.1282609,16.6456522 L22.326087,16.9282609 L22.6934783,16.9282609 L22.8065217,16.9282609 L22.5521739,17.1826087 L22.0434783,17.1826087 C22.0152174,17.0695652 21.9021739,17.0130435 21.7891304,17.0130435 C21.676087,17.0130435 21.5630435,17.0978261 21.5347826,17.1826087 C21.5347826,17.2108696 21.5065217,17.2391304 21.5065217,17.2956522 C21.5065217,17.3521739 21.5347826,17.4369565 21.5630435,17.4652174 L22.0152174,17.4652174 L22.7217391,17.4652174 L22.9195652,17.7478261 L22.4673913,17.7478261 L22.1282609,17.7478261 L22.1282609,17.7478261 L22.4391304,18.1717391 L22.6086957,18.3978261 L22.2130435,18.3978261 C22.1847826,18.2847826 22.0717391,18.2 21.9304348,18.2 C21.8173913,18.2 21.7043478,18.2847826 21.6478261,18.3978261 L21.6478261,18.4826087 C21.6478261,18.5673913 21.676087,18.623913 21.7326087,18.6804348 L22.1565217,18.6804348 L22.8347826,18.6804348 L23.173913,18.6804348 L22.976087,18.3978261 L22.8065217,18.1717391 L23.2586957,18.1717391 L23.4282609,18.3978261 L23.626087,18.6804348 L24.2195652,18.6804348 L24.3043478,18.6804348 L24.3043478,18.9913043 L24.2195652,18.9913043 C24.1913043,18.8782609 24.0782609,18.7934783 23.9369565,18.7934783 C23.7956522,18.7934783 23.7108696,18.8782609 23.6543478,18.9913043 L23.6543478,19.076087 C23.6543478,19.1608696 23.6826087,19.2173913 23.7391304,19.273913 L24.5869565,19.273913 L24.5869565,18.6521739 L24.5869565,18.3695652 L24.3043478,18.3695652 L24.0217391,18.3695652 L23.7391304,18.0021739 C23.7956522,18.0586957 23.8521739,18.1152174 23.9369565,18.1152174 C24.0217391,18.1152174 24.1065217,18.1152174 24.1913043,18.0586957 C24.276087,18.0021739 24.3043478,17.9173913 24.3326087,17.8326087 C24.3326087,17.7478261 24.3326087,17.6630435 24.276087,17.5782609 L24.0217391,17.2391304 C23.9652174,17.1826087 23.9934783,17.0695652 24.05,17.0413043 C24.05,17.0413043 24.1065217,16.9847826 24.1630435,16.9282609 C24.276087,17.0130435 24.4173913,17.0130435 24.5304348,16.9282609 C24.5869565,16.8717391 24.6152174,16.8152174 24.6152174,16.7304348 L24.6152174,16.7304348 L24.6152174,16.7304348 L24.5869565,16.25 Z" id="Shape" fill="#000000"></path>
                <polygon id="Shape" fill="#000000" points="19.3021739 11.6434783 19.9521739 10.9934783 20.6021739 11.6434783 19.9521739 12.2934783"></polygon>
                <path d="M16.2217391,11.6434783 C16.2217391,11.3891304 16.4478261,11.1630435 16.7021739,11.1630435 C16.9565217,11.1630435 17.1826087,11.3891304 17.1826087,11.6434783 C17.1826087,11.8978261 16.9565217,12.123913 16.7021739,12.123913 C16.4478261,12.123913 16.2217391,11.8978261 16.2217391,11.6434783" id="Shape" fill="#000000"></path>
                <path d="M25.0673913,23.9652174 L25.0673913,23.9652174 L25.0673913,23.9652174 L25.0673913,23.823913 C25.0673913,23.626087 24.926087,23.4847826 24.7282609,23.4847826 L23.5130435,23.4847826 C23.5130435,23.3434783 23.3717391,23.2021739 23.2304348,23.2021739 C23.1456522,23.2021739 23.0891304,23.2304348 23.0326087,23.2869565 L22.6652174,23.6543478 L23.0326087,23.6543478 L23.0326087,23.6543478 L23.4565217,23.6543478 L24.7282609,23.6543478 C24.8130435,23.6543478 24.8695652,23.7108696 24.8695652,23.7956522 C24.8695652,23.8804348 24.8130435,23.9369565 24.7282609,23.9369565 L24.7282609,23.9369565 L23.9086957,23.9369565 L23.9086957,23.9369565 L22.326087,23.9369565 L22.326087,23.5978261 L22.75,23.173913 L21.0826087,23.173913 L21.5065217,23.5978261 L21.5065217,24.2195652 L20.8282609,23.6826087 C20.8847826,23.626087 20.9130435,23.5413043 20.9130435,23.4565217 C20.9130435,23.2869565 20.7717391,23.173913 20.6304348,23.173913 C20.573913,23.173913 20.4891304,23.2021739 20.4326087,23.2304348 L20.4326087,23.6543478 L20.4326087,23.6543478 L20.4326087,23.7391304 L21.4782609,24.5869565 L20.9978261,24.7282609 C20.9695652,24.6152174 20.8565217,24.5304348 20.7152174,24.5304348 C20.5456522,24.5304348 20.4326087,24.6717391 20.4326087,24.8130435 C20.4326087,24.8695652 20.4608696,24.9543478 20.4891304,24.9826087 L20.8282609,24.9826087 L21.0826087,24.9826087 L23.6826087,24.1630435 L23.6826087,24.5586957 L23.3434783,24.7 C23.3152174,24.5586957 23.2021739,24.473913 23.0608696,24.473913 C22.8913043,24.473913 22.7782609,24.6152174 22.7782609,24.7565217 C22.7782609,24.8130435 22.8065217,24.8978261 22.8347826,24.926087 L23.1456522,24.926087 L23.4847826,24.926087 L23.8804348,24.7282609 L24.1347826,24.6152174 L24.0217391,24.3608696 L24.0217391,24.3043478 L24.9826087,24.3043478 C24.9826087,24.3326087 24.9543478,24.3891304 24.9543478,24.4173913 C24.926087,24.473913 24.8978261,24.5586957 24.8695652,24.6152174 C24.8130435,24.5586957 24.7282609,24.5304348 24.6434783,24.5304348 C24.473913,24.5304348 24.3608696,24.6717391 24.3608696,24.8130435 C24.3608696,24.8695652 24.3891304,24.9543478 24.4173913,24.9826087 L24.8695652,24.9826087 L25.0108696,24.9826087 C25.0956522,24.8130435 25.1521739,24.6152174 25.1804348,24.5021739 C25.2652174,24.2478261 25.3217391,24.0217391 25.3217391,23.9369565 C25.35,23.9652174 25.0673913,23.9652174 25.0673913,23.9652174 L25.0673913,23.9652174 Z M21.9304348,23.9934783 L21.6478261,23.7108696 L22.2130435,23.7108696 L21.9304348,23.9934783 Z" id="Shape" fill="#000000"></path>
                <path d="M25.0956522,21.873913 C25.123913,21.8173913 25.123913,21.7891304 25.123913,21.7326087 C25.123913,21.5347826 24.9826087,21.3934783 24.7847826,21.3934783 L23.5130435,21.3934783 C23.5130435,21.2521739 23.3717391,21.1108696 23.2304348,21.1108696 C23.1456522,21.1108696 23.0891304,21.1391304 23.0326087,21.1956522 L22.6652174,21.5630435 L23.0326087,21.5630435 L23.0326087,21.5630435 L23.4565217,21.5630435 L24.8130435,21.5630435 C24.8978261,21.5630435 24.9543478,21.6195652 24.9543478,21.7043478 C24.9543478,21.7891304 24.8978261,21.8456522 24.8130435,21.8456522 L23.9369565,21.8456522 L22.326087,21.8456522 L22.326087,21.5065217 L22.75,21.0826087 L21.0826087,21.0826087 L21.5065217,21.5065217 L21.5065217,22.1282609 L20.8282609,21.5913043 C20.8847826,21.5347826 20.9130435,21.45 20.9130435,21.3934783 C20.9130435,21.223913 20.7717391,21.1108696 20.6304348,21.1108696 C20.573913,21.1108696 20.4891304,21.1391304 20.4326087,21.1673913 L20.4326087,21.5913043 L20.4326087,21.676087 L21.45,22.4956522 L20.9695652,22.6369565 C20.9413043,22.523913 20.8282609,22.4391304 20.6869565,22.4391304 C20.5173913,22.4391304 20.4043478,22.5804348 20.4043478,22.7217391 C20.4043478,22.7782609 20.4326087,22.8630435 20.4608696,22.9195652 L20.9130435,22.9195652 L21.0543478,22.9195652 L23.6543478,22.1 L23.6543478,22.523913 L23.3152174,22.6369565 C23.2869565,22.523913 23.173913,22.4391304 23.0326087,22.4391304 C22.8630435,22.4391304 22.75,22.5804348 22.75,22.7217391 C22.75,22.7782609 22.7782609,22.8630435 22.8065217,22.9195652 L23.2586957,22.9195652 L23.4565217,22.9195652 L24.1065217,22.7217391 L24.4173913,22.6086957 L24.1630435,22.3826087 L23.9934783,22.2130435 L25.1521739,22.2130435 L25.1521739,22.523913 C25.0956522,22.4673913 25.0108696,22.4108696 24.926087,22.4108696 C24.7565217,22.4108696 24.6434783,22.5521739 24.6434783,22.6934783 C24.6434783,22.75 24.6717391,22.8347826 24.7,22.8913043 L25.1521739,22.8913043 L25.4347826,22.8913043 L25.4347826,22.1847826 L25.4347826,22.0434783 L25.4347826,21.8456522 L25.0956522,21.873913 L25.0956522,21.873913 Z M21.9304348,21.9021739 L21.6478261,21.6195652 L22.2130435,21.6195652 L21.9304348,21.9021739 Z" id="Shape" fill="#000000"></path>
                <path d="M24.0217391,25.5478261 L23.5130435,25.5478261 C23.5130435,25.4065217 23.3717391,25.2652174 23.2304348,25.2652174 C23.1456522,25.2652174 23.0891304,25.2934783 23.0326087,25.35 L22.6652174,25.7173913 L23.0326087,25.7173913 L23.0326087,25.7173913 L23.4847826,25.7173913 L24.05,25.7173913 C24.1347826,25.7173913 24.1913043,25.773913 24.1913043,25.8586957 C24.1913043,25.9434783 24.1347826,26 24.05,26 L23.2304348,26 L22.3826087,26 L22.3826087,25.7173913 L22.8065217,25.2934783 L21.1391304,25.2934783 L21.5630435,25.7173913 L21.5630435,26.423913 L20.8847826,25.8021739 C20.9413043,25.7456522 20.9978261,25.6608696 20.9978261,25.576087 C20.9978261,25.4065217 20.8565217,25.2934783 20.7152174,25.2934783 C20.6586957,25.2934783 20.573913,25.3217391 20.5173913,25.35 L20.5173913,25.6608696 L20.5173913,25.8304348 L21.5913043,26.8195652 L21.6478261,26.7630435 L20.9695652,27.5826087 C20.9130435,27.526087 20.8282609,27.526087 20.7717391,27.526087 C20.6021739,27.5543478 20.4891304,27.6956522 20.5173913,27.8369565 C20.5173913,27.8934783 20.5456522,27.95 20.573913,28.0065217 C20.6869565,28.0065217 20.8282609,27.9782609 21.0543478,27.95 L21.8173913,27.0456522 C21.9304348,27.0173913 22.0152174,26.9608696 22.1282609,26.9326087 L22.4391304,27.2152174 C22.3826087,27.2434783 22.326087,27.2717391 22.2695652,27.3 C22.1847826,27.2434783 22.0717391,27.2152174 21.9869565,27.2434783 C21.8456522,27.3 21.7608696,27.4695652 21.8173913,27.6108696 C21.8456522,27.6673913 21.873913,27.6956522 21.9021739,27.723913 C21.9021739,27.723913 22.0152174,27.6956522 22.1282609,27.6391304 C22.2413043,27.5826087 22.3543478,27.5543478 22.3543478,27.5543478 L22.3543478,27.5543478 C22.4956522,27.4978261 22.6086957,27.4413043 22.7217391,27.3847826 L22.7217391,27.0456522 L22.7217391,26.6217391 C22.9195652,26.5086957 23.0891304,26.3956522 23.2304348,26.2543478 L23.5130435,26.5086957 C23.4565217,26.5652174 23.4,26.5934783 23.3152174,26.65 C23.2304348,26.5934783 23.1173913,26.5934783 23.0326087,26.65 C22.976087,26.6782609 22.9195652,26.7630435 22.8913043,26.8195652 L22.8913043,26.9326087 C22.8913043,26.9608696 22.9195652,27.0173913 22.9195652,27.0456522 C22.9478261,27.1021739 23.0043478,27.1304348 23.0608696,27.1586957 C23.2021739,27.073913 23.3152174,26.9891304 23.4565217,26.9043478 C23.5413043,26.8478261 23.6543478,26.7630435 23.7391304,26.6782609 C23.7673913,26.65 23.7956522,26.6217391 23.823913,26.5934783 L23.823913,26.3108696 L23.823913,26.226087 L24.0217391,26.226087 C24.2195652,26.226087 24.3608696,26.0847826 24.3608696,25.8869565 C24.3608696,25.7173913 24.2195652,25.5478261 24.0217391,25.5478261 L24.0217391,25.5478261 Z M21.9304348,26.0847826 L21.6478261,25.8021739 L22.2130435,25.8021739 L21.9304348,26.0847826 Z" id="Shape" fill="#000000"></path>
                <path d="M19.0478261,19.1326087 C19.076087,19.076087 19.076087,19.0478261 19.076087,18.9913043 C19.076087,18.7934783 18.9347826,18.6521739 18.7369565,18.6521739 L17.4652174,18.6521739 C17.4652174,18.5108696 17.323913,18.3695652 17.1826087,18.3695652 C17.0978261,18.3695652 17.0413043,18.3978261 16.9847826,18.4543478 L16.6173913,18.8217391 L16.9565217,18.8217391 L16.9565217,18.8217391 L17.4086957,18.8217391 L18.7652174,18.8217391 C18.85,18.8217391 18.9065217,18.8782609 18.9065217,18.9630435 C18.9065217,19.0478261 18.85,19.1043478 18.7652174,19.1043478 L17.8891304,19.1043478 L17.8891304,19.1043478 L16.3065217,19.1043478 L16.3065217,18.7652174 L16.7304348,18.3413043 L15.0630435,18.3413043 L15.4869565,18.7652174 L15.4869565,19.3869565 L14.8086957,18.85 C14.8652174,18.7934783 14.8934783,18.7086957 14.8934783,18.6521739 C14.8934783,18.4826087 14.7521739,18.3695652 14.6108696,18.3695652 C14.526087,18.3695652 14.4695652,18.3978261 14.4130435,18.426087 L14.4130435,18.85 L14.4130435,18.9347826 L15.4304348,19.7543478 L14.95,19.8956522 C14.9217391,19.7826087 14.8086957,19.6978261 14.6673913,19.6978261 C14.4978261,19.6978261 14.3847826,19.8391304 14.3847826,19.9804348 C14.3847826,20.0652174 14.4130435,20.1217391 14.4413043,20.1782609 L14.8934783,20.1782609 L15.0347826,20.1782609 L17.6347826,19.3586957 L17.6347826,19.7826087 L17.2956522,19.8956522 C17.2673913,19.7826087 17.1543478,19.6978261 17.0130435,19.6978261 C16.8434783,19.6978261 16.7304348,19.8391304 16.7304348,19.9804348 C16.7304348,20.0652174 16.7586957,20.1217391 16.7869565,20.1782609 L17.2391304,20.1782609 L17.3804348,20.1782609 L18.0304348,19.9804348 L18.3413043,19.8956522 L18.0869565,19.6695652 L17.9173913,19.5 L19.076087,19.5 L19.076087,19.8108696 C19.0195652,19.7543478 18.9347826,19.6978261 18.85,19.6978261 C18.6804348,19.6978261 18.5673913,19.8391304 18.5673913,19.9804348 C18.5673913,20.0652174 18.5956522,20.1217391 18.623913,20.1782609 L19.076087,20.1782609 L19.3586957,20.1782609 L19.3586957,19.5 L19.3586957,19.1326087 L19.0478261,19.1326087 Z M15.8543478,19.1608696 L15.5717391,18.8782609 L16.1369565,18.8782609 L15.8543478,19.1608696 Z" id="Shape" fill="#000000"></path>
                <path d="M19.0478261,17.126087 C19.076087,17.0695652 19.076087,17.0413043 19.076087,16.9847826 C19.076087,16.7869565 18.9347826,16.6456522 18.7369565,16.6456522 L17.4652174,16.6456522 C17.4652174,16.5043478 17.323913,16.3630435 17.1826087,16.3630435 C17.0978261,16.3630435 17.0413043,16.3913043 16.9847826,16.4478261 L16.6173913,16.8152174 L16.9565217,16.8152174 L16.9565217,16.8152174 L17.3804348,16.8152174 L18.7369565,16.8152174 C18.8217391,16.8152174 18.8782609,16.8717391 18.8782609,16.9565217 C18.8782609,17.0413043 18.8217391,17.0978261 18.7369565,17.0978261 L17.8608696,17.0978261 L16.2782609,17.0978261 L16.2782609,16.7586957 L16.7021739,16.3347826 L15.0347826,16.3347826 L15.4586957,16.7586957 L15.4586957,17.3804348 L14.7804348,16.8434783 C14.8369565,16.7869565 14.8652174,16.7021739 14.8652174,16.6456522 C14.8652174,16.476087 14.723913,16.3630435 14.5826087,16.3630435 C14.4978261,16.3630435 14.4413043,16.3913043 14.3847826,16.4195652 L14.3847826,16.8434783 L14.3847826,16.9282609 L15.4021739,17.7478261 L14.9217391,17.8891304 C14.8934783,17.776087 14.7804348,17.6913043 14.6391304,17.6913043 C14.4695652,17.6913043 14.3565217,17.8326087 14.3565217,17.973913 C14.3565217,18.0304348 14.3847826,18.1152174 14.4130435,18.1717391 L14.8652174,18.1717391 L15.0065217,18.1717391 L17.6065217,17.3521739 L17.6065217,17.776087 L17.2673913,17.8891304 C17.2391304,17.776087 17.126087,17.6913043 16.9847826,17.6913043 C16.8152174,17.6913043 16.7021739,17.8326087 16.7021739,17.973913 C16.7021739,18.0304348 16.7304348,18.1152174 16.7586957,18.1717391 L17.2391304,18.1717391 L17.3804348,18.1717391 L18.0304348,17.973913 L18.3413043,17.8608696 L18.0869565,17.6347826 L17.9173913,17.4652174 L19.076087,17.4652174 L19.076087,17.776087 C19.0195652,17.7195652 18.9347826,17.6630435 18.85,17.6630435 C18.6804348,17.6630435 18.5673913,17.8043478 18.5673913,17.9456522 C18.5673913,18.0021739 18.5956522,18.0869565 18.623913,18.1434783 L19.076087,18.1434783 L19.3586957,18.1434783 L19.3586957,17.4369565 L19.3586957,17.0695652 L19.0478261,17.0695652 L19.0478261,17.126087 L19.0478261,17.126087 Z M15.8543478,17.1543478 L15.5717391,16.8717391 L16.1369565,16.8717391 L15.8543478,17.1543478 Z" id="Shape" fill="#000000"></path>
                <path d="M19.0478261,15.0913043 C19.076087,15.0347826 19.076087,15.0065217 19.076087,14.95 C19.076087,14.7521739 18.9347826,14.6108696 18.7369565,14.6108696 L17.4652174,14.6108696 C17.4652174,14.4695652 17.323913,14.3282609 17.1826087,14.3282609 C17.0978261,14.3282609 17.0413043,14.3565217 16.9847826,14.4130435 L16.6173913,14.7804348 L16.9565217,14.7804348 L16.9565217,14.7804348 L17.3804348,14.7804348 L18.7369565,14.7804348 C18.8217391,14.7804348 18.8782609,14.8369565 18.8782609,14.9217391 C18.8782609,15.0065217 18.8217391,15.0630435 18.7369565,15.0630435 L18.7369565,15.0630435 L17.8608696,15.0630435 L17.8608696,15.0630435 L16.2782609,15.0630435 L16.2782609,14.723913 L16.7021739,14.3 L15.0347826,14.3 L15.4586957,14.723913 L15.4586957,15.3456522 L14.7804348,14.8086957 C14.8369565,14.7521739 14.8652174,14.6673913 14.8652174,14.6108696 C14.8652174,14.4413043 14.723913,14.3282609 14.5826087,14.3282609 C14.4978261,14.3282609 14.4413043,14.3565217 14.3847826,14.3847826 L14.3847826,14.8086957 L14.3847826,14.8934783 L15.4021739,15.7130435 L14.9217391,15.8543478 C14.8934783,15.7413043 14.7804348,15.6565217 14.6391304,15.6565217 C14.4695652,15.6565217 14.3565217,15.7978261 14.3565217,15.9391304 C14.3565217,16.023913 14.3847826,16.0804348 14.4130435,16.1369565 L14.8652174,16.1369565 L15.0065217,16.1369565 L17.6065217,15.3173913 L17.6065217,15.7413043 L17.2673913,15.8543478 C17.2391304,15.7413043 17.126087,15.6565217 16.9847826,15.6565217 C16.8152174,15.6565217 16.7021739,15.7978261 16.7021739,15.9391304 C16.7021739,16.023913 16.7304348,16.0804348 16.7586957,16.1369565 L17.2108696,16.1369565 L17.3521739,16.1369565 L18.0021739,15.9391304 L18.3130435,15.8543478 L18.0586957,15.6282609 L17.8891304,15.4586957 L19.0478261,15.4586957 L19.0478261,15.7695652 C18.9913043,15.7130435 18.9065217,15.6565217 18.8217391,15.6565217 C18.6521739,15.6565217 18.5391304,15.7978261 18.5391304,15.9391304 C18.5391304,16.023913 18.5673913,16.0804348 18.5956522,16.1369565 L19.0478261,16.1369565 L19.3304348,16.1369565 L19.3304348,15.4304348 L19.3304348,15.0630435 L19.0478261,15.0913043 L19.0478261,15.0913043 Z M15.8543478,15.1478261 L15.5717391,14.8652174 L16.1369565,14.8652174 L15.8543478,15.1478261 Z" id="Shape" fill="#000000"></path>
                <path d="M27.8934783,20.2630435 L27.8934783,20.2630435 C28.0913043,20.2065217 28.176087,20.0086957 28.1195652,19.8391304 C28.0913043,19.7543478 28.0347826,19.6695652 27.95,19.6413043 C27.8652174,19.5847826 27.7804348,19.5847826 27.6956522,19.6130435 C27.6108696,19.6413043 27.526087,19.6978261 27.4978261,19.7826087 C27.4413043,19.8673913 27.4413043,19.9521739 27.4695652,20.0369565 C27.526087,20.2065217 27.723913,20.2913043 27.8934783,20.2630435" id="Shape" fill="#000000"></path>
                <path d="M26.9043478,21.026087 L26.9608696,21.3369565 L28.0913043,21.1673913 C28.1195652,21.1673913 29.2217391,21.7326087 29.2217391,21.7326087 L29.1652174,21.3369565 C29.1652174,21.3369565 28.4304348,20.9695652 28.373913,20.9413043 C28.4304348,20.8847826 29.023913,20.3478261 29.023913,20.3478261 L28.9673913,19.9521739 L28.9391304,19.9804348 C28.9391304,19.9804348 28.0630435,20.8 28.0347826,20.8282609 C28.0347826,20.8565217 26.9043478,21.026087 26.9043478,21.026087" id="Shape" fill="#000000"></path>
                <path d="M27.7804348,22.1282609 C27.7804348,22.2130435 27.8086957,22.2978261 27.8934783,22.3826087 C27.95,22.4391304 28.0347826,22.4956522 28.1478261,22.4673913 C28.2326087,22.4673913 28.3173913,22.4391304 28.4021739,22.3543478 C28.4586957,22.2978261 28.4869565,22.2130435 28.4869565,22.1 C28.4869565,22.0152174 28.4586957,21.9304348 28.373913,21.8456522 C28.3173913,21.7891304 28.2326087,21.7326087 28.1195652,21.7326087 C27.9217391,21.7608696 27.7804348,21.9304348 27.7804348,22.1282609" id="Shape" fill="#000000"></path>
                <path d="M26.9891304,22.6934783 L26.9608696,23.0043478 C26.9608696,23.0043478 27.8369565,23.1173913 27.8934783,23.1456522 C27.8934783,23.173913 27.8652174,23.4 27.8652174,23.4 L27.8652174,23.5413043 C27.8652174,23.6826087 27.8934783,23.823913 27.9782609,23.9369565 C28.0630435,24.05 28.2043478,24.1347826 28.4021739,24.1630435 C28.7978261,24.2195652 29.0804348,24.0217391 29.1369565,23.626087 L29.2217391,23.0043478 L26.9891304,22.6934783 L26.9891304,22.6934783 Z M28.7978261,23.2586957 C28.7978261,23.2869565 28.7695652,23.5695652 28.7695652,23.5695652 C28.7413043,23.8521739 28.5152174,23.8521739 28.4304348,23.823913 C28.2608696,23.7956522 28.1478261,23.6826087 28.1478261,23.5413043 L28.1478261,23.4847826 C28.1478261,23.4847826 28.176087,23.2586957 28.176087,23.2021739 C28.2326087,23.173913 28.7695652,23.2304348 28.7978261,23.2586957 L28.7978261,23.2586957 Z" id="Shape" fill="#000000"></path>
                <path d="M26.7913043,23.9652174 L26.423913,25.0391304 L26.7347826,25.1521739 C26.7347826,25.1521739 26.9891304,24.3891304 26.9891304,24.3608696 C27.0173913,24.3891304 27.526087,24.5304348 27.5826087,24.5586957 C27.5543478,24.6152174 27.3282609,25.2934783 27.3282609,25.2934783 L27.6391304,25.4065217 C27.6391304,25.4065217 27.8652174,24.7 27.8934783,24.6717391 C27.9217391,24.7 28.4304348,24.8413043 28.4586957,24.8695652 C28.4304348,24.926087 28.2043478,25.6326087 28.2043478,25.6326087 L28.5152174,25.7456522 L28.8826087,24.6717391 L26.7913043,23.9652174 L26.7913043,23.9652174 Z" id="Shape" fill="#000000"></path>
                <path d="M26.3673913,25.2369565 L26.226087,25.4630435 C26.226087,25.4630435 27.4695652,26.2543478 27.5826087,26.3391304 C27.4413043,26.3391304 25.576087,26.5086957 25.576087,26.5086957 L25.4347826,26.7347826 L27.3,27.9217391 L27.4695652,27.6673913 C27.4695652,27.6673913 26.226087,26.876087 26.1130435,26.7913043 C26.2543478,26.7913043 28.1478261,26.5934783 28.1478261,26.5934783 L28.2891304,26.3673913 L26.3673913,25.2369565 L26.3673913,25.2369565 Z" id="Shape" fill="#000000"></path>
                <path d="M25.6326087,27.8934783 C25.4065217,27.9217391 25.2086957,27.9782609 25.0673913,27.8369565 C25.0108696,27.7804348 24.9543478,27.6108696 25.0956522,27.4695652 C25.2369565,27.3282609 25.4347826,27.3 25.6608696,27.3282609 L25.7456522,27.3282609 L25.4065217,26.9891304 L25.4065217,26.9891304 C25.1804348,27.0173913 25.0108696,27.073913 24.8695652,27.2434783 C24.7565217,27.3565217 24.7,27.4978261 24.7,27.6391304 C24.7,27.8086957 24.7565217,27.95 24.8978261,28.0913043 C25.1804348,28.373913 25.4913043,28.3173913 25.773913,28.2608696 C25.9717391,28.2043478 26.1413043,28.176087 26.2826087,28.2891304 C26.3108696,28.3456522 26.3391304,28.373913 26.3391304,28.4304348 C26.3391304,28.5152174 26.3108696,28.5717391 26.226087,28.6565217 C26.1130435,28.7695652 25.9717391,28.826087 25.773913,28.7978261 L25.7173913,28.7978261 L26.0282609,29.1086957 L26.0282609,29.1086957 C26.1978261,29.0804348 26.3391304,29.023913 26.4521739,28.9108696 C26.5934783,28.7695652 26.65,28.6282609 26.65,28.4869565 C26.65,28.3456522 26.5934783,28.176087 26.4521739,28.0630435 C26.1978261,27.7804348 25.8869565,27.8369565 25.6326087,27.8934783" id="Shape" fill="#000000"></path>
                <path d="M24.276087,27.7804348 L23.3434783,28.4021739 L23.5130435,28.6847826 C23.5130435,28.6847826 24.1630435,28.2326087 24.2195652,28.2043478 C24.2478261,28.2326087 24.5304348,28.6847826 24.5586957,28.7130435 C24.5304348,28.7413043 23.9086957,29.1652174 23.9086957,29.1652174 L24.0782609,29.4478261 C24.0782609,29.4478261 24.7,29.023913 24.7282609,29.023913 C24.7565217,29.0521739 25.0391304,29.476087 25.0673913,29.5326087 C25.0391304,29.5608696 24.3891304,29.9847826 24.3891304,29.9847826 L24.5586957,30.2673913 L25.4913043,29.6456522 L24.276087,27.7804348 L24.276087,27.7804348 Z" id="Shape" fill="#000000"></path>
                <path d="M16.1086957,29.25 C16.0804348,29.2217391 15.2608696,28.7130435 15.2326087,28.6847826 C15.2608696,28.6565217 15.7413043,27.8934783 15.7413043,27.8934783 L15.4586957,27.723913 L15.4586957,27.7521739 L14.3,29.5891304 L14.5826087,29.7586957 C14.5826087,29.7586957 15.0630435,28.9956522 15.0913043,28.9673913 C15.1195652,28.9956522 15.9391304,29.5043478 15.9673913,29.5326087 C15.9391304,29.5608696 15.4586957,30.323913 15.4586957,30.323913 L15.7413043,30.4934783 L16.9282609,28.6282609 L16.6456522,28.4586957 C16.6173913,28.4586957 16.1369565,29.1934783 16.1086957,29.25" id="Shape" fill="#000000"></path>
                <path d="M14.9782609,27.6108696 C15.0065217,27.3282609 14.8934783,27.073913 14.723913,26.876087 C14.2434783,26.3391304 13.5934783,26.4521739 13.1695652,26.8195652 C12.9152174,27.0456522 12.773913,27.3282609 12.773913,27.6108696 C12.7456522,27.8934783 12.8586957,28.1478261 13.0565217,28.373913 C13.4521739,28.826087 14.1304348,28.8543478 14.6108696,28.4304348 C14.8086957,28.2043478 14.95,27.9217391 14.9782609,27.6108696 M14.6391304,27.6108696 C14.6391304,27.8086957 14.526087,28.0347826 14.3565217,28.176087 C14.0173913,28.4869565 13.5652174,28.4869565 13.2826087,28.1478261 C13.1413043,28.0065217 13.0847826,27.8086957 13.1130435,27.6391304 C13.1130435,27.4413043 13.226087,27.2434783 13.3956522,27.073913 C13.5652174,26.9326087 13.7913043,26.8478261 13.9891304,26.8478261 C14.1869565,26.8478261 14.3565217,26.9326087 14.4695652,27.073913 C14.5826087,27.2434783 14.6391304,27.4130435 14.6391304,27.6108696" id="Shape" fill="#000000"></path>
                <path d="M13.8195652,25.773913 C13.8195652,25.773913 12.4630435,26.3956522 12.35,26.4521739 C12.4065217,26.3391304 13.2826087,24.6152174 13.2826087,24.6152174 L13.1695652,24.3608696 L13.1413043,24.3608696 L11.1630435,25.2934783 L11.3043478,25.576087 C11.3043478,25.576087 12.6608696,24.9543478 12.773913,24.8978261 C12.7173913,25.0108696 11.8413043,26.7347826 11.8413043,26.7347826 L11.9543478,26.9608696 L13.9326087,26.0282609 L13.8195652,25.773913 Z" id="Shape" fill="#000000"></path>
                <polygon id="Shape" fill="#000000" points="13.0847826 23.7673913 13.0565217 23.7956522 10.9369565 24.3043478 11.0217391 24.6434783 13.1413043 24.1065217"></polygon>
                <path d="M12.0673913,23.0608696 C11.9826087,23.0043478 11.8978261,22.976087 11.8130435,23.0043478 C11.7282609,23.0043478 11.6434783,23.0608696 11.5869565,23.1456522 C11.5304348,23.2304348 11.5021739,23.3152174 11.5304348,23.4 C11.5304348,23.4847826 11.5869565,23.5695652 11.6717391,23.626087 C11.7565217,23.6826087 11.8413043,23.7108696 11.926087,23.6826087 C12.123913,23.6543478 12.2369565,23.4847826 12.2086957,23.2869565 C12.1804348,23.173913 12.123913,23.1173913 12.0673913,23.0608696" id="Shape" fill="#000000"></path>
                <path d="M11.926087,22.2130435 C12.0673913,22.0152174 12.1804348,21.8456522 12.3782609,21.8456522 C12.4347826,21.8456522 12.4913043,21.873913 12.5478261,21.9304348 C12.6043478,21.9869565 12.6326087,22.0717391 12.6326087,22.1565217 C12.6326087,22.326087 12.5195652,22.4956522 12.3217391,22.6369565 L12.2652174,22.6934783 L12.7456522,22.6934783 L12.7456522,22.6934783 C12.8869565,22.523913 12.9434783,22.3543478 12.9434783,22.1282609 C12.9434783,21.9869565 12.8869565,21.8456522 12.8021739,21.7326087 C12.6891304,21.6195652 12.5195652,21.5630435 12.35,21.5630435 C11.9543478,21.5630435 11.7847826,21.8173913 11.6152174,22.0717391 C11.5021739,22.2413043 11.4173913,22.4108696 11.2478261,22.4108696 C11.1913043,22.4108696 11.1347826,22.3826087 11.1065217,22.3543478 C11.05,22.2978261 11.0217391,22.2130435 11.0217391,22.1282609 C11.0217391,21.9869565 11.1065217,21.8173913 11.2478261,21.7043478 L11.3043478,21.676087 L10.8804348,21.676087 L10.8804348,21.676087 C10.7673913,21.8173913 10.7108696,21.9586957 10.7108696,22.1282609 C10.7108696,22.326087 10.7673913,22.4673913 10.8804348,22.5804348 C10.9934783,22.6934783 11.1347826,22.75 11.3043478,22.75 C11.5869565,22.6934783 11.7565217,22.4391304 11.926087,22.2130435" id="Shape" fill="#000000"></path>
                <path d="M11.7847826,21.2804348 C12.0956522,21.3652174 12.4065217,21.3086957 12.6608696,21.1673913 C12.8869565,21.026087 13.0565217,20.8 13.1130435,20.5173913 C13.1695652,20.2347826 13.1413043,19.9521739 13,19.726087 C12.8586957,19.4717391 12.576087,19.273913 12.2652174,19.2173913 C11.6434783,19.0478261 11.05,19.3869565 10.9086957,19.9804348 C10.8804348,20.0652174 10.8804348,20.15 10.8804348,20.2347826 C10.8804348,20.4326087 10.9369565,20.6021739 11.0217391,20.7434783 C11.2195652,21.026087 11.473913,21.223913 11.7847826,21.2804348 M11.276087,20.0652174 C11.3326087,19.8673913 11.4456522,19.726087 11.5869565,19.6130435 C11.7565217,19.5 11.9826087,19.4717391 12.2086957,19.5282609 C12.4347826,19.5847826 12.6326087,19.726087 12.7173913,19.8956522 C12.8021739,20.0652174 12.8304348,20.2347826 12.8021739,20.4326087 C12.6891304,20.8282609 12.2934783,21.0543478 11.8413043,20.9413043 C11.4173913,20.8565217 11.1630435,20.4891304 11.276087,20.0652174" id="Shape" fill="#000000"></path>
                <path d="M30.0978261,22.2130435 C30.0978261,19.5 29.0521739,16.9565217 27.1304348,15.0347826 C26.9043478,14.8086957 26.6782609,14.6108696 26.423913,14.3847826 L26.423913,13.9891304 C26.8195652,13.9608696 27.1586957,13.6217391 27.1586957,13.226087 C27.1586957,12.8021739 26.8195652,12.4630435 26.3956522,12.4630435 L26.3391304,12.4630435 L27.073913,12.123913 L26.7913043,11.5021739 L27.8934783,8.93043478 L27.4130435,8.7326087 L26.2826087,11.3608696 L25.6891304,11.6434783 L26.0847826,12.4913043 L22.8347826,12.4913043 L17.0695652,12.4913043 L13.8195652,12.4913043 L14.2152174,11.6434783 L13.5934783,11.3608696 L12.4630435,8.7326087 L11.9826087,8.93043478 L13.0847826,11.5021739 L12.8021739,12.123913 L13.5369565,12.4630435 C13.5369565,12.4630435 13.5369565,12.4630435 13.5086957,12.4630435 C13.0847826,12.4630435 12.7456522,12.8021739 12.7456522,13.226087 C12.7456522,13.6217391 13.0565217,13.9608696 13.4521739,13.9891304 L13.4521739,14.3847826 C13.226087,14.5826087 12.9717391,14.8086957 12.7456522,15.0347826 C10.823913,16.9565217 9.77826087,19.5 9.77826087,22.2130435 C9.77826087,24.3043478 10.4,26.3108696 11.6152174,28.0347826 C12.8021739,29.7021739 14.4130435,30.973913 16.3347826,31.6804348 C16.3347826,31.6804348 16.4478261,31.7086957 16.6173913,31.7934783 C16.6456522,32.076087 16.8152174,32.3304348 17.0695652,32.4152174 C17.3521739,32.5282609 17.6630435,32.4152174 17.8326087,32.2173913 L17.8608696,32.2173913 L17.8608696,35.1 C17.8608696,36.173913 18.7652174,37.0217391 19.8956522,37.0217391 C21.026087,37.0217391 21.9304348,36.1456522 21.9304348,35.1 L21.9304348,33.1782609 L26.9043478,30.8043478 C27.073913,30.7478261 27.2152174,30.6630435 27.3565217,30.55 C27.7521739,30.1826087 27.8086957,29.6173913 27.5543478,28.8826087 C28.0065217,28.373913 28.4021739,27.8369565 28.7130435,27.2434783 C29.6173913,25.7173913 30.0978261,23.9934783 30.0978261,22.2130435 L30.0978261,22.2130435 Z M24.8130435,12.9434783 L26.2826087,13.2543478 L24.8130435,13.5652174 L24.8130435,12.9434783 Z M20.0934783,28.373913 L20.0934783,20.7434783 L25.9152174,20.7434783 L25.9152174,22.1847826 C25.9152174,23.5978261 25.6608696,24.5586957 25.2934783,25.2652174 C24.9826087,25.773913 24.6152174,26.2543478 24.1630435,26.6782609 C24.1347826,26.7065217 24.1065217,26.7347826 24.0782609,26.7630435 C23.0043478,27.7804348 21.5630435,28.3456522 20.0934783,28.373913 L20.0934783,28.373913 Z M21.8456522,28.6282609 C21.7326087,28.8826087 21.6478261,29.1652174 21.5913043,29.476087 C21.026087,29.2782609 20.4891304,29.0804348 19.9521739,28.8826087 L19.9521739,28.8826087 C20.6021739,28.9108696 21.2521739,28.7978261 21.8456522,28.6282609 L21.8456522,28.6282609 Z M20.0934783,20.4891304 L20.0934783,14.0173913 L25.0108696,14.0173913 L25.9152174,14.0173913 L25.9152174,19.1043478 L25.9152174,20.4891304 L20.0934783,20.4891304 Z M22.1282609,12.9434783 L23.5978261,13.2543478 L22.1282609,13.5652174 L22.1282609,12.9434783 Z M19.4152174,12.9434783 L20.8847826,13.2543478 L19.4152174,13.5652174 L19.4152174,12.9434783 Z M16.673913,12.9434783 L18.1434783,13.2543478 L16.673913,13.5652174 L16.673913,12.9434783 Z M14.0173913,12.9434783 L15.4869565,13.2543478 L14.0173913,13.5652174 L14.0173913,12.9434783 Z M14.0173913,19.1043478 L14.0173913,14.0173913 L14.9217391,14.0173913 L19.8391304,14.0173913 L19.8391304,20.4891304 L14.0173913,20.4891304 L14.0173913,19.1043478 Z M14.0173913,20.7434783 L19.8391304,20.7434783 L19.8391304,28.373913 C18.6521739,28.3456522 17.4934783,27.9782609 16.5043478,27.3 L16.5043478,27.3 C16.476087,27.2717391 16.4195652,27.2434783 16.3913043,27.2152174 L16.3630435,27.1869565 C16.3347826,27.1586957 16.3065217,27.1586957 16.2782609,27.1304348 C16.25,27.1021739 16.2217391,27.073913 16.1934783,27.073913 C16.1934783,27.073913 16.1934783,27.073913 16.1652174,27.0456522 C15.5434783,26.5652174 15.0065217,25.9434783 14.6108696,25.2369565 C14.2434783,24.5304348 14.0173913,23.5695652 14.0173913,22.1847826 L14.0173913,20.7434783 Z M16.7869565,31.3130435 C16.7021739,31.2847826 16.6173913,31.2565217 16.5608696,31.2282609 C14.7521739,30.55 13.1978261,29.3347826 12.0956522,27.7521739 C10.9652174,26.1413043 10.3434783,24.2195652 10.3434783,22.2130435 C10.3434783,19.6413043 11.3326087,17.2391304 13.1695652,15.4021739 C13.2826087,15.2891304 13.3956522,15.176087 13.5086957,15.0913043 L13.5086957,17.7195652 C13.1130435,17.4369565 12.6608696,17.1543478 12.6326087,17.126087 C12.6608696,17.0978261 13,16.5608696 13,16.5608696 L12.7173913,16.3913043 L12.7173913,16.4195652 L11.8130435,17.776087 L12.0956522,17.9456522 C12.0956522,17.9456522 12.4347826,17.4369565 12.4630435,17.3804348 C12.4913043,17.4086957 13.0847826,17.776087 13.5086957,18.0869565 L13.5086957,19.0195652 L11.6434783,18.1717391 L11.6434783,18.2 L11.5021739,18.4826087 L13.5086957,19.4152174 L13.5086957,20.5456522 C13.3673913,21.0826087 13.2826087,21.6478261 13.2826087,22.2413043 C13.2826087,23.4565217 13.6217391,24.5869565 14.1869565,25.576087 C14.5543478,26.2826087 15.0347826,26.7630435 15.4869565,27.1869565 C15.6847826,27.3565217 15.8826087,27.526087 16.1086957,27.6956522 C16.1369565,27.6956522 16.1369565,27.723913 16.1652174,27.723913 C16.1934783,27.7521739 16.2217391,27.7521739 16.25,27.7804348 C16.2782609,27.8086957 16.3065217,27.8086957 16.3347826,27.8369565 L16.3630435,27.8652174 C16.5326087,27.9782609 16.7021739,28.0913043 16.9,28.176087 L16.9,28.176087 C17.1543478,28.2891304 17.4934783,28.4586957 17.8891304,28.6282609 L17.4652174,29.673913 L17.2673913,29.5891304 C17.1543478,29.5326087 17.0130435,29.5891304 16.9565217,29.7021739 C16.9,29.8152174 16.9565217,29.9565217 17.0695652,30.0130435 L17.2673913,30.0978261 L16.7869565,31.3130435 Z M21.4782609,35.1282609 C21.4782609,35.326087 21.4217391,35.523913 21.3369565,35.6934783 C21.2521739,35.8347826 21.1108696,35.9195652 20.9695652,35.9195652 C20.7717391,35.9195652 20.6021739,35.8065217 20.5456522,35.6086957 C20.5456522,35.5804348 20.5173913,35.4956522 20.4891304,35.3543478 C20.5456522,35.3826087 20.6021739,35.3826087 20.6586957,35.3826087 C20.9130435,35.3826087 21.1108696,35.1847826 21.1108696,34.9586957 C21.1108696,34.7043478 20.9130435,34.5347826 20.6586957,34.5347826 C20.5173913,34.5347826 20.4043478,34.5913043 20.3195652,34.676087 C20.1782609,34.1108696 20.0369565,33.4891304 20.0369565,33.4891304 L19.9521739,33.4891304 L19.8391304,33.4891304 C19.8391304,33.4891304 19.6978261,34.1108696 19.5565217,34.676087 C19.4717391,34.5913043 19.3586957,34.5347826 19.2456522,34.5347826 C18.9913043,34.5347826 18.8217391,34.7326087 18.8217391,34.9586957 C18.8217391,35.2130435 19.0195652,35.3826087 19.2456522,35.3826087 C19.3021739,35.3826087 19.3586957,35.3826087 19.4152174,35.3543478 C19.3869565,35.4673913 19.3586957,35.5804348 19.3586957,35.6086957 C19.3021739,35.7782609 19.1326087,35.9195652 18.9347826,35.9195652 C18.7652174,35.9195652 18.623913,35.8347826 18.5391304,35.6934783 C18.4543478,35.523913 18.426087,35.326087 18.426087,35.1282609 L18.426087,32.4152174 C19.3304348,32.6978261 20.4608696,33.0369565 21.5065217,33.2630435 L21.4782609,35.1282609 L21.4782609,35.1282609 Z M21.7043478,32.7543478 C20.1217391,32.4152174 18.2847826,31.8217391 17.2108696,31.4543478 C17.323913,31.2 17.4934783,30.7478261 17.6913043,30.2673913 L17.973913,30.3804348 L17.973913,30.4369565 C17.973913,30.8326087 18.3130435,31.1717391 18.7086957,31.1717391 C19.1043478,31.1717391 19.4434783,30.8326087 19.4434783,30.4369565 C19.4434783,30.0413043 19.1043478,29.7021739 18.7086957,29.7021739 C18.4826087,29.7021739 18.3130435,29.7869565 18.1717391,29.9565217 L17.8608696,29.8152174 C18.0304348,29.3913043 18.1717391,28.9956522 18.2847826,28.7695652 C19.3586957,29.2217391 20.7434783,29.7586957 22.0717391,30.1826087 C23.4847826,30.6065217 24.6152174,30.8608696 25.4630435,30.9456522 C23.9652174,31.6804348 21.8173913,32.6978261 21.7043478,32.7543478 L21.7043478,32.7543478 Z M27.0456522,30.1543478 C26.9043478,30.2956522 26.5652174,30.4369565 25.8586957,30.4369565 C26.3391304,30.0978261 26.7630435,29.7304348 27.1586957,29.3065217 C27.2717391,29.7021739 27.2434783,29.9847826 27.0456522,30.1543478 L27.0456522,30.1543478 Z M25.0391304,30.3804348 C24.3608696,30.2956522 23.4282609,30.0695652 22.2130435,29.7021739 C22.1565217,29.673913 22.1,29.673913 22.0434783,29.6456522 C22.1565217,28.9391304 22.3826087,28.4869565 22.7782609,28.2608696 C23.4,27.9782609 23.9652174,27.5826087 24.473913,27.1021739 C24.926087,26.7065217 25.3782609,26.226087 25.7173913,25.5478261 C26.2826087,24.5586957 26.6217391,23.4 26.6217391,22.1847826 C26.6217391,21.6195652 26.5369565,21.026087 26.3956522,20.4891304 L26.3956522,19.4152174 L26.7065217,20.2065217 L27.0173913,20.0934783 C27.0173913,20.0934783 26.7065217,19.3304348 26.7065217,19.3021739 C26.7630435,19.273913 28.4586957,18.5956522 28.4586957,18.5956522 L28.3456522,18.2847826 L28.3173913,18.2847826 L26.423913,19.0478261 L26.423913,18.9065217 L27.6956522,17.0978261 L27.5826087,16.9 L27.5543478,16.9 L26.423913,17.1543478 L26.423913,15.0347826 C26.5369565,15.1478261 26.65,15.2326087 26.7630435,15.3456522 C28.5717391,17.1543478 29.5891304,19.5847826 29.5891304,22.1565217 C29.5891304,23.823913 29.1652174,25.4913043 28.3173913,26.9326087 C27.526087,28.373913 26.3956522,29.5326087 25.0391304,30.3804348 L25.0391304,30.3804348 Z M26.5369565,18.2565217 C26.5369565,18.2565217 26.4804348,18.3413043 26.423913,18.426087 L26.423913,18.0869565 C26.4804348,18.1717391 26.5369565,18.2565217 26.5369565,18.2565217 L26.5369565,18.2565217 Z M26.4521739,17.5217391 C26.5086957,17.5217391 27.073913,17.3804348 27.1586957,17.3521739 C27.1021739,17.4369565 26.7630435,17.9173913 26.7347826,17.9456522 C26.7065217,17.9173913 26.4804348,17.5782609 26.4521739,17.5217391 L26.4521739,17.5217391 Z" id="Shape" fill="#000000"></path>
                <path d="M27.526087,5.93478261 C27.1304348,5.34130435 26.4804348,5.08695652 26,5.08695652 C25.3217391,5.08695652 24.6152174,5.36956522 23.9369565,5.65217391 C23.173913,5.96304348 22.3826087,6.27391304 21.5913043,6.2173913 C21.676087,5.93478261 21.7891304,5.65217391 21.9304348,5.42608696 L21.45,5.2 C21.5347826,5.03043478 21.6195652,4.8326087 21.6478261,4.60652174 C21.5913043,4.57826087 20.9413043,4.35217391 19.8956522,4.35217391 C18.85,4.35217391 18.2565217,4.57826087 18.2,4.60652174 C18.2282609,4.8326087 18.2847826,5.03043478 18.3978261,5.2 L17.9173913,5.42608696 C18.0586957,5.65217391 18.1717391,5.93478261 18.2565217,6.2173913 C17.4652174,6.30217391 16.673913,5.96304348 15.9108696,5.65217391 C15.2326087,5.36956522 14.526087,5.08695652 13.8478261,5.08695652 C13.3673913,5.08695652 12.7173913,5.34130435 12.3217391,5.93478261 C12.0108696,6.41521739 11.7565217,7.31956522 12.4347826,8.76086957 L12.4347826,8.76086957 L12.4347826,8.7326087 L13.423913,8.30869565 L13.4804348,8.47826087 C13.1695652,8.61956522 12.8586957,8.98695652 13.226087,9.83478261 C14.073913,9.4673913 14.1021739,8.98695652 13.9608696,8.67608696 L14.1304348,8.61956522 L14.5543478,9.58043478 L14.9782609,10.5413043 L14.8086957,10.5978261 C14.6673913,10.2869565 14.3,9.97608696 13.4521739,10.3434783 C13.8195652,11.1913043 14.4695652,11.5304348 14.9782609,11.5304348 C15.8543478,11.5304348 16.476087,10.9934783 16.3913043,10.4565217 C16.3347826,10.0608696 15.9673913,9.91956522 15.826087,9.94782609 C15.6565217,9.97608696 15.5434783,10.173913 15.5717391,10.2869565 C15.5717391,10.3152174 15.6,10.3434783 15.6,10.3717391 L15.5717391,10.4 C15.3456522,10.3717391 15.1478261,10.2021739 15.0913043,9.97608696 C15.0347826,9.69347826 15.2326087,9.41086957 15.5152174,9.35434783 C15.6847826,9.32608696 15.8543478,9.3826087 15.9956522,9.49565217 L16.0521739,9.41086957 C15.8826087,9.32608696 15.7695652,9.18478261 15.7413043,8.98695652 C15.6565217,8.53478261 16.1652174,8.0826087 16.1934783,8.0826087 L16.1934783,8.0826087 L16.1934783,8.0826087 C16.1934783,8.0826087 16.8434783,8.30869565 16.9282609,8.76086957 C16.9565217,8.95869565 16.9,9.12826087 16.7869565,9.26956522 L16.8717391,9.32608696 C16.9282609,9.18478261 17.0695652,9.04347826 17.2673913,9.01521739 C17.55,8.95869565 17.8326087,9.15652174 17.8891304,9.43913043 C17.9456522,9.66521739 17.8043478,9.91956522 17.6065217,10.0043478 L17.5782609,9.97608696 L17.5782609,9.89130435 C17.55,9.75 17.3804348,9.63695652 17.2108696,9.66521739 C17.0695652,9.69347826 16.7869565,9.94782609 16.8717391,10.3434783 C17.0130435,11.0217391 17.5782609,11.5021739 18.2565217,11.5021739 C18.9347826,11.5021739 19.6695652,10.9369565 19.6695652,10.0891304 C18.6804348,10.0891304 18.4543478,10.5413043 18.4543478,10.9369565 L18.2565217,10.9369565 L18.2565217,9.80652174 L18.2565217,8.67608696 L18.4543478,8.67608696 C18.4543478,9.04347826 18.7086957,9.52391304 19.6695652,9.52391304 C19.6695652,8.53478261 19.2173913,8.30869565 18.8217391,8.30869565 L18.8217391,8.11086957 L19.7826087,8.11086957 L20.0934783,8.11086957 L21.0543478,8.11086957 L21.0543478,8.30869565 C20.6869565,8.30869565 20.2065217,8.56304348 20.2065217,9.52391304 C21.1956522,9.52391304 21.4217391,9.07173913 21.4217391,8.67608696 L21.6195652,8.67608696 L21.6195652,9.80652174 L21.6195652,10.9369565 L21.4782609,10.9369565 C21.4782609,10.5695652 21.223913,10.0891304 20.2630435,10.0891304 C20.2630435,10.9369565 20.9695652,11.5021739 21.676087,11.5021739 C22.3543478,11.5021739 22.9478261,11.0217391 23.0608696,10.3434783 C23.1456522,9.94782609 22.8630435,9.66521739 22.7217391,9.66521739 C22.5521739,9.63695652 22.3826087,9.75 22.3543478,9.89130435 L22.3543478,9.97608696 L22.326087,10.0043478 C22.1282609,9.89130435 21.9869565,9.66521739 22.0434783,9.43913043 C22.1,9.15652174 22.3826087,8.95869565 22.6652174,9.01521739 C22.8347826,9.04347826 22.976087,9.15652174 23.0608696,9.32608696 L23.1456522,9.26956522 C23.0326087,9.12826087 22.976087,8.95869565 23.0043478,8.76086957 C23.0891304,8.30869565 23.7391304,8.0826087 23.7391304,8.0826087 C23.7391304,8.0826087 24.276087,8.53478261 24.1913043,8.98695652 C24.1630435,9.18478261 24.0217391,9.32608696 23.8804348,9.41086957 L23.9369565,9.49565217 C24.05,9.3826087 24.2195652,9.32608696 24.4173913,9.35434783 C24.7,9.41086957 24.8978261,9.69347826 24.8413043,9.97608696 C24.7847826,10.2304348 24.5869565,10.4 24.3608696,10.4 L24.3326087,10.3717391 C24.3608696,10.3434783 24.3608696,10.3152174 24.3608696,10.2869565 C24.3891304,10.1456522 24.276087,9.97608696 24.1065217,9.94782609 C23.9652174,9.91956522 23.5978261,10.0608696 23.5413043,10.4565217 C23.4565217,10.9934783 24.1065217,11.5304348 24.9543478,11.5304348 C25.4630435,11.5304348 26.1130435,11.1913043 26.4804348,10.3434783 C25.6326087,9.97608696 25.2652174,10.2869565 25.123913,10.5978261 L24.9543478,10.5413043 L25.3782609,9.58043478 L25.8021739,8.61956522 L25.9717391,8.67608696 C25.8304348,8.98695652 25.8586957,9.4673913 26.7065217,9.83478261 C27.073913,8.98695652 26.7630435,8.61956522 26.4521739,8.47826087 L26.5086957,8.30869565 L27.4978261,8.7326087 L27.4978261,8.76086957 L27.4978261,8.76086957 C28.0913043,7.29130435 27.8369565,6.41521739 27.526087,5.93478261 M18.4543478,7.17826087 C17.973913,7.17826087 17.5782609,7.4326087 17.3521739,7.82826087 C17.0978261,7.37608696 16.5326087,7.09347826 15.9956522,7.20652174 C15.6,7.29130435 15.2608696,7.57391304 15.1195652,7.91304348 C14.8934783,7.54565217 14.4978261,7.31956522 14.0456522,7.31956522 C13.4804348,7.31956522 13,7.68695652 12.8304348,8.19565217 C12.5195652,7.37608696 12.5195652,6.69782609 12.8304348,6.2173913 C13.1413043,5.73695652 13.6782609,5.59565217 13.9043478,5.59565217 C14.4978261,5.59565217 15.1195652,5.85 15.7695652,6.10434783 C16.6173913,6.44347826 17.4934783,6.81086957 18.4543478,6.66956522 C18.4826087,6.83913043 18.5108696,6.98043478 18.5391304,7.15 C18.5108696,7.17826087 18.4826087,7.17826087 18.4543478,7.17826087 M19.9521739,4.55 C20.2065217,4.55 20.4326087,4.74782609 20.4608696,5.00217391 C20.3195652,4.88913043 20.15,4.80434783 19.9521739,4.80434783 C19.7543478,4.80434783 19.5847826,4.88913043 19.4434783,5.00217391 C19.4717391,4.74782609 19.6978261,4.55 19.9521739,4.55 M19.9521739,5.03043478 C20.2065217,5.03043478 20.4326087,5.22826087 20.4608696,5.4826087 C20.3195652,5.36956522 20.15,5.28478261 19.9521739,5.28478261 C19.7543478,5.28478261 19.5847826,5.36956522 19.4434783,5.4826087 C19.4717391,5.22826087 19.6978261,5.03043478 19.9521739,5.03043478 M19.9521739,7.88478261 C19.6695652,7.88478261 19.4434783,7.65869565 19.4434783,7.37608696 C19.4434783,7.09347826 19.6695652,6.8673913 19.9521739,6.8673913 C20.2347826,6.8673913 20.4608696,7.09347826 20.4608696,7.37608696 C20.4608696,7.65869565 20.2347826,7.88478261 19.9521739,7.88478261 M20.4326087,6.7826087 C20.2913043,6.66956522 20.1217391,6.61304348 19.9521739,6.61304348 C19.7543478,6.61304348 19.6130435,6.66956522 19.4717391,6.7826087 C19.4434783,6.72608696 19.4434783,6.66956522 19.4434783,6.61304348 C19.4434783,6.33043478 19.6695652,6.10434783 19.9521739,6.10434783 C20.2347826,6.10434783 20.4608696,6.33043478 20.4608696,6.61304348 C20.4608696,6.66956522 20.4608696,6.72608696 20.4326087,6.7826087 M20.4608696,6.07608696 C20.3195652,5.96304348 20.15,5.87826087 19.9521739,5.87826087 C19.7543478,5.87826087 19.5847826,5.96304348 19.4434783,6.07608696 L19.4434783,6.04782609 C19.4434783,5.76521739 19.6695652,5.53913043 19.9521739,5.53913043 C20.2347826,5.53913043 20.4608696,5.76521739 20.4608696,6.04782609 C20.4608696,6.04782609 20.4608696,6.04782609 20.4608696,6.07608696 M27.073913,8.19565217 C26.9043478,7.68695652 26.423913,7.31956522 25.8586957,7.31956522 C25.4065217,7.31956522 25.0108696,7.54565217 24.7847826,7.91304348 C24.6152174,7.57391304 24.3043478,7.29130435 23.9086957,7.20652174 C23.3434783,7.09347826 22.8065217,7.34782609 22.5521739,7.82826087 C22.326087,7.46086957 21.9304348,7.17826087 21.45,7.17826087 L21.3652174,7.17826087 C21.3934783,7.03695652 21.4217391,6.8673913 21.45,6.69782609 C22.4108696,6.83913043 23.2869565,6.47173913 24.1347826,6.1326087 C24.7847826,5.87826087 25.4065217,5.62391304 26,5.62391304 C26.226087,5.62391304 26.7630435,5.76521739 27.073913,6.24565217 C27.3847826,6.69782609 27.3847826,7.37608696 27.073913,8.19565217" id="Shape" fill="#000000"></path>
                <g id="Group" transform="translate(38.717391, 10.456522)" fill="#000000">
                    <polygon id="Shape" points="2.43043478 0.536956522 2.43043478 7.63043478 11.1347826 7.63043478 11.1347826 0.536956522 13.3391304 0.536956522 13.3391304 17.0413043 11.1347826 17.0413043 11.1347826 9.49565217 2.43043478 9.49565217 2.43043478 17.0413043 0.226086957 17.0413043 0.226086957 0.536956522"></polygon>
                    <path d="M16.0521739,8.61956522 C16.3065217,7.85652174 16.673913,7.20652174 17.1543478,6.64130435 C17.6347826,6.07608696 18.2565217,5.62391304 18.9913043,5.31304348 C19.726087,5.00217391 20.5456522,4.8326087 21.4782609,4.8326087 C22.4391304,4.8326087 23.2586957,5.00217391 23.9934783,5.31304348 C24.7,5.62391304 25.3217391,6.07608696 25.8021739,6.64130435 C26.2826087,7.20652174 26.6782609,7.85652174 26.9043478,8.61956522 C27.1586957,9.3826087 27.2717391,10.2021739 27.2717391,11.0782609 C27.2717391,11.9543478 27.1586957,12.773913 26.9043478,13.5369565 C26.65,14.3 26.2826087,14.95 25.8021739,15.5152174 C25.3217391,16.0804348 24.7,16.5043478 23.9934783,16.8434783 C23.2869565,17.1543478 22.4391304,17.323913 21.4782609,17.323913 C20.5456522,17.323913 19.6978261,17.1543478 18.9913043,16.8434783 C18.2565217,16.5326087 17.6630435,16.0804348 17.1543478,15.5152174 C16.673913,14.95 16.2782609,14.3 16.0521739,13.5369565 C15.7978261,12.773913 15.6847826,11.9543478 15.6847826,11.0782609 C15.6847826,10.2021739 15.7978261,9.3826087 16.0521739,8.61956522 Z M18.0586957,13 C18.2565217,13.5652174 18.5108696,14.0456522 18.85,14.4130435 C19.1891304,14.7804348 19.5847826,15.0913043 20.0369565,15.2891304 C20.4891304,15.4869565 20.9695652,15.6 21.4782609,15.6 C21.9869565,15.6 22.4673913,15.4869565 22.9195652,15.2891304 C23.3717391,15.0913043 23.7673913,14.8086957 24.1065217,14.4130435 C24.4456522,14.0456522 24.7,13.5652174 24.8978261,13 C25.0956522,12.4347826 25.1804348,11.7847826 25.1804348,11.0782609 C25.1804348,10.3434783 25.0956522,9.72173913 24.8978261,9.15652174 C24.7,8.59130435 24.4456522,8.11086957 24.1065217,7.74347826 C23.7673913,7.34782609 23.3717391,7.06521739 22.9195652,6.8673913 C22.4673913,6.66956522 21.9869565,6.55652174 21.4782609,6.55652174 C20.9695652,6.55652174 20.4891304,6.66956522 20.0369565,6.8673913 C19.5847826,7.06521739 19.1891304,7.34782609 18.85,7.74347826 C18.5108696,8.13913043 18.2565217,8.59130435 18.0586957,9.15652174 C17.8608696,9.72173913 17.776087,10.3717391 17.776087,11.0782609 C17.776087,11.7847826 17.8608696,12.4347826 18.0586957,13 Z" id="Shape"></path>
                    <path d="M31.1717391,5.08695652 L31.1717391,6.83913043 L31.2282609,6.83913043 C32.1326087,5.4826087 33.4043478,4.80434783 35.1,4.80434783 C35.8347826,4.80434783 36.5130435,4.94565217 37.1065217,5.25652174 C37.7,5.5673913 38.123913,6.07608696 38.3782609,6.83913043 C38.773913,6.18913043 39.3108696,5.68043478 39.9608696,5.34130435 C40.6108696,4.97391304 41.3456522,4.80434783 42.1086957,4.80434783 C42.7021739,4.80434783 43.2391304,4.86086957 43.7478261,5.00217391 C44.2282609,5.14347826 44.6521739,5.34130435 44.9913043,5.62391304 C45.3304348,5.90652174 45.6130435,6.24565217 45.8108696,6.69782609 C46.0086957,7.15 46.0934783,7.65869565 46.0934783,8.28043478 L46.0934783,17.0413043 L44.1152174,17.0413043 L44.1152174,9.21304348 C44.1152174,8.84565217 44.0869565,8.50652174 44.0304348,8.1673913 C43.973913,7.85652174 43.8608696,7.57391304 43.6913043,7.31956522 C43.5217391,7.09347826 43.2956522,6.89565217 42.9847826,6.75434783 C42.673913,6.61304348 42.3065217,6.55652174 41.826087,6.55652174 C40.8652174,6.55652174 40.1021739,6.83913043 39.5369565,7.37608696 C38.9717391,7.91304348 38.7173913,8.67608696 38.7173913,9.60869565 L38.7173913,17.0413043 L36.7391304,17.0413043 L36.7391304,9.21304348 C36.7391304,8.8173913 36.7108696,8.47826087 36.626087,8.13913043 C36.5695652,7.82826087 36.4282609,7.54565217 36.2586957,7.29130435 C36.0891304,7.06521739 35.8630435,6.8673913 35.5804348,6.72608696 C35.2978261,6.58478261 34.9304348,6.52826087 34.4782609,6.52826087 C33.9130435,6.52826087 33.4326087,6.64130435 33.0086957,6.8673913 C32.6130435,7.09347826 32.273913,7.37608696 32.0195652,7.68695652 C31.7652174,7.99782609 31.5673913,8.33695652 31.4543478,8.70434783 C31.3413043,9.04347826 31.2847826,9.32608696 31.2847826,9.58043478 L31.2847826,17.0130435 L29.3065217,17.0130435 L29.3065217,5.08695652 L31.1717391,5.08695652 Z" id="Shape"></path>
                    <path d="M57.2282609,16.2782609 C56.323913,16.9565217 55.2217391,17.2956522 53.8652174,17.2956522 C52.9043478,17.2956522 52.0847826,17.1543478 51.3782609,16.8434783 C50.6717391,16.5326087 50.0782609,16.1086957 49.5978261,15.5434783 C49.1173913,14.9782609 48.75,14.3282609 48.523913,13.5652174 C48.2978261,12.8021739 48.1565217,11.9543478 48.1282609,11.05 C48.1282609,10.1456522 48.2695652,9.29782609 48.5521739,8.56304348 C48.8347826,7.8 49.2304348,7.15 49.7108696,6.58478261 C50.2195652,6.01956522 50.8130435,5.59565217 51.4913043,5.28478261 C52.1695652,4.97391304 52.9326087,4.8326087 53.7521739,4.8326087 C54.826087,4.8326087 55.7021739,5.05869565 56.4086957,5.4826087 C57.1152174,5.93478261 57.6804348,6.47173913 58.1043478,7.15 C58.5282609,7.82826087 58.8108696,8.56304348 58.9804348,9.3826087 C59.15,10.173913 59.2065217,10.9369565 59.1782609,11.6717391 L50.2195652,11.6717391 C50.1913043,12.2086957 50.276087,12.6891304 50.4173913,13.1695652 C50.5586957,13.65 50.7847826,14.0456522 51.0956522,14.4130435 C51.4065217,14.7804348 51.8021739,15.0630435 52.2826087,15.2891304 C52.7630435,15.5152174 53.3282609,15.6 53.9782609,15.6 C54.7978261,15.6 55.5043478,15.4021739 56.0130435,15.0347826 C56.55,14.6391304 56.8891304,14.073913 57.0586957,13.2826087 L59.0086957,13.2826087 C58.6978261,14.5826087 58.1043478,15.6 57.2282609,16.2782609 Z M56.7478261,8.59130435 C56.5782609,8.1673913 56.323913,7.82826087 56.0413043,7.5173913 C55.7304348,7.20652174 55.3913043,6.98043478 54.9673913,6.81086957 C54.5717391,6.64130435 54.1195652,6.55652174 53.6108696,6.55652174 C53.1021739,6.55652174 52.65,6.64130435 52.226087,6.81086957 C51.8304348,6.98043478 51.4630435,7.23478261 51.1804348,7.54565217 C50.8978261,7.85652174 50.6434783,8.22391304 50.473913,8.61956522 C50.3043478,9.01521739 50.1913043,9.4673913 50.1630435,9.91956522 L57.0304348,9.91956522 C57.0304348,9.4673913 56.9173913,9.01521739 56.7478261,8.59130435 Z" id="Shape"></path>
                    <path d="M66.95,5.53913043 C67.2891304,4.49347826 67.7695652,3.58913043 68.4478261,2.76956522 C69.0978261,1.97826087 69.9456522,1.32826087 70.9347826,0.847826087 C71.923913,0.367391304 73.0826087,0.141304348 74.3826087,0.141304348 C75.6826087,0.141304348 76.8413043,0.367391304 77.8304348,0.847826087 C78.8195652,1.32826087 79.6391304,1.97826087 80.3173913,2.76956522 C80.9673913,3.56086957 81.476087,4.49347826 81.8152174,5.53913043 C82.1543478,6.58478261 82.323913,7.65869565 82.323913,8.78913043 C82.323913,9.91956522 82.1543478,10.9934783 81.8152174,12.0391304 C81.476087,13.0847826 80.9956522,13.9891304 80.3173913,14.8086957 C79.6673913,15.6 78.8195652,16.25 77.8304348,16.7021739 C76.8413043,17.1826087 75.6826087,17.4086957 74.3826087,17.4086957 C73.0826087,17.4086957 71.923913,17.1826087 70.9347826,16.7021739 C69.9456522,16.2217391 69.126087,15.6 68.4478261,14.8086957 C67.7978261,14.0173913 67.2891304,13.0847826 66.95,12.0391304 C66.6108696,10.9934783 66.4413043,9.91956522 66.4413043,8.78913043 C66.4413043,7.65869565 66.6108696,6.58478261 66.95,5.53913043 Z M68.9565217,11.2478261 C69.1826087,12.0673913 69.5217391,12.773913 69.973913,13.423913 C70.426087,14.073913 71.0195652,14.5826087 71.7543478,14.9782609 C72.4891304,15.373913 73.3369565,15.5717391 74.3543478,15.5717391 C75.3434783,15.5717391 76.2195652,15.373913 76.9543478,14.9782609 C77.6891304,14.5826087 78.2826087,14.073913 78.7347826,13.423913 C79.1869565,12.773913 79.526087,12.0391304 79.7521739,11.2478261 C79.9782609,10.4282609 80.0630435,9.60869565 80.0630435,8.78913043 C80.0630435,7.96956522 79.95,7.15 79.7521739,6.33043478 C79.526087,5.51086957 79.1869565,4.80434783 78.7347826,4.15434783 C78.2826087,3.50434783 77.6891304,2.99565217 76.9543478,2.6 C76.2195652,2.20434783 75.3717391,2.00652174 74.3543478,2.00652174 C73.3652174,2.00652174 72.4891304,2.20434783 71.7543478,2.6 C71.0195652,2.99565217 70.426087,3.50434783 69.973913,4.15434783 C69.5217391,4.80434783 69.1826087,5.53913043 68.9565217,6.33043478 C68.7304348,7.15 68.6456522,7.96956522 68.6456522,8.78913043 C68.6456522,9.60869565 68.7586957,10.4282609 68.9565217,11.2478261 Z" id="Shape"></path>
                    <path d="M83.1434783,6.81086957 L83.1434783,5.08695652 L85.15,5.08695652 L85.15,3.30652174 C85.15,2.34565217 85.4326087,1.61086957 85.9978261,1.10217391 C86.5630435,0.593478261 87.3826087,0.339130435 88.4565217,0.339130435 C88.6543478,0.339130435 88.8521739,0.367391304 89.0782609,0.395652174 C89.3043478,0.423913043 89.5304348,0.480434783 89.7,0.536956522 L89.7,2.26086957 C89.5304348,2.20434783 89.3326087,2.14782609 89.1347826,2.14782609 C88.9369565,2.11956522 88.7391304,2.11956522 88.5695652,2.11956522 C88.0891304,2.11956522 87.7217391,2.20434783 87.4673913,2.40217391 C87.2130435,2.6 87.0717391,2.93913043 87.0717391,3.47608696 L87.0717391,5.14347826 L89.3891304,5.14347826 L89.3891304,6.8673913 L87.0717391,6.8673913 L87.0717391,17.0978261 L85.0934783,17.0978261 L85.0934783,6.8673913 L83.1434783,6.8673913 L83.1434783,6.81086957 Z" id="Shape"></path>
                    <path d="M89.276087,6.81086957 L89.276087,5.08695652 L91.2826087,5.08695652 L91.2826087,3.30652174 C91.2826087,2.34565217 91.5652174,1.61086957 92.1304348,1.10217391 C92.6956522,0.593478261 93.5152174,0.339130435 94.5891304,0.339130435 C94.7869565,0.339130435 94.9847826,0.367391304 95.2108696,0.395652174 C95.4369565,0.423913043 95.6630435,0.480434783 95.8326087,0.536956522 L95.8326087,2.26086957 C95.6630435,2.20434783 95.4652174,2.14782609 95.2673913,2.14782609 C95.0695652,2.11956522 94.8717391,2.11956522 94.7021739,2.11956522 C94.2217391,2.11956522 93.8543478,2.20434783 93.6,2.40217391 C93.3456522,2.6 93.2043478,2.93913043 93.2043478,3.47608696 L93.2043478,5.14347826 L95.5217391,5.14347826 L95.5217391,6.8673913 L93.2608696,6.8673913 L93.2608696,17.0978261 L91.2826087,17.0978261 L91.2826087,6.8673913 L89.276087,6.8673913 L89.276087,6.81086957 Z" id="Shape"></path>
                    <path d="M97.1608696,2.93913043 L97.1608696,0.536956522 L99.1391304,0.536956522 L99.1391304,2.93913043 L97.1608696,2.93913043 Z M99.1391304,5.08695652 L99.1391304,17.0413043 L97.1608696,17.0413043 L97.1608696,5.08695652 L99.1391304,5.08695652 Z" id="Shape"></path>
                    <path d="M109.030435,7.17826087 C108.55,6.75434783 107.871739,6.55652174 107.052174,6.55652174 C106.345652,6.55652174 105.752174,6.69782609 105.271739,6.95217391 C104.791304,7.20652174 104.423913,7.57391304 104.141304,7.99782609 C103.858696,8.42173913 103.66087,8.93043478 103.519565,9.49565217 C103.406522,10.0608696 103.321739,10.626087 103.321739,11.2478261 C103.321739,11.8130435 103.378261,12.35 103.519565,12.8586957 C103.66087,13.3956522 103.858696,13.8478261 104.141304,14.2434783 C104.423913,14.6391304 104.791304,14.9782609 105.215217,15.2326087 C105.667391,15.4869565 106.204348,15.6 106.797826,15.6 C107.758696,15.6 108.521739,15.3456522 109.086957,14.8369565 C109.623913,14.3282609 109.963043,13.6217391 110.104348,12.6891304 L112.11087,12.6891304 C111.884783,14.1586957 111.347826,15.3173913 110.471739,16.1086957 C109.595652,16.9 108.380435,17.323913 106.854348,17.323913 C105.95,17.323913 105.130435,17.1826087 104.452174,16.8717391 C103.745652,16.5891304 103.152174,16.1652174 102.7,15.6282609 C102.219565,15.0913043 101.880435,14.4413043 101.626087,13.7065217 C101.4,12.9717391 101.258696,12.1521739 101.258696,11.2478261 C101.258696,10.3434783 101.371739,9.52391304 101.597826,8.7326087 C101.823913,7.94130435 102.191304,7.26304348 102.643478,6.69782609 C103.123913,6.1326087 103.68913,5.65217391 104.423913,5.34130435 C105.130435,5.00217391 105.95,4.8326087 106.91087,4.8326087 C107.58913,4.8326087 108.21087,4.9173913 108.804348,5.08695652 C109.397826,5.25652174 109.934783,5.51086957 110.386957,5.85 C110.83913,6.18913043 111.206522,6.61304348 111.517391,7.12173913 C111.8,7.63043478 111.997826,8.25217391 112.082609,8.95869565 L110.047826,8.95869565 C109.85,8.1673913 109.53913,7.57391304 109.030435,7.17826087 Z" id="Shape"></path>
                    <path d="M122.482609,16.2782609 C121.578261,16.9565217 120.476087,17.2956522 119.119565,17.2956522 C118.158696,17.2956522 117.33913,17.1543478 116.632609,16.8434783 C115.926087,16.5326087 115.332609,16.1086957 114.852174,15.5434783 C114.371739,14.9782609 114.004348,14.3282609 113.778261,13.5652174 C113.552174,12.8021739 113.41087,11.9543478 113.382609,11.05 C113.382609,10.1456522 113.523913,9.29782609 113.806522,8.56304348 C114.08913,7.8 114.484783,7.15 114.965217,6.58478261 C115.473913,6.01956522 116.067391,5.59565217 116.745652,5.28478261 C117.423913,4.97391304 118.186957,4.8326087 119.006522,4.8326087 C120.080435,4.8326087 120.956522,5.05869565 121.663043,5.4826087 C122.369565,5.93478261 122.934783,6.47173913 123.358696,7.15 C123.782609,7.82826087 124.065217,8.56304348 124.234783,9.3826087 C124.404348,10.173913 124.46087,10.9369565 124.432609,11.6717391 L115.473913,11.6717391 C115.445652,12.2086957 115.530435,12.6891304 115.671739,13.1695652 C115.813043,13.65 116.03913,14.0456522 116.35,14.4130435 C116.66087,14.7804348 117.056522,15.0630435 117.536957,15.2891304 C118.017391,15.5152174 118.582609,15.6 119.232609,15.6 C120.052174,15.6 120.758696,15.4021739 121.267391,15.0347826 C121.804348,14.6391304 122.143478,14.073913 122.313043,13.2826087 L124.263043,13.2826087 C123.952174,14.5826087 123.386957,15.6 122.482609,16.2782609 Z M122.030435,8.59130435 C121.86087,8.1673913 121.606522,7.82826087 121.323913,7.5173913 C121.013043,7.20652174 120.673913,6.98043478 120.25,6.81086957 C119.854348,6.64130435 119.402174,6.55652174 118.893478,6.55652174 C118.384783,6.55652174 117.932609,6.64130435 117.508696,6.81086957 C117.113043,6.98043478 116.745652,7.23478261 116.463043,7.54565217 C116.180435,7.85652174 115.926087,8.22391304 115.756522,8.61956522 C115.586957,9.01521739 115.473913,9.4673913 115.445652,9.91956522 L122.313043,9.91956522 C122.313043,9.4673913 122.2,9.01521739 122.030435,8.59130435 Z" id="Shape"></path>
                </g>
            </g>
        </g>
    </g>
</svg>