<?xml version="1.0" encoding="UTF-8" standalone="no"?>
<svg width="340px" height="158px" viewBox="0 0 340 158" version="1.1" xmlns="http://www.w3.org/2000/svg" xmlns:xlink="http://www.w3.org/1999/xlink">
    <!-- Generator: Sketch 47.1 (45422) - http://www.bohemiancoding.com/sketch -->
    <title>icon-colours</title>
    <desc>Created with Sketch.</desc>
    <defs></defs>
    <g id="Page-1" stroke="none" stroke-width="1" fill="none" fill-rule="evenodd">
        <g id="icon-colours" fill-rule="nonzero">
            <g id="black" transform="translate(10.000000, 0.000000)" fill="#000000">
                <g id="cross">
                    <path d="M15.8535657,12.8536492 L15.8535657,12.8536492 L10.9997007,7.9997842 L15.8535657,3.14591922 L15.8535657,3.14591922 C15.9060643,3.09342068 15.9435632,3.03242238 15.9680625,2.96742419 C16.0345607,2.78942914 15.9965617,2.58193491 15.8535657,2.43893889 L13.5606295,0.146002676 C13.4176335,0.00300665425 13.2096393,-0.0344923026 13.0321442,0.0315058614 C12.967146,0.0555051938 12.9061477,0.0935041367 12.8536492,0.14550269 L12.8536492,0.14550269 L7.9997842,4.99936766 L3.14591922,0.14550269 L3.14591922,0.14550269 C3.09342068,0.0935041367 3.03242238,0.0555051938 2.96742419,0.0315058614 C2.78942914,-0.0349922887 2.58193491,0.00300665425 2.43893889,0.146002676 L0.146002676,2.43893889 C0.00300665425,2.58193491 -0.0344923026,2.78992913 0.0315058614,2.96742419 C0.0560051799,3.03242238 0.0935041367,3.09342068 0.146002676,3.14591922 L0.146002676,3.14591922 L4.99986765,7.9997842 L0.146002676,12.8536492 L0.146002676,12.8536492 C0.0940041228,12.9061477 0.0560051799,12.967146 0.0315058614,13.0321442 C-0.0349922887,13.2096393 0.00300665425,13.4176335 0.146002676,13.5606295 L2.43893889,15.8535657 C2.58193491,15.9965617 2.78992913,16.0340607 2.96742419,15.9680625 C3.03242238,15.9435632 3.09342068,15.9060643 3.14591922,15.8535657 L3.14591922,15.8535657 L7.9997842,10.9997007 L12.8536492,15.8535657 L12.8536492,15.8535657 C12.9061477,15.9060643 12.967146,15.9435632 13.0321442,15.9680625 C13.2101393,16.0345607 13.4176335,15.9965617 13.5606295,15.8535657 L15.8535657,13.5606295 C15.9965617,13.4176335 16.0345607,13.2096393 15.9680625,13.0321442 C15.9435632,12.967146 15.9060643,12.9061477 15.8535657,12.8536492 L15.8535657,12.8536492 Z" id="Shape"></path>
                </g>
                <g id="download-button" transform="translate(61.000000, 0.000000)">
                    <path d="M14,5.647 L10.2355,5.647 L10.2355,0 L4.5885,0 L4.5885,5.647 L0.824,5.647 L7.412,12.235 L14,5.647 L14,5.647 Z M0.824,14.1175 L0.824,16 L14.0005,16 L14.0005,14.1175 L0.824,14.1175 L0.824,14.1175 Z" id="Shape"></path>
                </g>
                <g id="key" transform="translate(180.000000, 0.000000)">
                    <path d="M11,0 C8.2385,0 6,2.2385 6,5 C6,5.313 6.029,5.619 6.084,5.916 L0,12 L0,15 C0,15.5525 0.4475,16 1,16 L2,16 L2,15 L4,15 L4,13 L6,13 L6,11 L8,11 L9.2975,9.7025 C9.829,9.895 10.402,10 11,10 C13.7615,10 16,7.7615 16,5 C16,2.2385 13.7615,0 11,0 Z M12.498,5.002 C11.6695,5.002 10.998,4.3305 10.998,3.502 C10.998,2.6735 11.6695,2.002 12.498,2.002 C13.3265,2.002 13.998,2.6735 13.998,3.502 C13.998,4.3305 13.3265,5.002 12.498,5.002 Z" id="Shape"></path>
                </g>
                <g id="location" transform="translate(241.000000, 0.000000)">
                    <path d="M5,0 C2.2385,0 0,2.2385 0,5 C0,10 5,16 5,16 C5,16 10,10 10,5 C10,2.2385 7.7615,0 5,0 Z M5,8 C3.343,8 2,6.657 2,5 C2,3.343 3.343,2 5,2 C6.657,2 8,3.343 8,5 C8,6.657 6.657,8 5,8 Z" id="Shape"></path>
                </g>
                <g id="printer" transform="translate(300.000000, 0.000000)">
                    <g id="Group">
                        <polygon id="Shape" points="4.57142857 0 13.7142857 0 13.7142857 2.28571429 4.57142857 2.28571429"></polygon>
                        <path d="M17.1428571,3.42857143 L1.14285714,3.42857143 C0.514285714,3.42857143 0,3.94285714 0,4.57142857 L0,10.2857143 C0,10.9142857 0.514285714,11.4285714 1.14285714,11.4285714 L4.57142857,11.4285714 L4.57142857,16 L13.7142857,16 L13.7142857,11.4285714 L17.1428571,11.4285714 C17.7714286,11.4285714 18.2857143,10.9142857 18.2857143,10.2857143 L18.2857143,4.57142857 C18.2857143,3.94285714 17.7714286,3.42857143 17.1428571,3.42857143 Z M2.28571429,6.85714286 C1.65428571,6.85714286 1.14285714,6.34571429 1.14285714,5.71428571 C1.14285714,5.08285714 1.65428571,4.57142857 2.28571429,4.57142857 C2.91714286,4.57142857 3.42857143,5.08285714 3.42857143,5.71428571 C3.42857143,6.34571429 2.91714286,6.85714286 2.28571429,6.85714286 Z M12.5714286,14.8571429 L5.71428571,14.8571429 L5.71428571,9.14285714 L12.5714286,9.14285714 L12.5714286,14.8571429 Z" id="Shape"></path>
                    </g>
                </g>
                <path d="M139.594904,9.0399658 L137.937845,9.0399658 L137.937845,15.0057094 C137.937845,15.4481687 137.745812,16 136.946707,16 L132.982156,16 L132.982156,10.0342564 L129.017604,10.0342564 L129.017604,16 L125.053053,16 C124.253948,16 124.061915,15.4481687 124.061915,15.0057094 L124.061915,9.0399658 L122.404856,9.0399658 C121.812032,9.0399658 121.939022,8.7180642 122.345388,8.2961122 L130.298031,0.3100944 C130.491302,0.109372 130.745282,0.0099429 130.99988,0 C131.254479,0.0099429 131.508458,0.1081291 131.70173,0.3100944 L139.653753,8.2954907 C140.061358,8.7180642 140.187728,9.0399658 139.595523,9.0399658 L139.594904,9.0399658 Z" id="Shape"></path>
            </g>
            <g id="blue" transform="translate(10.000000, 42.000000)" fill="#0059A5">
                <g id="cross">
                    <path d="M15.8535657,12.8536492 L15.8535657,12.8536492 L10.9997007,7.9997842 L15.8535657,3.14591922 L15.8535657,3.14591922 C15.9060643,3.09342068 15.9435632,3.03242238 15.9680625,2.96742419 C16.0345607,2.78942914 15.9965617,2.58193491 15.8535657,2.43893889 L13.5606295,0.146002676 C13.4176335,0.00300665425 13.2096393,-0.0344923026 13.0321442,0.0315058614 C12.967146,0.0555051938 12.9061477,0.0935041367 12.8536492,0.14550269 L12.8536492,0.14550269 L7.9997842,4.99936766 L3.14591922,0.14550269 L3.14591922,0.14550269 C3.09342068,0.0935041367 3.03242238,0.0555051938 2.96742419,0.0315058614 C2.78942914,-0.0349922887 2.58193491,0.00300665425 2.43893889,0.146002676 L0.146002676,2.43893889 C0.00300665425,2.58193491 -0.0344923026,2.78992913 0.0315058614,2.96742419 C0.0560051799,3.03242238 0.0935041367,3.09342068 0.146002676,3.14591922 L0.146002676,3.14591922 L4.99986765,7.9997842 L0.146002676,12.8536492 L0.146002676,12.8536492 C0.0940041228,12.9061477 0.0560051799,12.967146 0.0315058614,13.0321442 C-0.0349922887,13.2096393 0.00300665425,13.4176335 0.146002676,13.5606295 L2.43893889,15.8535657 C2.58193491,15.9965617 2.78992913,16.0340607 2.96742419,15.9680625 C3.03242238,15.9435632 3.09342068,15.9060643 3.14591922,15.8535657 L3.14591922,15.8535657 L7.9997842,10.9997007 L12.8536492,15.8535657 L12.8536492,15.8535657 C12.9061477,15.9060643 12.967146,15.9435632 13.0321442,15.9680625 C13.2101393,16.0345607 13.4176335,15.9965617 13.5606295,15.8535657 L15.8535657,13.5606295 C15.9965617,13.4176335 16.0345607,13.2096393 15.9680625,13.0321442 C15.9435632,12.967146 15.9060643,12.9061477 15.8535657,12.8536492 L15.8535657,12.8536492 Z" id="Shape"></path>
                </g>
                <g id="download-button" transform="translate(61.000000, 0.000000)">
                    <path d="M14,5.647 L10.2355,5.647 L10.2355,0 L4.5885,0 L4.5885,5.647 L0.824,5.647 L7.412,12.235 L14,5.647 L14,5.647 Z M0.824,14.1175 L0.824,16 L14.0005,16 L14.0005,14.1175 L0.824,14.1175 L0.824,14.1175 Z" id="Shape"></path>
                </g>
                <g id="key" transform="translate(180.000000, 0.000000)">
                    <path d="M11,0 C8.2385,0 6,2.2385 6,5 C6,5.313 6.029,5.619 6.084,5.916 L0,12 L0,15 C0,15.5525 0.4475,16 1,16 L2,16 L2,15 L4,15 L4,13 L6,13 L6,11 L8,11 L9.2975,9.7025 C9.829,9.895 10.402,10 11,10 C13.7615,10 16,7.7615 16,5 C16,2.2385 13.7615,0 11,0 Z M12.498,5.002 C11.6695,5.002 10.998,4.3305 10.998,3.502 C10.998,2.6735 11.6695,2.002 12.498,2.002 C13.3265,2.002 13.998,2.6735 13.998,3.502 C13.998,4.3305 13.3265,5.002 12.498,5.002 Z" id="Shape"></path>
                </g>
                <g id="location" transform="translate(241.000000, 0.000000)">
                    <path d="M5,0 C2.2385,0 0,2.2385 0,5 C0,10 5,16 5,16 C5,16 10,10 10,5 C10,2.2385 7.7615,0 5,0 Z M5,8 C3.343,8 2,6.657 2,5 C2,3.343 3.343,2 5,2 C6.657,2 8,3.343 8,5 C8,6.657 6.657,8 5,8 Z" id="Shape"></path>
                </g>
                <g id="printer" transform="translate(300.000000, 0.000000)">
                    <g id="Group">
                        <polygon id="Shape" points="4.57142857 0 13.7142857 0 13.7142857 2.28571429 4.57142857 2.28571429"></polygon>
                        <path d="M17.1428571,3.42857143 L1.14285714,3.42857143 C0.514285714,3.42857143 0,3.94285714 0,4.57142857 L0,10.2857143 C0,10.9142857 0.514285714,11.4285714 1.14285714,11.4285714 L4.57142857,11.4285714 L4.57142857,16 L13.7142857,16 L13.7142857,11.4285714 L17.1428571,11.4285714 C17.7714286,11.4285714 18.2857143,10.9142857 18.2857143,10.2857143 L18.2857143,4.57142857 C18.2857143,3.94285714 17.7714286,3.42857143 17.1428571,3.42857143 Z M2.28571429,6.85714286 C1.65428571,6.85714286 1.14285714,6.34571429 1.14285714,5.71428571 C1.14285714,5.08285714 1.65428571,4.57142857 2.28571429,4.57142857 C2.91714286,4.57142857 3.42857143,5.08285714 3.42857143,5.71428571 C3.42857143,6.34571429 2.91714286,6.85714286 2.28571429,6.85714286 Z M12.5714286,14.8571429 L5.71428571,14.8571429 L5.71428571,9.14285714 L12.5714286,9.14285714 L12.5714286,14.8571429 Z" id="Shape"></path>
                    </g>
                </g>
                <path d="M139.594904,9.0399658 L137.937845,9.0399658 L137.937845,15.0057094 C137.937845,15.4481687 137.745812,16 136.946707,16 L132.982156,16 L132.982156,10.0342564 L129.017604,10.0342564 L129.017604,16 L125.053053,16 C124.253948,16 124.061915,15.4481687 124.061915,15.0057094 L124.061915,9.0399658 L122.404856,9.0399658 C121.812032,9.0399658 121.939022,8.7180642 122.345388,8.2961122 L130.298031,0.3100944 C130.491302,0.109372 130.745282,0.0099429 130.99988,0 C131.254479,0.0099429 131.508458,0.1081291 131.70173,0.3100944 L139.653753,8.2954907 C140.061358,8.7180642 140.187728,9.0399658 139.595523,9.0399658 L139.594904,9.0399658 Z" id="Shape-Copy"></path>
            </g>
            <g id="black-bg" transform="translate(0.000000, 74.000000)">
                <rect id="Rectangle" fill="#000000" x="0" y="0" width="340" height="36"></rect>
                <g id="cross" transform="translate(10.000000, 10.000000)" fill="#FFFFFF">
                    <path d="M15.8535657,12.8536492 L15.8535657,12.8536492 L10.9997007,7.9997842 L15.8535657,3.14591922 L15.8535657,3.14591922 C15.9060643,3.09342068 15.9435632,3.03242238 15.9680625,2.96742419 C16.0345607,2.78942914 15.9965617,2.58193491 15.8535657,2.43893889 L13.5606295,0.146002676 C13.4176335,0.00300665425 13.2096393,-0.0344923026 13.0321442,0.0315058614 C12.967146,0.0555051938 12.9061477,0.0935041367 12.8536492,0.14550269 L12.8536492,0.14550269 L7.9997842,4.99936766 L3.14591922,0.14550269 L3.14591922,0.14550269 C3.09342068,0.0935041367 3.03242238,0.0555051938 2.96742419,0.0315058614 C2.78942914,-0.0349922887 2.58193491,0.00300665425 2.43893889,0.146002676 L0.146002676,2.43893889 C0.00300665425,2.58193491 -0.0344923026,2.78992913 0.0315058614,2.96742419 C0.0560051799,3.03242238 0.0935041367,3.09342068 0.146002676,3.14591922 L0.146002676,3.14591922 L4.99986765,7.9997842 L0.146002676,12.8536492 L0.146002676,12.8536492 C0.0940041228,12.9061477 0.0560051799,12.967146 0.0315058614,13.0321442 C-0.0349922887,13.2096393 0.00300665425,13.4176335 0.146002676,13.5606295 L2.43893889,15.8535657 C2.58193491,15.9965617 2.78992913,16.0340607 2.96742419,15.9680625 C3.03242238,15.9435632 3.09342068,15.9060643 3.14591922,15.8535657 L3.14591922,15.8535657 L7.9997842,10.9997007 L12.8536492,15.8535657 L12.8536492,15.8535657 C12.9061477,15.9060643 12.967146,15.9435632 13.0321442,15.9680625 C13.2101393,16.0345607 13.4176335,15.9965617 13.5606295,15.8535657 L15.8535657,13.5606295 C15.9965617,13.4176335 16.0345607,13.2096393 15.9680625,13.0321442 C15.9435632,12.967146 15.9060643,12.9061477 15.8535657,12.8536492 L15.8535657,12.8536492 Z" id="Shape"></path>
                </g>
                <g id="download-button" transform="translate(71.000000, 10.000000)" fill="#FFFFFF">
                    <path d="M14,5.647 L10.2355,5.647 L10.2355,0 L4.5885,0 L4.5885,5.647 L0.824,5.647 L7.412,12.235 L14,5.647 L14,5.647 Z M0.824,14.1175 L0.824,16 L14.0005,16 L14.0005,14.1175 L0.824,14.1175 L0.824,14.1175 Z" id="Shape"></path>
                </g>
                <g id="key" transform="translate(190.000000, 10.000000)" fill="#FFFFFF">
                    <path d="M11,0 C8.2385,0 6,2.2385 6,5 C6,5.313 6.029,5.619 6.084,5.916 L0,12 L0,15 C0,15.5525 0.4475,16 1,16 L2,16 L2,15 L4,15 L4,13 L6,13 L6,11 L8,11 L9.2975,9.7025 C9.829,9.895 10.402,10 11,10 C13.7615,10 16,7.7615 16,5 C16,2.2385 13.7615,0 11,0 Z M12.498,5.002 C11.6695,5.002 10.998,4.3305 10.998,3.502 C10.998,2.6735 11.6695,2.002 12.498,2.002 C13.3265,2.002 13.998,2.6735 13.998,3.502 C13.998,4.3305 13.3265,5.002 12.498,5.002 Z" id="Shape"></path>
                </g>
                <g id="location" transform="translate(251.000000, 10.000000)" fill="#FFFFFF">
                    <path d="M5,0 C2.2385,0 0,2.2385 0,5 C0,10 5,16 5,16 C5,16 10,10 10,5 C10,2.2385 7.7615,0 5,0 Z M5,8 C3.343,8 2,6.657 2,5 C2,3.343 3.343,2 5,2 C6.657,2 8,3.343 8,5 C8,6.657 6.657,8 5,8 Z" id="Shape"></path>
                </g>
                <g id="printer" transform="translate(310.000000, 10.000000)" fill="#FFFFFF">
                    <g id="Group">
                        <polygon id="Shape" points="4.57142857 0 13.7142857 0 13.7142857 2.28571429 4.57142857 2.28571429"></polygon>
                        <path d="M17.1428571,3.42857143 L1.14285714,3.42857143 C0.514285714,3.42857143 0,3.94285714 0,4.57142857 L0,10.2857143 C0,10.9142857 0.514285714,11.4285714 1.14285714,11.4285714 L4.57142857,11.4285714 L4.57142857,16 L13.7142857,16 L13.7142857,11.4285714 L17.1428571,11.4285714 C17.7714286,11.4285714 18.2857143,10.9142857 18.2857143,10.2857143 L18.2857143,4.57142857 C18.2857143,3.94285714 17.7714286,3.42857143 17.1428571,3.42857143 Z M2.28571429,6.85714286 C1.65428571,6.85714286 1.14285714,6.34571429 1.14285714,5.71428571 C1.14285714,5.08285714 1.65428571,4.57142857 2.28571429,4.57142857 C2.91714286,4.57142857 3.42857143,5.08285714 3.42857143,5.71428571 C3.42857143,6.34571429 2.91714286,6.85714286 2.28571429,6.85714286 Z M12.5714286,14.8571429 L5.71428571,14.8571429 L5.71428571,9.14285714 L12.5714286,9.14285714 L12.5714286,14.8571429 Z" id="Shape"></path>
                    </g>
                </g>
                <path d="M149.594904,19.039966 L147.937845,19.039966 L147.937845,25.005709 C147.937845,25.448169 147.745812,26 146.946707,26 L142.982156,26 L142.982156,20.034256 L139.017604,20.034256 L139.017604,26 L135.053053,26 C134.253948,26 134.061915,25.448169 134.061915,25.005709 L134.061915,19.039966 L132.404856,19.039966 C131.812032,19.039966 131.939022,18.718064 132.345388,18.296112 L140.298031,10.3100944 C140.491302,10.109372 140.745282,10.0099429 140.99988,10 C141.254479,10.0099429 141.508458,10.1081291 141.70173,10.3100944 L149.653753,18.295491 C150.061358,18.718064 150.187728,19.039966 149.595523,19.039966 L149.594904,19.039966 Z" id="Shape-Copy-2" fill="#FFFFFF"></path>
            </g>
            <g id="blue-bg" transform="translate(0.000000, 122.000000)">
                <rect id="Rectangle" fill="#0059A5" x="0" y="0" width="340" height="36"></rect>
                <g id="cross" transform="translate(10.000000, 11.000000)" fill="#FFFFFF">
                    <path d="M15.8535657,12.8536492 L15.8535657,12.8536492 L10.9997007,7.9997842 L15.8535657,3.14591922 L15.8535657,3.14591922 C15.9060643,3.09342068 15.9435632,3.03242238 15.9680625,2.96742419 C16.0345607,2.78942914 15.9965617,2.58193491 15.8535657,2.43893889 L13.5606295,0.146002676 C13.4176335,0.00300665425 13.2096393,-0.0344923026 13.0321442,0.0315058614 C12.967146,0.0555051938 12.9061477,0.0935041367 12.8536492,0.14550269 L12.8536492,0.14550269 L7.9997842,4.99936766 L3.14591922,0.14550269 L3.14591922,0.14550269 C3.09342068,0.0935041367 3.03242238,0.0555051938 2.96742419,0.0315058614 C2.78942914,-0.0349922887 2.58193491,0.00300665425 2.43893889,0.146002676 L0.146002676,2.43893889 C0.00300665425,2.58193491 -0.0344923026,2.78992913 0.0315058614,2.96742419 C0.0560051799,3.03242238 0.0935041367,3.09342068 0.146002676,3.14591922 L0.146002676,3.14591922 L4.99986765,7.9997842 L0.146002676,12.8536492 L0.146002676,12.8536492 C0.0940041228,12.9061477 0.0560051799,12.967146 0.0315058614,13.0321442 C-0.0349922887,13.2096393 0.00300665425,13.4176335 0.146002676,13.5606295 L2.43893889,15.8535657 C2.58193491,15.9965617 2.78992913,16.0340607 2.96742419,15.9680625 C3.03242238,15.9435632 3.09342068,15.9060643 3.14591922,15.8535657 L3.14591922,15.8535657 L7.9997842,10.9997007 L12.8536492,15.8535657 L12.8536492,15.8535657 C12.9061477,15.9060643 12.967146,15.9435632 13.0321442,15.9680625 C13.2101393,16.0345607 13.4176335,15.9965617 13.5606295,15.8535657 L15.8535657,13.5606295 C15.9965617,13.4176335 16.0345607,13.2096393 15.9680625,13.0321442 C15.9435632,12.967146 15.9060643,12.9061477 15.8535657,12.8536492 L15.8535657,12.8536492 Z" id="Shape"></path>
                </g>
                <g id="download-button" transform="translate(71.000000, 11.000000)" fill="#FFFFFF">
                    <path d="M14,5.647 L10.2355,5.647 L10.2355,0 L4.5885,0 L4.5885,5.647 L0.824,5.647 L7.412,12.235 L14,5.647 L14,5.647 Z M0.824,14.1175 L0.824,16 L14.0005,16 L14.0005,14.1175 L0.824,14.1175 L0.824,14.1175 Z" id="Shape"></path>
                </g>
                <g id="key" transform="translate(190.000000, 11.000000)" fill="#FFFFFF">
                    <path d="M11,0 C8.2385,0 6,2.2385 6,5 C6,5.313 6.029,5.619 6.084,5.916 L0,12 L0,15 C0,15.5525 0.4475,16 1,16 L2,16 L2,15 L4,15 L4,13 L6,13 L6,11 L8,11 L9.2975,9.7025 C9.829,9.895 10.402,10 11,10 C13.7615,10 16,7.7615 16,5 C16,2.2385 13.7615,0 11,0 Z M12.498,5.002 C11.6695,5.002 10.998,4.3305 10.998,3.502 C10.998,2.6735 11.6695,2.002 12.498,2.002 C13.3265,2.002 13.998,2.6735 13.998,3.502 C13.998,4.3305 13.3265,5.002 12.498,5.002 Z" id="Shape"></path>
                </g>
                <g id="location" transform="translate(251.000000, 11.000000)" fill="#FFFFFF">
                    <path d="M5,0 C2.2385,0 0,2.2385 0,5 C0,10 5,16 5,16 C5,16 10,10 10,5 C10,2.2385 7.7615,0 5,0 Z M5,8 C3.343,8 2,6.657 2,5 C2,3.343 3.343,2 5,2 C6.657,2 8,3.343 8,5 C8,6.657 6.657,8 5,8 Z" id="Shape"></path>
                </g>
                <g id="printer" transform="translate(310.000000, 11.000000)" fill="#FFFFFF">
                    <g id="Group">
                        <polygon id="Shape" points="4.57142857 0 13.7142857 0 13.7142857 2.28571429 4.57142857 2.28571429"></polygon>
                        <path d="M17.1428571,3.42857143 L1.14285714,3.42857143 C0.514285714,3.42857143 0,3.94285714 0,4.57142857 L0,10.2857143 C0,10.9142857 0.514285714,11.4285714 1.14285714,11.4285714 L4.57142857,11.4285714 L4.57142857,16 L13.7142857,16 L13.7142857,11.4285714 L17.1428571,11.4285714 C17.7714286,11.4285714 18.2857143,10.9142857 18.2857143,10.2857143 L18.2857143,4.57142857 C18.2857143,3.94285714 17.7714286,3.42857143 17.1428571,3.42857143 Z M2.28571429,6.85714286 C1.65428571,6.85714286 1.14285714,6.34571429 1.14285714,5.71428571 C1.14285714,5.08285714 1.65428571,4.57142857 2.28571429,4.57142857 C2.91714286,4.57142857 3.42857143,5.08285714 3.42857143,5.71428571 C3.42857143,6.34571429 2.91714286,6.85714286 2.28571429,6.85714286 Z M12.5714286,14.8571429 L5.71428571,14.8571429 L5.71428571,9.14285714 L12.5714286,9.14285714 L12.5714286,14.8571429 Z" id="Shape"></path>
                    </g>
                </g>
                <path d="M149.594904,20.039966 L147.937845,20.039966 L147.937845,26.005709 C147.937845,26.448169 147.745812,27 146.946707,27 L142.982156,27 L142.982156,21.034256 L139.017604,21.034256 L139.017604,27 L135.053053,27 C134.253948,27 134.061915,26.448169 134.061915,26.005709 L134.061915,20.039966 L132.404856,20.039966 C131.812032,20.039966 131.939022,19.718064 132.345388,19.296112 L140.298031,11.310094 C140.491302,11.109372 140.745282,11.009943 140.99988,11 C141.254479,11.009943 141.508458,11.108129 141.70173,11.310094 L149.653753,19.295491 C150.061358,19.718064 150.187728,20.039966 149.595523,20.039966 L149.594904,20.039966 Z" id="Shape-Copy-3" fill="#FFFFFF"></path>
            </g>
        </g>
    </g>
</svg>